<?xml version="1.0" encoding="utf-8"?>
<!-- Generator: Adobe Illustrator 24.0.1, SVG Export Plug-In . SVG Version: 6.00 Build 0)  -->
<svg version="1.1" id="emblema-scp" xmlns="http://www.w3.org/2000/svg" xmlns:xlink="http://www.w3.org/1999/xlink" x="0px"
	 y="0px" viewBox="0 0 75 101.2" style="enable-background:new 0 0 75 101.2;" xml:space="preserve">
<style type="text/css">
	.st0{fill:#FFFFFF;}
	.st1{fill:#008863;}
	.st2{fill:#F2BE4B;}
</style>
<g>
	<path id="icon-badge-back" class="st0" d="M37.5,101.2c11.5-3.9,21-10.4,27.6-18.9c6.3-8.2,9.9-18.3,9.9-30
		c0-5.6-0.3-10.5-1.2-15.1c-0.8-4.3-1.9-8.3-3.6-12.3c-4.4-0.2-7.4-0.6-9.8-1.2c-2.6-0.7-4.9-1.9-7.3-3.1c-3.8-1.9-7.5-3.8-15.6-3.8
		c-8.1,0-11.8,1.9-15.6,3.8c-2.4,1.2-4.7,2.4-7.3,3.1c-2.4,0.7-5.4,1.1-9.8,1.2C3.2,29,2,32.9,1.2,37.2C0.3,41.8,0,46.7,0,52.3
		c0,11.7,3.6,21.9,9.9,30C16.5,90.8,26,97.2,37.5,101.2L37.5,101.2z"/>
	<g>
		<path id="icon-badge-v9" class="st1" d="M17.8,32.9c0.2-0.2,0.3-0.4,0.3-0.6s0-0.3,0-0.5c0-0.1-0.1-0.3-0.2-0.4s-0.3-0.2-0.5-0.2
			s-0.4,0-0.5,0.1c-0.2,0.1-0.4,0.2-0.6,0.3c-0.2,0.1-0.4,0.3-0.7,0.5l-0.4,0.3l1.3,1.6l0.6-0.5C17.4,33.3,17.7,33.1,17.8,32.9z"/>
		<path id="icon-badge-v8" class="st1" d="M22.7,81.9c-0.2-0.2-0.3-0.3-0.5-0.4s-0.4-0.2-0.6-0.2c-0.2-0.1-0.4-0.1-0.6,0
			c-0.2,0-0.4,0.1-0.6,0.3c-0.2,0.2-0.4,0.4-0.5,0.6c-0.2,0.3-0.2,0.5-0.3,0.8c0,0.3,0,0.5,0,0.7c0.1,0.2,0.2,0.4,0.3,0.5
			c0.2,0.2,0.3,0.3,0.5,0.4s0.4,0.2,0.6,0.2s0.4,0,0.6,0c0.2-0.1,0.4-0.2,0.6-0.3c0.2-0.2,0.3-0.3,0.5-0.6c0.2-0.3,0.2-0.6,0.3-0.8
			c0-0.2,0-0.5,0-0.7C22.9,82.2,22.8,82.1,22.7,81.9z"/>
		<path id="icon-badge-v7" class="st1" d="M16.8,78.3c-0.1-0.1-0.3-0.3-0.5-0.5L16,77.5l-1.1,1.2l0.5,0.5c0.2,0.2,0.4,0.3,0.6,0.5
			c0.2,0.1,0.3,0.2,0.5,0.2c0.1,0,0.3,0,0.4,0s0.2-0.1,0.3-0.2c0-0.3,0-0.5,0-0.6c0-0.1,0-0.3-0.1-0.4C17,78.5,16.9,78.4,16.8,78.3z
			"/>
		<path id="icon-badge-v6" class="st1" d="M33.3,27.1c0.3,0,0.6-0.1,0.8-0.1s0.4-0.1,0.6-0.2c0.1-0.1,0.2-0.2,0.3-0.3
			c0.1-0.1,0.1-0.3,0.1-0.5s-0.1-0.3-0.2-0.4s-0.2-0.2-0.5-0.2c-0.2,0-0.3-0.1-0.5,0c-0.2,0-0.4,0-0.7,0l-0.9,0.1l0.2,1.8L33.3,27.1
			z"/>
		<path id="icon-badge-v5" class="st1" d="M23.3,31c0.2,0.2,0.4,0.4,0.7,0.5c0.2,0.1,0.5,0.1,0.8,0.1s0.6-0.1,0.8-0.2
			c0.3-0.1,0.5-0.3,0.7-0.5s0.4-0.4,0.5-0.6c0.1-0.3,0.2-0.6,0.2-0.9s-0.1-0.6-0.2-1c-0.2-0.4-0.3-0.7-0.6-0.9
			c-0.2-0.2-0.5-0.4-0.7-0.5s-0.5-0.1-0.8-0.1s-0.6,0.1-0.8,0.2c-0.2,0.1-0.5,0.3-0.7,0.4c-0.2,0.2-0.3,0.4-0.5,0.6
			c-0.1,0.2-0.2,0.5-0.2,0.8s0.1,0.7,0.2,1C22.9,30.5,23.1,30.8,23.3,31z"/>
		<path id="icon-badge-v4" class="st1" d="M28.9,84.1c-0.1-0.1-0.2-0.1-0.4-0.2c-0.2-0.1-0.3-0.1-0.5-0.2l-0.7-0.2l-0.5,1.4l0.6,0.2
			c0.2,0.1,0.5,0.2,0.7,0.2s0.3,0,0.5,0s0.2-0.1,0.3-0.2c0.1-0.1,0.2-0.2,0.2-0.3s0-0.2,0-0.4C29.1,84.3,29,84.2,28.9,84.1z"/>
		<polygon id="icon-badge-v3" class="st1" points="56.3,81.9 54.6,80.6 54.9,82.7 		"/>
		<path id="icon-badge-v2" class="st1" d="M73.5,56c0.1-1.1,0.1-2.3,0.1-3.4c0-0.5,0-1,0-1.5H58c-0.1-1.1-0.4-2.2-0.6-3.3
			c-0.1-0.6-0.2-1.1-0.3-1.7h16.4c-0.5-7.6-2-14-4.6-20.4c-8.8-0.2-11.8-1.7-15.3-3.5c-4.1-2-7.6-4.2-16.2-4.2
			c-8.7,0-12.2,2.2-16.2,4.2c-3.6,1.8-6.5,3.3-15.3,3.5c-2.7,6.4-4.1,12.8-4.6,20.4h16.5c-0.1,0.6-0.2,1.1-0.3,1.7
			c-0.2,1.1-0.3,2.2-0.4,3.3H1.2c0,0.5,0,1,0,1.5c0,1.1,0,2.3,0.1,3.4H17c0,1.7,0.2,3.4,0.5,5H1.9c0.3,1.7,0.6,3.3,1.1,4.9h16
			c0.7,1.8,1.6,3.4,2.7,5h-17c5.5,13.7,17.3,23.7,33,29c15.6-5.3,27.5-15.3,33-29h-17c1.1-1.5,2-3.2,2.7-5h16
			c0.4-1.6,0.8-3.3,1.1-4.9H57.9c0.3-1.6,0.5-3.2,0.5-5L73.5,56L73.5,56z M61.6,33.6c1,0.2,1.9,1,2.8,2.1c0.3,0.4,0.6,0.9,0.9,1.3
			c0.2,0.4,0.4,1.2,0.6,1.9l-1.3,1c-0.1-0.8-0.3-1.8-0.6-2.4c-0.1-0.3-0.3-0.5-0.5-0.8c-0.4-0.5-1-1-1.6-1.2c-0.3-0.1-0.6-0.1-0.9,0
			c-0.3,0.1-0.6,0.2-0.9,0.4c-0.6,0.4-0.9,1-0.9,1.6c0,0.9,0.9,2.3,1.5,3l1-0.7l-0.7-1l1-0.7l1.8,2.8l-2.4,1.8
			c-0.3-0.2-1-0.9-1.5-1.3C59.4,41,59,40.5,58.7,40c-0.9-1.1-1.3-2.2-1.3-3.2s0.5-1.9,1.4-2.5C59.7,33.5,60.6,33.3,61.6,33.6z
			 M53.5,27.4l1.8,5.6l2.3-3.5l1.7,1l-3.7,5.8l-1.5-1l-1.7-5.5l-1.7,3.7L49,32.8l2.8-6.2L53.5,27.4z M49.1,25.6l-1.9,6.5l-1.9-0.5
			l1.9-6.5L49.1,25.6z M38.1,23.6l7.3,0.8l-0.2,1.4l-2.7-0.3l-0.6,5.3l-2-0.2l0.6-5.3L37.8,25L38.1,23.6z M33.9,24
			c0.5,0,0.9-0.1,1.3,0c0.4,0,0.7,0.1,1,0.2s0.6,0.3,0.8,0.5s0.3,0.5,0.3,0.9c0,0.5-0.1,0.9-0.3,1.2c-0.2,0.3-0.6,0.7-1.1,0.9
			c1.2,0.7,1.8,1.7,2.4,2.8L36,30.6c-0.4-0.8-1.2-1.6-2.1-2.3l-1.1,0.1l0.2,2.5l-2,0.2l-0.6-6.8L33.9,24z M20.8,28.2
			c0.5-0.9,1.3-1.6,2.6-2.1c1.2-0.5,2.4-0.7,3.3-0.4c1,0.3,1.7,0.9,2.1,1.9s0.4,1.9-0.1,2.8s-1.3,1.6-2.6,2.1
			c-1.3,0.5-2.4,0.7-3.3,0.4c-1-0.3-1.6-0.9-2.1-1.9S20.3,29.1,20.8,28.2z M14.5,41.1c-0.4,0.6-0.8,1-1.2,1.4s-0.5,0.5-0.9,0.8
			L11,42.4c0.5-0.3,0.9-0.5,1.4-0.9c0.5-0.3,0.8-0.7,1.1-1.1c0.1-0.1,0.2-0.2,0.3-0.4s0.2-0.3,0.2-0.5c0.1-0.2,0.1-0.3,0.1-0.4
			s-0.1-0.2-0.2-0.3s-0.3-0.1-0.5,0S13,39,12.8,39.2c-0.2,0.2-0.5,0.5-0.7,0.7s-0.5,0.5-0.7,0.7c-0.6,0.5-1.1,0.7-1.5,0.8
			S9,41.3,8.7,41.1c-0.5-0.4-0.7-1-0.7-1.7c0.1-0.8,0.5-1.6,1.1-2.5c0.3-0.4,0.7-0.9,1.1-1.2c0.3-0.3,0.6-0.6,0.9-0.8l1,1
			c-0.7,0.4-1.5,1.1-2,1.8C10,37.8,9.9,38,9.8,38.1c-0.1,0.2-0.2,0.3-0.2,0.5c-0.1,0.2-0.1,0.3-0.1,0.4c0,0.1,0.1,0.2,0.2,0.3
			c0.1,0.1,0.3,0.1,0.5,0s0.4-0.3,0.8-0.6c0.2-0.2,0.4-0.4,0.6-0.6c0.2-0.2,0.4-0.4,0.7-0.6c0.5-0.4,1-0.7,1.4-0.7s0.8,0,1.2,0.3
			c0.5,0.4,0.8,1,0.7,1.8C15.6,39.2,15.2,40.1,14.5,41.1z M17.2,38l-4.3-5.2l2.7-2.3c0.4-0.3,0.8-0.6,1.1-0.8c0.3-0.2,0.7-0.3,1-0.4
			c0.4-0.1,0.7-0.1,1,0s0.6,0.3,0.8,0.6c0.2,0.2,0.3,0.5,0.4,0.8s0.1,0.6,0,0.9c-0.1,0.4-0.2,0.8-0.5,1.2c-0.2,0.4-0.6,0.7-1,1.1
			l-1.1,0.9l1.4,1.7L17.2,38z M17,81.2c-0.3,0-0.7-0.1-1-0.2c-0.3-0.1-0.7-0.4-1-0.7l-0.8-0.9L13,80.7l-1.2-1.1l3.7-3.9l2.1,1.9
			c0.3,0.3,0.5,0.6,0.7,0.8c0.3,0.4,0.5,1.1,0.4,1.6c0,0.3-0.2,0.5-0.4,0.7c-0.2,0.2-0.4,0.3-0.6,0.4C17.5,81.1,17.3,81.2,17,81.2z
			 M22.4,86.1c-0.8,0.1-1.6-0.1-2.6-0.6c-0.9-0.5-1.5-1.2-1.8-1.9s-0.2-1.5,0.2-2.2c0.4-0.8,1-1.2,1.8-1.3s1.6,0.1,2.5,0.6
			s1.5,1.2,1.8,1.9c0.3,0.7,0.2,1.5-0.2,2.3C23.8,85.5,23.2,86,22.4,86.1z M30.8,85.2c-0.1,0.4-0.3,0.7-0.6,0.8
			c-0.3,0.2-0.7,0.3-1.1,0.3c0.5,0.7,1,1.7,1.2,2.8l-1.9-0.6c-0.1-0.8-0.5-1.6-1-2.4l-0.8-0.3L26,87.7l-1.6-0.5l1.7-5.1l2.7,0.9
			c0.4,0.1,0.7,0.2,0.9,0.4c0.3,0.1,0.5,0.3,0.7,0.5c0.2,0.2,0.3,0.4,0.4,0.6C30.9,84.7,30.9,84.9,30.8,85.2z M37.1,85.2L34.9,85
			l-0.4,4.3l-1.4-0.1l0.4-4.3l-2.2-0.2l0.1-1.1l5.8,0.5L37.1,85.2z M43.6,88.6c-0.5,0.4-1.2,0.7-2.1,0.7c-1,0.1-1.7,0-2.3-0.3
			c-0.5-0.3-0.8-0.8-0.9-1.5L38,84l1.6-0.1l0.3,3.3c0,0.4,0.2,0.7,0.4,0.8c0.2,0.2,0.6,0.2,1,0.2c0.4,0,0.8-0.2,1-0.3
			c0.2-0.2,0.3-0.5,0.2-0.9l-0.3-3.4l1.7-0.2l0.3,3.5C44.3,87.6,44.1,88.2,43.6,88.6z M51.3,86.9c-0.4,0.2-0.9,0.4-1.4,0.6
			c-1.1,0.3-2,0.3-2.8,0.1c-0.8-0.3-1.3-0.9-1.5-1.7c-0.2-0.8-0.1-1.6,0.3-2.2c0.5-0.7,1.3-1.2,2.4-1.5c0.4-0.1,0.8-0.2,1.2-0.3
			c0.4-0.1,0.9-0.1,1.4,0l0.4,1.2c-0.5-0.1-1.2-0.2-1.7-0.2c-0.2,0-0.5,0.1-0.7,0.1c-0.3,0.1-0.6,0.2-0.8,0.4
			c-0.4,0.3-0.7,0.7-0.8,1.2c0,0.2,0,0.5,0.1,0.8c0.2,0.6,0.5,1,1,1.1c0.7,0.3,1.8,0,2.5-0.3l-0.3-1l-0.9,0.3l-0.3-1l2.4-0.7
			l0.8,2.5C52.2,86.4,51.8,86.6,51.3,86.9z M58.1,76.3l2.9,3.2l2.3-2.1l0.7,0.8l-3.4,3.2l-3.7-4L58.1,76.3z M54.8,78.9l4.8,3.4
			l-1.5,0.9l-1-0.7L55,83.7l0.1,1.2l-1.5,0.9L53,79.9L54.8,78.9z M52,71.2c-3.4,4.4-8.3,7.7-14.3,9.7h-0.3c-6-2-10.9-5.3-14.3-9.7
			C19.8,67,18,61.7,18,55.7c0-2.8,0.2-5.3,0.6-7.6s1.1-4.5,2-6.7l0.1-0.3c1.8-0.1,3.6-0.1,5.3-0.6c1.2-0.3,2.3-0.9,3.4-1.4
			c2-1,3.9-2,8.2-2s6.2,1,8.2,2c1.1,0.6,2.2,1.1,3.4,1.4c1.7,0.5,3.5,0.5,5.3,0.6l0.1,0.3c0.9,2.2,1.5,4.3,2,6.7
			c0.4,2.3,0.6,4.8,0.6,7.6C57.1,61.8,55.2,67,52,71.2z"/>
		<path id="icon-badge-v1" class="st1" d="M53.6,42.1c-2.2-0.1-3.7-0.3-4.8-0.6c-1.3-0.3-2.4-0.9-3.6-1.5c-1.9-1-3.7-1.9-7.7-1.9
			S31.6,39,29.8,40c-1.2,0.6-2.3,1.2-3.6,1.5c-1.2,0.3-2.7,0.5-4.8,0.6c-0.8,2-1.4,4-1.8,6.1c-0.4,2.3-0.6,4.7-0.6,7.5
			c0,5.8,1.8,10.8,4.9,14.9c3.2,4.2,7.9,7.4,13.6,9.3c5.7-2,10.4-5.1,13.6-9.3c3.1-4,4.9-9.1,4.9-14.9c0-2.8-0.2-5.2-0.6-7.5
			C54.9,46,54.4,44.1,53.6,42.1z"/>
	</g>
	<g>
		<path class="st1" d="M13.3,16.8l1.7,0c1.8,0,3.3-0.2,4.4-0.5c1.1-0.3,2.1-0.9,2.4-1.4c0.1-0.1,0-0.2,0-0.3
			c-0.1-0.2-0.5-0.4-1.1-0.4c-0.5,0-1.2,0.1-1.9,0.3c-1.2,0.3-2.2,0.3-2.9,0.3c-1.1,0-2.1-0.1-2.6-0.3c-1.1-0.5-1.8-1.3-2.2-2.3
			c-0.3-1.2,0.1-2.6,1.1-3.9c1-1.2,2.6-2.1,4.4-2.7c2-0.8,3.8-1,5.5-1.2l0.4,0L24.1,8h-0.8c-1,0-2.1,0-3.4,0.3
			c-1.4,0.2-2.6,0.7-3.3,1.3c-0.2,0.2-0.2,0.4-0.2,0.5c0.1,0.2,0.3,0.2,0.4,0.2l0.1,0c0.3,0,0.6-0.1,1-0.1c0.3,0,0.7,0,1-0.1
			c0.9-0.1,1.9-0.2,2.9-0.2c1,0,1.8,0.1,2.6,0.3c1.8,0.5,2.4,1.6,2.6,2.3c0.3,1.4-0.4,3.2-1.8,4.6c-0.9,0.8-1.9,1.4-2.7,1.7
			c-2.2,1-4.7,1.3-6.8,1.5l-0.3,0L13.3,16.8z M47.3,16.7l4.1-13.1l5.4,1.8c1.6,0.5,3.2,1,4.1,1.4c0.7,0.3,1.6,1,2.4,2
			c0.8,1,1,2.3,0.7,3.4c-0.3,1.1-1.2,2-2.4,2.4c-0.6,0.2-1.3,0.3-2.1,0.3c-1.1,0-2.1-0.2-2.7-0.4l-2.9-1l-1.5,4.7L47.3,16.7z
			 M56.6,11c0.2,0.1,0.7,0.1,1.2,0.1c0.7,0,1.1-0.2,1.2-0.4c0.1-0.2,0.1-0.4,0-0.6c-0.2-0.4-0.9-0.8-1.4-0.9l-2.2-0.7l-0.6,1.8
			L56.6,11z M38.5,16.1c-1.2,0-2.4-0.1-3.5-0.3c-2.1-0.5-4.8-1.5-6.4-3.6c-0.7-0.9-1.1-2-1.1-3.3c0-1,0.3-1.9,0.9-2.9
			c1.3-2.1,4-3.2,6-3.8c1.5-0.3,2.9-0.5,4.2-0.5C39.8,1.7,41,1.8,42,2c1.1,0.2,2.2,0.5,3.1,0.9L45,3.4h0.2v4l-0.8-0.5
			c-1.4-0.9-3.6-1.4-5.7-1.4c-2,0-5.5,0.7-5.5,3.3c0,3.2,4.6,3.4,5.5,3.4c2,0,4-0.5,6-1.5l0.7-0.4v4.3l-0.3,0.1
			c-0.5,0.2-2,0.9-3.3,1.1C40.8,16,39.6,16.1,38.5,16.1z"/>
		<path class="st0" d="M38.6,2.2c1.2,0,2.3,0.1,3.3,0.3C43,2.7,44,3,44.9,3.4h-0.2v3.1c-1.6-1-4-1.5-6-1.5c-2.3,0-6,0.8-6,3.8
			c0,3.1,3.6,3.9,6,3.9c2.2,0,4.3-0.6,6.2-1.6v3.1c-0.9,0.4-2.2,0.9-3.2,1.1c-1,0.2-2.1,0.3-3.2,0.3c-1.2,0-2.3-0.1-3.4-0.3
			c-2.2-0.5-4.7-1.5-6.1-3.4c-0.7-0.9-1-1.9-1-3c0-0.9,0.3-1.8,0.8-2.6c1.2-1.9,3.6-3,5.7-3.6C35.8,2.4,37.2,2.2,38.6,2.2 M51.7,4.3
			l4.9,1.6c1.6,0.5,3.2,1,4.1,1.4c0.8,0.4,1.6,1,2.2,1.8c1.4,1.9,0.7,4.3-1.5,5.1c-0.6,0.2-1.3,0.3-1.9,0.3c-1,0-1.9-0.2-2.6-0.4
			L53.5,13L52,17.7l-4.1-1.3L51.7,4.3 M57.8,11.7c0.7,0,1.5-0.2,1.7-0.8c0.4-1.1-0.9-1.9-1.8-2.1L55.1,8l-0.9,2.8l2.3,0.7
			C56.8,11.6,57.3,11.7,57.8,11.7 M22.1,5l1.2,2.5c-1,0-2.2,0-3.5,0.3c-1.3,0.2-2.7,0.7-3.5,1.4c-0.7,0.7-0.4,1.6,0.6,1.6
			c0,0,0.1,0,0.1,0c0.6-0.1,1.4-0.1,2-0.2c0.9-0.1,1.8-0.2,2.8-0.2c0.8,0,1.6,0.1,2.4,0.3c3.4,1,2.5,4.2,0.5,6.1
			c-0.8,0.7-1.7,1.3-2.5,1.6c-2.1,1-4.5,1.3-6.7,1.5l-1.4-2.6c0.2,0,0.5,0,0.8,0c1.1,0,3-0.1,4.6-0.5c1.6-0.4,3.1-1.4,2.7-2.3
			c-0.2-0.5-0.8-0.7-1.6-0.7c-0.6,0-1.3,0.1-2,0.3c-1,0.2-2,0.3-2.8,0.3c-1.1,0-2-0.1-2.4-0.3c-0.9-0.4-1.6-1.1-1.9-2
			c-0.3-1,0.1-2.3,1-3.4c0.9-1,2.3-1.9,4.2-2.5C18.5,5.5,20.2,5.2,22.1,5 M38.6,1.2c-1.4,0-2.8,0.2-4.3,0.5l0,0l0,0
			c-2.1,0.6-4.8,1.8-6.3,4c-0.6,1-1,2.1-1,3.1c0,1.4,0.4,2.6,1.2,3.6c1.6,2.2,4.5,3.3,6.7,3.8c1.2,0.2,2.4,0.3,3.6,0.3
			c1.2,0,2.4-0.1,3.4-0.3c1.3-0.3,2.9-1,3.4-1.2l0.6-0.3v-0.6v-3.1V9.5l-1.5,0.8c-1.9,1-3.8,1.5-5.7,1.5c-0.8,0-5-0.1-5-2.9
			c0-2.8,4.8-2.8,5-2.8c2,0,4.2,0.5,5.5,1.3l1.5,1V6.5V3.4h-0.6l0.2-0.9c-1-0.4-2.1-0.8-3.2-1C41,1.3,39.9,1.2,38.6,1.2L38.6,1.2z
			 M51,3l-0.3,1l-3.8,12.1l-0.3,1l1,0.3l4.1,1.3l1,0.3l0.3-1l1.2-3.7l2.4,0.8c0.7,0.2,1.8,0.4,2.9,0.4c0.8,0,1.5-0.1,2.2-0.3
			c1.4-0.5,2.4-1.5,2.8-2.8c0.4-1.3,0.1-2.7-0.7-3.9c-0.7-0.9-1.5-1.6-2.6-2.1c-1-0.4-2.7-1-4.3-1.5L52,3.4L51,3L51,3z M55.5,10.1
			l0.3-0.9l1.7,0.5l0,0l0,0c0.4,0.1,0.9,0.4,1.1,0.6c0,0.1,0,0.1,0,0.1c-0.1,0-0.3,0.1-0.8,0.1c-0.4,0-0.8-0.1-1-0.1L55.5,10.1
			L55.5,10.1z M22.7,3.9L22,4c-1.7,0.2-3.6,0.5-5.6,1.3c-1.9,0.6-3.5,1.6-4.6,2.8c-1.2,1.4-1.6,3-1.2,4.4c0.4,1.2,1.3,2.1,2.5,2.6
			c0.6,0.2,1.6,0.4,2.8,0.4c0.7,0,1.8-0.1,3-0.3c0.7-0.2,1.3-0.2,1.8-0.2c0.3,0,0.4,0,0.6,0.1c-0.3,0.3-0.9,0.7-1.9,0.9
			c-1.1,0.3-2.6,0.5-4.3,0.5c-0.2,0-0.4,0-0.6,0l-0.3,0h-1.7l0.8,1.5l1.4,2.6l0.3,0.6l0.7-0.1c2.2-0.2,4.7-0.5,7-1.6
			c0.9-0.3,1.8-1,2.8-1.8c1.6-1.5,2.4-3.5,2-5.1c-0.2-0.9-0.9-2.1-2.9-2.7c-0.8-0.2-1.7-0.4-2.7-0.4c-1,0-2.1,0.1-2.9,0.2
			c-0.3,0-0.6,0.1-1,0.1c-0.2,0-0.5,0-0.7,0.1c0.6-0.4,1.7-0.8,2.7-1l0,0l0,0c1.2-0.3,2.3-0.3,3.3-0.3h1.6l-0.7-1.4L23,4.6L22.7,3.9
			L22.7,3.9z"/>
	</g>
	<g id="icon-badge-lion">
		<path id="icon-badge-l4" class="st2" d="M49.5,49.1c0.1,0.1,0.3,0.2,0.6,0.2c0.4,0,0.9-0.1,1.1-0.2s0.4-0.2,0.6-0.2
			c-0.1,0-0.4,0-0.6,0.1c-0.4,0.1-1.3,0-1.3-0.5l0,0c0,0,0,0,0.1,0c0.3,0.1,0.6,0.2,1,0.2c0.3,0,0.5-0.1,0.7-0.2
			c0.2-0.1,0.3-0.2,0.6-0.2c-0.3-0.2-0.6,0-1,0c-0.3,0-0.5-0.1-0.7-0.2c-0.1-0.1-0.2-0.1-0.4-0.2c-0.3-0.1-0.7-0.2-1-0.2
			c-0.2,0-0.5,0.1-0.7,0.2c-0.2,0.1-0.3,0.3-0.4,0.5l0,0c-0.7-0.1-1.2,0.1-1.7,0.4s-0.9,0.8-1.2,1.4c-0.4,0.8-0.4,1.6-0.3,2.5
			c0.1,0.8,0.5,1.6,0.9,2.4c0.8,1.5,1.3,2.5,1.6,3.2c0.3,0.7,0.4,1.2,0.4,1.8c0,0.4-0.1,0.8-0.3,1.1s-0.5,0.6-0.9,0.7
			c-0.4,0.2-0.8,0.2-1.2,0.1c-0.5-0.1-1-0.4-1.5-0.9c-0.3-0.3-0.8-1.1-1.2-2c-0.4-0.7-0.7-1.5-0.7-1.9c-0.1-0.7-0.1-1.7-0.1-2.7
			c0-0.1,0-0.2,0-0.4c-0.2,0.2-0.3,0.3-0.4,0.5s-0.2,0.5-0.2,0.8c0,0,0,0-0.1,0c-0.2-0.2-0.4-0.6-0.4-0.9c-0.1-0.4,0-0.8,0.1-1.3
			c0.2-0.6,0.3-1.1,0.3-1.6s-0.1-1-0.5-1.3v-0.1c0.2,0,0.5,0.2,0.7,0.4s0.4,0.4,0.5,0.7c0.1,0.2,0.1,0.4,0.2,0.7
			c0.2,0.8,0.4,1.6,1.3,1.7c-0.5-0.5-0.5-1.4-0.5-2.2c0-0.4,0-0.8,0-1.2c-0.1-0.5-0.3-0.8-0.5-1.1c-0.3-0.3-0.7-0.4-1-0.4
			c0,0,0,0,0-0.1c0.1-0.1,0.2-0.2,0.2-0.3c0.1-0.1,0.3-0.2,0.5-0.2c0.2,0,0.3,0,0.5,0.1c0.1,0.1,0.2,0.1,0.2,0.2
			c0.2,0.2,0.3,0.4,0.4,0.7c0.2,0.5,0.5,1,1,1.1C44,50,44,49.7,44,49.3c0-0.5-0.1-1-0.5-1.7c-0.2-0.3-0.4-0.5-0.7-0.7
			s-0.6-0.2-1-0.2c0,0-0.1,0,0-0.1c0.1-0.2,0.3-0.4,0.5-0.5s0.4-0.1,0.6-0.1c0.5,0.1,0.7,0.4,1,0.7c0.2,0.2,0.3,0.5,0.6,0.6
			c-0.1-0.2-0.2-0.4-0.2-0.6c-0.1-0.2-0.1-0.5-0.1-0.8s-0.2-0.6-0.4-0.8c-0.3-0.2-0.6-0.4-1-0.4c-0.2,0-0.3,0-0.5,0.1
			c-0.2,0-0.4,0.1-0.6,0.2c0,0,0,0-0.1,0c0-0.2,0-0.4,0.1-0.6c0.1-0.1,0.2-0.2,0.3-0.3s0.3-0.1,0.5-0.1c0.4,0,0.9,0.1,1.3,0.3
			c0-0.2-0.1-0.4-0.2-0.5c-0.2-0.2-0.3-0.3-0.6-0.3c-0.4-0.1-0.8-0.1-1.2-0.1c-0.4,0-0.8,0-1.1-0.1v-0.1c0.4-0.1,0.8-0.4,1.3-0.8
			l0,0c-0.9,0.1-1.5-0.1-2.1-0.2c-0.7-0.2-1.4-0.4-2.4,0.3l0,0c-0.3-0.1-0.6-0.1-0.9-0.2c-0.3,0-0.5,0-0.7,0s-0.4,0.1-0.4,0.2
			c0,0.1-0.1,0.1-0.1,0.2s0,0.1,0.1,0.2c0.1,0.1,0.2,0.2,0.4,0.3c0.2,0,0.5,0.1,0.8,0.1s0.7,0,1.2-0.1c0,0,0,0,0,0.1
			c-0.1,0.2-0.5,0.3-0.8,0.5c-0.3,0.1-0.6,0.2-0.8,0.3c0,0,0,0-0.1,0c-0.2-0.3-0.5-0.5-0.9-0.5s-1,0.1-1.8,0.3l-0.2,0.3
			c-0.1,0.1-0.1,0.2,0,0.2c0.1,0.1,0.2,0.1,0.5,0.1c0.1,0,0.1,0,0.2,0v0.1c-0.2,0-0.3,0.1-0.4,0.3c-0.1,0.1-0.1,0.2-0.1,0.3
			s0,0.2,0.1,0.3s0.2,0.2,0.4,0.3c0.7-0.6,1.5-0.8,2.2-0.7c0.2,0,0.5,0.1,0.6,0.2c0.2,0.1,0.3,0.2,0.5,0.3c0.2,0.2,0.3,0.5,0.2,0.7
			c-0.1,0.4-0.2,0.7-0.7,0.8c-0.4,0.1-1.1,0.1-2.2-0.1c-0.1,0.2,0,0.5,0.1,0.7c0.2,0.3,0.5,0.5,0.9,0.7c0.3-0.2,0.6-0.4,0.8-0.6
			c0.3-0.1,0.5-0.2,0.7-0.2c0.1,0,0.2,0,0.2,0.1c0.1,0,0.1,0.1,0.1,0.2c0,0.1,0,0.2,0,0.2c0,0.1-0.1,0.3-0.2,0.4
			c-0.3,0.3-0.9,0.5-1.4,0.7c-0.2,0.1-0.3,0.1-0.5,0.2c-0.4,0.2-0.8,0.3-1.1,0.5s-0.4,0.3-0.5,0.6c0.2,0,0.5,0,0.7,0
			c0.5,0,0.9,0,1.6-0.2l0,0c-0.1,0.5-0.9,0.8-1.8,1.1c-0.4,0.1-0.8,0.3-1.2,0.5c-0.3,0.2-0.7,0.4-0.9,0.7c-0.2,0.3-0.4,0.7-0.5,1.1
			c0.2,0,0.4,0,0.7-0.1c0.3-0.1,0.7-0.3,1.1-0.6c0.2-0.1,0.4-0.2,0.6-0.2c0.4-0.1,0.8-0.2,1.4-0.7h0.1c-0.1,0.3-0.2,0.6-0.3,0.8
			c-0.2,0.2-0.4,0.5-0.6,0.7c-0.2,0.2-0.7,0.3-1.1,0.4c-0.1,0-0.2,0-0.3,0.1c-0.4,0.1-0.7,0.2-1,0.2s-0.5-0.1-0.6-0.2
			c-0.5,0.2-1,0.5-1.6,0.9c-0.2,0.1-0.3,0.2-0.5,0.3c-0.4,0.3-0.8,0.5-1.2,0.6c-0.4,0.2-0.8,0.3-1.3,0.3c-0.6,0-1.1-0.2-1.5-0.5
			c-0.4-0.2-0.8-0.4-1.2-0.5c-0.2,0-0.3,0.1-0.4,0.2c-0.1,0.1-0.2,0.3-0.2,0.5c0.1,0,0.3,0,0.4,0h0.1c0.2,0,0.4,0,0.5,0.1
			c0.1,0.1,0.2,0.2,0.3,0.4v0.1c-0.3,0-1,0-1.4,0.2s-0.7,0.5-0.4,1.2c0-0.1,0.1-0.2,0.1-0.2c0-0.1,0.1-0.1,0.2-0.2
			c0.1,0,0.3-0.1,0.4-0.1c0.5-0.2,0.7-0.3,1.1,0.2v0.1c-0.1,0-0.2,0-0.2,0c-0.4,0.1-0.7,0.3-0.8,0.5c-0.2,0.2-0.2,0.5-0.2,0.8
			c0,0.1,0,0.1,0,0.2C24,59,24.2,59,24.3,59s0.2-0.1,0.2-0.1c0.1-0.1,0.2-0.1,0.2-0.2c0.3-0.2,0.5-0.4,1.4-0.6
			c0.2-0.1,0.3-0.1,0.5-0.2c0.4-0.1,0.7-0.3,1.1-0.3c0.3,0,0.7,0.1,1,0.2c0.3,0.1,0.7,0.2,1.1,0.3c-0.1-0.2-0.2-0.4-0.4-0.5
			c-0.2-0.2-0.4-0.3-0.7-0.4c0,0,0,0,0-0.1c0.3-0.3,0.7-0.3,1-0.2c0.4,0.1,0.7,0.2,1.1,0.4c0.5,0.2,0.8,0.5,1.2,0.5
			c0.4,0,0.8,0,1.3-0.3c-0.5-0.1-0.8-0.4-1-0.6c-0.3-0.3-0.7-0.6-1.3-0.5c0,0,0,0,0-0.1c0.1-0.2,0.3-0.3,0.5-0.4
			c0.2-0.1,0.4-0.1,0.7-0.1c0.3,0,0.7,0.2,1.2,0.5c0.7,0.4,1.4,0.8,2.2,0.8c0,0,0,0,0,0.1c-0.2,0.2-0.5,0.4-0.8,0.5
			c0.1,0.2,0.3,0.5,0.6,0.8s0.7,0.6,1,0.8c0.3,0.2,0.7,0.3,1.1,0.5c0.4,0.1,0.8,0.2,1.4,0.3c0.6,0.1,1.1,0.3,1.3,0.5
			c0.3,0.2,0.3,0.4,0.2,0.6c0.2,0.1,0.1,0.4,0,0.7c-0.1,0.2-0.2,0.4-0.4,0.6c-0.1,0.2-0.3,0.4-0.4,0.7c-0.3,0.5-0.3,1.1-0.3,1.8v0.1
			c0,0.2,0.2,0.4,0.4,0.7s0.4,0.5,0.6,0.7l0.1,0.1c0.5,0.6,0.9,1,0.8,2.1c0.4-0.3,0.8-0.4,1.1-0.4c0.2,0,0.4,0,0.6,0.2l0,0
			c0.1,0.1,0.2,0.3,0.3,0.5c0.1,0.3,0,0.8-0.1,1.3c-0.2,0.4-0.4,0.8-0.7,1.1c-0.3,0.3-0.6,0.7-0.9,0.9c-0.3,0.1-0.7,0-1,0
			c-0.5-0.1-1-0.2-1.3,0.2c-0.1,0.1-0.1,0.2-0.2,0.3c0,0.1,0,0.3,0,0.5c0.2,0,0.4,0,0.7-0.1c0.5-0.1,1-0.2,1.2,0.2l0,0
			c-0.1,0.1-0.2,0.2-0.3,0.3s-0.2,0.2-0.3,0.3c-0.1,0.2-0.2,0.5-0.3,0.9V75c0.1,0,0.3,0,0.4,0c0.4,0,0.8,0,1.1-0.3
			c0.1-0.1,0.2-0.2,0.3-0.3c0.2-0.2,0.4-0.5,0.6-0.5l0,0c0,0.2,0,0.3,0.1,0.4c0.1,0.3,0.1,0.5-0.1,0.9c0.4,0,0.8-0.1,1.1-0.3
			c0.2-0.2,0.4-0.4,0.4-0.6c0-0.2-0.1-0.4-0.1-0.6c-0.1-0.3-0.2-0.6-0.1-1c0.1-0.3,0.2-0.6,0.3-0.8s0.3-0.4,0.5-0.5
			c0.3-0.1,0.6-0.3,0.8-0.5c0.2-0.2,0.4-0.4,0.5-0.7c-0.1,0-0.3,0.1-0.4,0.1c-0.2,0-0.4,0-0.5,0.1c0,0,0,0-0.1,0
			c-0.1-0.1-0.1-0.3-0.1-0.4s0.1-0.3,0.2-0.5l0,0c0.1-0.1,0.3-0.3,0.5-0.4c0.2-0.1,0.3-0.2,0.4-0.3c0,0,0.1,0,0.2,0
			c0.2-0.1,0.7-0.2,1.4-0.8c0.2-0.2,0.4-0.5,0.4-0.7c0-0.2,0-0.5-0.2-0.7c-0.3,0.6-0.9,0.8-1.3,1c-0.3,0.1-0.6,0.2-0.7,0.4h-0.1
			c-0.1-0.3,0-0.7,0.1-1c0.2-0.3,0.5-0.6,0.8-0.8c0.1,0,0.2-0.1,0.3-0.2c0.9-0.5,1.7-0.9,1.6-2c-0.3,0.3-0.7,0.4-0.9,0.5
			c-0.2,0-0.4,0-0.6,0c-0.2-0.1-0.3-0.2-0.4-0.3c-0.2-0.2-0.3-0.5-0.3-0.8v-0.1c0.7,0.1,1.3,0.1,1.9-0.1c0.4-0.2,0.8-0.5,1-0.9
			c-0.2,0.1-0.3,0.2-0.5,0.3s-0.4,0-0.6-0.1c0,0,0,0,0-0.1c0.6-0.3,1-0.7,1.2-1.1c0.3-0.5,0.4-1,0.5-1.6c0-0.3,0-0.6-0.1-0.9
			c-0.1-0.3-0.2-0.7-0.4-1c-0.2-0.3-0.3-0.6-0.5-0.9c-0.2-0.3-0.4-0.7-0.6-1c-0.3-0.5-0.7-1.1-1-1.6s-0.6-1.1-0.7-1.6
			c-0.2-0.6-0.3-1.3-0.2-1.9c0.1-0.6,0.3-1.1,0.7-1.5c0.2-0.2,0.5-0.5,0.8-0.6c0.3-0.1,0.6-0.2,0.9-0.1l0,0c-0.1,0.3-0.1,0.6,0,0.8
			c0.1,0.4,0.5,0.7,0.9,0.7c0.7,0.1,1.2-0.1,1.8-0.3c0.3-0.1,0.5-0.2,0.8-0.3c-0.3-0.1-0.5,0-0.8,0c-0.2,0-0.4,0.1-0.6,0
			c-0.2-0.1-0.4-0.2-0.4-0.4C49.4,49.2,49.4,49.2,49.5,49.1C49.4,49.1,49.5,49.1,49.5,49.1z M38.5,53.6c0.3-0.2,0.6-0.5,0.7-0.9
			c0.1-0.3,0.1-0.7,0-1.1c0,0,0.1-0.1,0.1,0c0.4,0.7,0.5,1.3,0.4,1.8c-0.2,0.5-0.5,0.9-1.1,1.2c-0.3,0.2-0.6,0.2-0.9,0.2
			c-0.4,0.1-0.8,0.1-1.3,0.5h-0.1c0.2-0.6,0.8-0.9,1.4-1.3C37.9,53.9,38.2,53.8,38.5,53.6z M33.7,54.2c0.2-0.2,0.6-0.5,1-0.6
			c0.2-0.1,0.4-0.2,0.7-0.3c0.8-0.3,1.4-0.6,1.8-1.6h0.1c0.2,0.6,0.2,1.1,0,1.5c-0.2,0.5-0.6,0.8-1.1,1s-0.9,0.2-1.2,0.3
			c-0.4,0.1-0.8,0.1-1.3,0.3h-0.1C33.4,54.5,33.5,54.4,33.7,54.2z M34.3,56c-0.3-0.2-0.5-0.4-0.8-0.4v-0.1c0.8-0.4,1.4,0,2,0.4
			c0.2,0.2,0.5,0.3,0.8,0.4v0.1C35.3,56.8,34.8,56.4,34.3,56z M35.1,57.9C35.1,57.9,35.1,57.8,35.1,57.9c0.3,0,0.6,0.1,0.8,0.2
			c0.3,0,0.6,0.1,0.9,0c0.4,0,0.8-0.1,1.2-0.2c0.4-0.1,0.8-0.2,1.1-0.4c0,0,0.1,0,0.1,0.1c-0.2,0.3-0.5,0.6-0.8,0.7
			c-0.4,0.2-0.8,0.3-1.2,0.3c-0.4,0-0.7-0.1-1.1-0.2C35.6,58.3,35.3,58.1,35.1,57.9z M38.6,59.6c-0.4,0-0.8,0-1.1-0.2
			c-0.3-0.1-0.6-0.3-0.8-0.5v-0.1c0.6,0.1,1.1,0.2,1.8,0.1c0.7,0,1.3-0.1,2-0.3c0,0,0.1,0.1,0,0.1s-0.2,0.1-0.2,0.2
			C39.9,59.2,39.5,59.6,38.6,59.6z M40.8,67C40.8,67,40.7,67,40.8,67c-0.3-0.5-0.5-0.9-0.7-1.2c-0.2-0.4-0.5-0.7-0.5-1.2
			c0-0.3,0-0.7,0.2-1.1c0.1-0.4,0.3-0.7,0.6-1h0.1c-0.1,0.3-0.1,0.5-0.2,0.8c0,0.3,0,0.6,0,0.8c0,0.6,0.2,0.9,0.4,1.3
			C40.7,65.9,40.9,66.3,40.8,67z"/>
		<path id="icon-badge-l3" class="st2" d="M25.1,48.1c0.2,0.1,0.5,0.1,0.8,0.2c0.4,0.1,0.7,0.2,0.9,0.4c0.2,0.1,0.3,0.2,0.3,0.4
			c0.1,0.2,0.1,0.3,0,0.5c0,0.2-0.1,0.4-0.3,0.6c0.3,0,0.7-0.1,1-0.2c0.5-0.1,0.9-0.2,1.1-0.1V50c-0.2,0.1-0.4,0.2-0.6,0.4
			s-0.6,0.5-1.4,0.9c0.3,0.1,0.6,0.2,0.8,0.2c0.3,0,0.6-0.1,0.9-0.3c0,0,0.1-0.1,0.2-0.1c0.4-0.2,1-0.7,1.5-0.3v0.1
			c-0.5,0-0.7,0.3-1,0.7c-0.2,0.3-0.5,0.6-0.9,0.8c0.8,0.1,1.5,0,2-0.3s0.9-0.8,1.2-1.3c0.3-0.5,0.6-0.7,0.8-0.9
			c0.1-0.1,0.2-0.2,0.2-0.2c-0.3-0.1-0.7-0.1-1-0.1s-0.7,0-1-0.1c-0.4-0.1-0.7-0.2-1-0.3s-0.6-0.3-0.9-0.4c-0.5-0.3-0.9-0.7-1.1-1
			c-0.3-0.3-0.5-0.7-0.6-0.9c-0.1-0.1-0.1-0.2-0.1-0.3c-0.3-0.7-0.5-1.3-1.5-1.2c0.2,0.2,0.3,0.5,0.4,0.7s0.2,0.5,0.2,0.7
			c0,0-0.1,0.1-0.1,0c-0.2-0.5-0.6-0.9-0.9-1.1c-0.2-0.1-0.3-0.2-0.5-0.2s-0.3,0-0.5,0.1s-0.3,0.2-0.5,0.5c0.1,0,0.2,0.1,0.3,0.1
			l0.1,0.1c0.2,0.1,0.3,0.2,0.5,0.3c0.1,0.1,0.2,0.3,0.3,0.4v0.1c-0.2,0-0.3-0.1-0.5-0.2c-0.2-0.2-0.5-0.3-1-0.2
			C23.6,47.9,24,48,25.1,48.1z"/>
		<path id="icon-badge-l2" class="st2" d="M37.7,63.8c0.2-0.6,0.5-1.3,0.9-1.9c-0.3-0.1-0.6-0.1-1,0.1c-0.3,0.2-0.7,0.5-1.2,0.9
			h-0.1c0.2-0.5,0.4-0.9,0.6-1.2c0.2-0.3,0.5-0.4,0.8-0.6c-0.4,0-0.8,0-1.2,0.1c-0.5,0.1-1.1,0.3-1.6,0.7h-0.1
			c0-0.3,0.2-0.6,0.5-0.8c0.2-0.2,0.6-0.3,0.8-0.5c0.2-0.1,0.4-0.2,0.5-0.3c0.1-0.1,0.2-0.1,0.3-0.2c-0.3,0-0.6,0-1,0.1
			c-0.3,0-0.6,0.1-0.9,0.1c-0.2,0-0.3,0-0.5,0c-0.3,0-0.6,0-0.9,0.1c-0.4,0.1-0.8,0.3-1.1,0.6c-0.2,0.3-0.3,0.6-0.3,1.1
			c0,0.4,0.2,0.8,0.4,1.1c0.2,0.4,0.5,0.8,0.5,1.4c0,0.6-0.4,0.9-0.8,1.1c-0.4,0.2-1,0.2-1.4,0.2c-0.3,0-0.5,0-0.8,0
			c-0.2,0-0.4-0.1-0.6-0.2s-0.3-0.2-0.5-0.2c-0.2-0.1-0.5-0.3-0.8-0.3s-0.6,0-0.9,0.2c-0.2,0.2-0.4,0.4-0.5,0.6c0.1,0,0.2,0,0.3,0
			s0.1,0,0.2,0c0.4-0.1,0.7-0.1,0.9,0c0.2,0.1,0.3,0.2,0.3,0.4v0.1c-0.2,0-0.3,0-0.5,0c-0.4,0-0.7,0-0.9,0.1
			c-0.2,0.1-0.4,0.2-0.5,0.4c-0.1,0.2-0.2,0.4-0.2,0.6c0,0.1,0,0.2,0,0.3s0.1,0.2,0.1,0.3c0.2-0.4,0.5-0.6,0.8-0.7
			c0.3-0.2,0.7-0.2,1.1-0.1c0,0,0,0,0,0.1c-0.2,0.1-0.6,0.4-0.8,0.7c-0.2,0.2-0.3,0.5-0.4,0.7c0.3-0.1,0.6,0,0.9,0
			c0.3,0.1,0.6,0.1,0.8-0.1c0.1-0.1,0.2-0.2,0.2-0.3c0.2-0.2,0.4-0.4,0.6-0.6c0.1-0.1,0.2-0.2,0.3-0.2s0.2-0.1,0.3-0.1
			c0.8,0,1.5,0,2,0c0.4,0.1,0.8,0.2,0.9,0.3c0-0.2-0.1-0.3-0.2-0.4c-0.2-0.2-0.4-0.3-0.7-0.5v-0.1c0.7-0.3,1.3-0.1,2,0.1
			c0.8,0.3,1.6,0.5,2.3-0.1c-0.3,0-0.5-0.2-0.7-0.4c-0.3-0.2-0.7-0.5-1.3-0.5c0,0,0,0,0-0.1c0.1-0.2,0.3-0.4,0.5-0.5
			c0.2-0.1,0.5-0.2,0.8-0.2s0.7,0.1,0.9,0.2c0.4,0.1,0.7,0.2,1.1,0.2C37.6,65.2,37.6,64.5,37.7,63.8z"/>
		<path id="icon-badge-l1" class="st2" d="M30.7,46.5c0.3,0.2,0.7,0.3,1.1,0.3s0.8-0.2,1.3-0.4c0.7-0.3,1.5-0.7,2.5-0.6
			c-1.1-0.3-2,0-2.8,0.2c-0.4,0.1-0.7,0.2-1,0.2c-0.4,0-0.8,0-1-0.1c-0.3-0.1-0.5-0.2-0.6-0.3C30.2,46.1,30.4,46.3,30.7,46.5z"/>
	</g>
</g>
</svg>
