<?xml version="1.0" encoding="utf-8"?>
<!-- Generator: Adobe Illustrator 16.0.0, SVG Export Plug-In . SVG Version: 6.00 Build 0)  -->
<!DOCTYPE svg PUBLIC "-//W3C//DTD SVG 1.1//EN" "http://www.w3.org/Graphics/SVG/1.1/DTD/svg11.dtd">
<svg version="1.1" id="emblema-scp" xmlns="http://www.w3.org/2000/svg" xmlns:xlink="http://www.w3.org/1999/xlink" x="0px"
	 y="0px" width="75px" height="99px" viewBox="0 0 75 99" enable-background="new 0 0 75 99" xml:space="preserve">
<path id="icon-badge-back" fill="#FFFFFF" d="M37.5,99c11.5-3.9,21-10.4,27.6-18.9C71.4,71.9,75,61.8,75,50.1
	c0-5.6-0.3-10.5-1.2-15.1c-0.8-4.3-1.899-8.3-3.6-12.3c-4.4-0.2-7.4-0.6-9.8-1.2c-2.602-0.7-4.9-1.9-7.301-3.1
	c-3.801-1.9-7.5-3.8-15.601-3.8c-8.1,0-11.8,1.9-15.6,3.8c-2.4,1.2-4.7,2.4-7.3,3.1c-2.4,0.7-5.4,1.1-9.8,1.2
	C3.2,26.8,2,30.7,1.2,35C0.3,39.6,0,44.5,0,50.1c0,11.7,3.6,21.9,9.9,30C16.5,88.6,26,95,37.5,99L37.5,99z"/>
<g>
	<path id="icon-badge-v9" fill="#008863" d="M17.8,30.7c0.2-0.2,0.3-0.4,0.3-0.6c0-0.2,0-0.3,0-0.5c0-0.1-0.1-0.3-0.2-0.4
		c-0.1-0.1-0.3-0.2-0.5-0.2c-0.2,0-0.4,0-0.5,0.1c-0.2,0.1-0.4,0.2-0.6,0.3c-0.2,0.1-0.4,0.3-0.7,0.5l-0.4,0.3l1.3,1.6l0.6-0.5
		C17.4,31.1,17.7,30.9,17.8,30.7z"/>
	<path id="icon-badge-v8" fill="#008863" d="M22.7,79.7c-0.2-0.2-0.3-0.3-0.5-0.4c-0.2-0.1-0.4-0.2-0.6-0.2c-0.2-0.1-0.4-0.1-0.6,0
		c-0.2,0-0.4,0.102-0.6,0.301C20.2,79.6,20,79.8,19.9,80c-0.2,0.3-0.2,0.5-0.3,0.8c0,0.3,0,0.5,0,0.7c0.1,0.2,0.2,0.4,0.3,0.5
		c0.2,0.2,0.3,0.3,0.5,0.4c0.2,0.1,0.4,0.199,0.6,0.199s0.4,0,0.6,0c0.2-0.101,0.4-0.199,0.6-0.301c0.2-0.199,0.3-0.3,0.5-0.6
		c0.2-0.301,0.2-0.602,0.3-0.801c0-0.199,0-0.5,0-0.699C22.9,80,22.8,79.9,22.7,79.7z"/>
	<path id="icon-badge-v7" fill="#008863" d="M16.8,76.1c-0.1-0.1-0.3-0.3-0.5-0.5L16,75.3l-1.1,1.2l0.5,0.5c0.2,0.2,0.4,0.3,0.6,0.5
		c0.2,0.1,0.3,0.2,0.5,0.2c0.1,0,0.3,0,0.4,0s0.2-0.101,0.3-0.2c0-0.3,0-0.5,0-0.6c0-0.102,0-0.301-0.1-0.4
		C17,76.3,16.9,76.2,16.8,76.1z"/>
	<path id="icon-badge-v6" fill="#008863" d="M33.3,24.9c0.3,0,0.6-0.1,0.8-0.1c0.2,0,0.4-0.1,0.6-0.2c0.1-0.1,0.2-0.2,0.3-0.3
		c0.1-0.1,0.1-0.3,0.1-0.5c0-0.2-0.1-0.3-0.2-0.4s-0.2-0.2-0.5-0.2c-0.2,0-0.3-0.1-0.5,0c-0.2,0-0.4,0-0.7,0l-0.9,0.1l0.2,1.8
		L33.3,24.9z"/>
	<path id="icon-badge-v5" fill="#008863" d="M23.3,28.8c0.2,0.2,0.4,0.4,0.7,0.5c0.2,0.1,0.5,0.1,0.8,0.1c0.3,0,0.6-0.1,0.8-0.2
		c0.3-0.1,0.5-0.3,0.7-0.5c0.2-0.2,0.4-0.4,0.5-0.6c0.1-0.3,0.2-0.6,0.2-0.9c0-0.3-0.1-0.6-0.2-1c-0.2-0.4-0.3-0.7-0.6-0.9
		c-0.2-0.2-0.5-0.4-0.7-0.5c-0.2-0.1-0.5-0.1-0.8-0.1c-0.3,0-0.6,0.1-0.8,0.2c-0.2,0.1-0.5,0.3-0.7,0.4c-0.2,0.2-0.3,0.4-0.5,0.6
		c-0.1,0.2-0.2,0.5-0.2,0.8c0,0.3,0.1,0.7,0.2,1C22.9,28.3,23.1,28.6,23.3,28.8z"/>
	<path id="icon-badge-v4" fill="#008863" d="M28.9,81.9c-0.1-0.102-0.2-0.102-0.4-0.2C28.3,81.6,28.2,81.6,28,81.5l-0.7-0.2
		l-0.5,1.4l0.6,0.2c0.2,0.1,0.5,0.199,0.7,0.199c0.2,0,0.3,0,0.5,0c0.2,0,0.2-0.101,0.3-0.199c0.1-0.102,0.2-0.2,0.2-0.301
		s0-0.199,0-0.399C29.1,82.1,29,82,28.9,81.9z"/>
	<polygon id="icon-badge-v3" fill="#008863" points="56.3,79.7 54.6,78.4 54.9,80.5 	"/>
	<path id="icon-badge-v2" fill="#008863" d="M73.5,53.8c0.1-1.1,0.1-2.3,0.1-3.399c0-0.5,0-1,0-1.5H58c-0.1-1.1-0.4-2.2-0.6-3.3
		C57.3,45,57.2,44.5,57.1,43.9h16.4c-0.5-7.6-2-14-4.6-20.4C60.1,23.3,57.1,21.8,53.6,20c-4.1-2-7.6-4.2-16.2-4.2
		c-8.7,0-12.2,2.2-16.2,4.2c-3.6,1.8-6.5,3.3-15.3,3.5c-2.7,6.4-4.1,12.8-4.6,20.4h16.5c-0.1,0.6-0.2,1.1-0.3,1.7
		c-0.2,1.1-0.3,2.2-0.4,3.3H1.2c0,0.5,0,1,0,1.5c0,1.1,0,2.3,0.1,3.398H17c0,1.7,0.2,3.4,0.5,5H1.9c0.3,1.7,0.6,3.301,1.1,4.9h16
		c0.7,1.8,1.6,3.398,2.7,5h-17c5.5,13.699,17.3,23.699,33,29c15.6-5.301,27.5-15.301,33-29h-17c1.1-1.5,2-3.2,2.7-5h16
		c0.398-1.602,0.8-3.301,1.1-4.9H57.9c0.3-1.6,0.5-3.199,0.5-5L73.5,53.8L73.5,53.8z M61.6,31.4c1,0.2,1.9,1,2.801,2.1
		c0.301,0.4,0.601,0.9,0.899,1.3c0.2,0.4,0.4,1.2,0.601,1.9l-1.301,1c-0.1-0.8-0.3-1.8-0.6-2.4c-0.1-0.3-0.3-0.5-0.5-0.8
		c-0.4-0.5-1-1-1.6-1.2c-0.301-0.1-0.602-0.1-0.9,0c-0.3,0.1-0.6,0.2-0.9,0.4c-0.6,0.4-0.898,1-0.898,1.6c0,0.9,0.898,2.3,1.5,3
		l1-0.7l-0.7-1l1-0.7l1.8,2.8l-2.4,1.8c-0.301-0.2-1-0.9-1.5-1.3c-0.5-0.4-0.9-0.9-1.2-1.4c-0.9-1.1-1.3-2.2-1.3-3.2
		s0.5-1.9,1.398-2.5C59.7,31.3,60.6,31.1,61.6,31.4z M53.5,25.2l1.8,5.6l2.3-3.5l1.7,1l-3.7,5.8l-1.5-1L52.4,27.6l-1.7,3.7L49,30.6
		l2.8-6.2L53.5,25.2z M49.1,23.4L47.2,29.9l-1.9-0.5l1.9-6.5L49.1,23.4z M38.1,21.4l7.301,0.8l-0.199,1.4l-2.7-0.3L41.9,28.6l-2-0.2
		l0.601-5.3l-2.7-0.3L38.1,21.4z M33.9,21.8c0.5,0,0.9-0.1,1.3,0c0.4,0,0.7,0.1,1,0.2c0.3,0.1,0.6,0.3,0.8,0.5s0.3,0.5,0.3,0.9
		c0,0.5-0.1,0.9-0.3,1.2c-0.2,0.3-0.6,0.7-1.1,0.9c1.2,0.7,1.8,1.7,2.4,2.8L36,28.4c-0.4-0.8-1.2-1.6-2.1-2.3l-1.1,0.1l0.2,2.5
		l-2,0.2l-0.6-6.8L33.9,21.8z M20.8,26c0.5-0.9,1.3-1.6,2.6-2.1c1.2-0.5,2.4-0.7,3.3-0.4c1,0.3,1.7,0.9,2.1,1.9
		c0.4,1,0.4,1.9-0.1,2.8c-0.5,0.9-1.3,1.6-2.6,2.1c-1.3,0.5-2.4,0.7-3.3,0.4c-1-0.3-1.6-0.9-2.1-1.9S20.3,26.9,20.8,26z M14.5,38.9
		c-0.4,0.6-0.8,1-1.2,1.4c-0.4,0.4-0.5,0.5-0.9,0.8L11,40.2c0.5-0.3,0.9-0.5,1.4-0.9c0.5-0.3,0.8-0.7,1.1-1.1
		c0.1-0.1,0.2-0.2,0.3-0.4c0.1-0.2,0.2-0.3,0.2-0.5c0.1-0.2,0.1-0.3,0.1-0.4s-0.1-0.2-0.2-0.3s-0.3-0.1-0.5,0
		c-0.2,0.1-0.4,0.2-0.6,0.4c-0.2,0.2-0.5,0.5-0.7,0.7c-0.2,0.2-0.5,0.5-0.7,0.7c-0.6,0.5-1.1,0.7-1.5,0.8c-0.4,0.1-0.9-0.1-1.2-0.3
		c-0.5-0.4-0.7-1-0.7-1.7c0.1-0.8,0.5-1.6,1.1-2.5c0.3-0.4,0.7-0.9,1.1-1.2c0.3-0.3,0.6-0.6,0.9-0.8l1,1c-0.7,0.4-1.5,1.1-2,1.8
		c-0.1,0.1-0.2,0.3-0.3,0.4c-0.1,0.2-0.2,0.3-0.2,0.5c-0.1,0.2-0.1,0.3-0.1,0.4c0,0.1,0.1,0.2,0.2,0.3c0.1,0.1,0.3,0.1,0.5,0
		c0.2-0.1,0.4-0.3,0.8-0.6c0.2-0.2,0.4-0.4,0.6-0.6c0.2-0.2,0.4-0.4,0.7-0.6c0.5-0.4,1-0.7,1.4-0.7c0.4,0,0.8,0,1.2,0.3
		c0.5,0.4,0.8,1,0.7,1.8C15.6,37,15.2,37.9,14.5,38.9z M17.2,35.8l-4.3-5.2l2.7-2.3c0.4-0.3,0.8-0.6,1.1-0.8c0.3-0.2,0.7-0.3,1-0.4
		c0.4-0.1,0.7-0.1,1,0c0.3,0.1,0.6,0.3,0.8,0.6c0.2,0.2,0.3,0.5,0.4,0.8s0.1,0.6,0,0.9c-0.1,0.4-0.2,0.8-0.5,1.2
		c-0.2,0.4-0.6,0.7-1,1.1l-1.1,0.9l1.4,1.7L17.2,35.8z M17,79c-0.3,0-0.7-0.1-1-0.2c-0.3-0.1-0.7-0.399-1-0.7L14.2,77.2L13,78.5
		l-1.2-1.1l3.7-3.9l2.1,1.9c0.3,0.3,0.5,0.6,0.7,0.8c0.3,0.399,0.5,1.1,0.4,1.6c0,0.3-0.2,0.5-0.4,0.7c-0.2,0.2-0.4,0.3-0.6,0.4
		C17.5,78.9,17.3,79,17,79z M22.4,83.9C21.6,84,20.8,83.8,19.8,83.3c-0.9-0.5-1.5-1.2-1.8-1.899s-0.2-1.5,0.2-2.199
		c0.4-0.801,1-1.2,1.8-1.301s1.6,0.101,2.5,0.601s1.5,1.2,1.8,1.899c0.3,0.699,0.2,1.5-0.2,2.301C23.8,83.3,23.2,83.8,22.4,83.9z
		 M30.8,83c-0.1,0.4-0.3,0.7-0.6,0.8c-0.3,0.2-0.7,0.3-1.1,0.3c0.5,0.7,1,1.7,1.2,2.801L28.4,86.3c-0.1-0.8-0.5-1.6-1-2.399
		L26.6,83.6L26,85.5L24.4,85l1.7-5.1l2.7,0.898c0.4,0.102,0.7,0.2,0.9,0.4c0.3,0.1,0.5,0.3,0.7,0.5c0.2,0.199,0.3,0.398,0.4,0.6
		C30.9,82.5,30.9,82.7,30.8,83z M37.1,83l-2.2-0.2l-0.4,4.3L33.1,87l0.4-4.3l-2.2-0.2l0.1-1.1l5.8,0.5L37.1,83z M43.6,86.4
		C43.1,86.8,42.4,87.1,41.5,87.1c-1,0.102-1.7,0-2.3-0.3c-0.5-0.3-0.8-0.8-0.9-1.5L38,81.8l1.6-0.1L39.9,85
		c0,0.4,0.199,0.7,0.398,0.8c0.2,0.2,0.602,0.2,1,0.2c0.4,0,0.801-0.2,1-0.3c0.2-0.2,0.301-0.5,0.2-0.9L42.2,81.4l1.7-0.2l0.3,3.5
		C44.3,85.4,44.1,86,43.6,86.4z M51.3,84.7C50.9,84.9,50.4,85.1,49.9,85.3c-1.102,0.3-2,0.3-2.801,0.101
		c-0.801-0.301-1.301-0.899-1.5-1.699C45.4,82.9,45.5,82.1,45.9,81.5c0.5-0.7,1.3-1.2,2.398-1.5c0.4-0.1,0.801-0.2,1.2-0.3
		c0.399-0.101,0.899-0.101,1.399,0l0.399,1.2c-0.5-0.102-1.2-0.2-1.7-0.2c-0.199,0-0.5,0.1-0.699,0.1C48.6,80.9,48.3,81,48.1,81.2
		c-0.398,0.3-0.699,0.7-0.8,1.2c0,0.199,0,0.5,0.101,0.8c0.199,0.6,0.5,1,1,1.1c0.699,0.3,1.801,0,2.5-0.3L50.6,83L49.7,83.3l-0.3-1
		l2.398-0.7l0.801,2.5C52.2,84.2,51.8,84.4,51.3,84.7z M58.1,74.1l2.9,3.2l2.3-2.1L64,76l-3.4,3.2l-3.699-4L58.1,74.1z M54.8,76.7
		l4.8,3.399L58.1,81l-1-0.7L55,81.5l0.1,1.2L53.6,83.6L53,77.7L54.8,76.7z M52,69c-3.4,4.4-8.3,7.7-14.3,9.7h-0.3
		c-6-2-10.9-5.3-14.3-9.7c-3.3-4.2-5.1-9.5-5.1-15.5c0-2.8,0.2-5.3,0.6-7.6c0.4-2.3,1.1-4.5,2-6.7l0.1-0.3c1.8-0.1,3.6-0.1,5.3-0.6
		c1.2-0.3,2.3-0.9,3.4-1.4c2-1,3.9-2,8.2-2s6.2,1,8.2,2c1.101,0.6,2.2,1.1,3.4,1.4c1.7,0.5,3.5,0.5,5.3,0.6l0.1,0.3
		c0.9,2.2,1.5,4.3,2,6.7c0.4,2.3,0.602,4.8,0.602,7.6C57.1,59.6,55.2,64.8,52,69z"/>
	<path id="icon-badge-v1" fill="#008863" d="M53.6,39.9c-2.199-0.1-3.699-0.3-4.8-0.6c-1.3-0.3-2.399-0.9-3.6-1.5
		c-1.9-1-3.7-1.9-7.7-1.9s-5.9,0.9-7.7,1.9c-1.2,0.6-2.3,1.2-3.6,1.5c-1.2,0.3-2.7,0.5-4.8,0.6c-0.8,2-1.4,4-1.8,6.1
		c-0.4,2.3-0.6,4.7-0.6,7.5c0,5.8,1.8,10.8,4.9,14.9c3.2,4.199,7.9,7.398,13.6,9.3c5.7-2,10.4-5.101,13.6-9.3
		C54.2,64.4,56,59.3,56,53.5c0-2.8-0.2-5.2-0.6-7.5C54.9,43.8,54.4,41.9,53.6,39.9z"/>
</g>
<g>
	<path id="icon-badge-s" fill="#008863" d="M14.1,15.1c0.7,0,3.3,0.1,5.4-0.5c1.6-0.4,3.1-1.4,2.7-2.3c-0.3-0.8-1.8-0.8-3.6-0.4
		c-2.2,0.5-4.5,0.3-5.2,0c-0.9-0.4-1.6-1.1-1.9-2c-0.3-1,0.1-2.3,1-3.4c0.9-1,2.3-1.9,4.2-2.5c1.8-0.7,3.5-1,5.4-1.2l1.2,2.5
		c-1,0-2.2,0-3.5,0.3c-1.3,0.2-2.7,0.7-3.5,1.4c-0.7,0.7-0.4,1.7,0.7,1.6c0.6-0.1,1.4-0.1,2-0.2c1.7-0.2,3.5-0.4,5.2,0.1
		c3.4,1,2.5,4.2,0.5,6.1c-0.8,0.7-1.7,1.3-2.5,1.6c-2.1,1-4.5,1.3-6.7,1.5L14.1,15.1L14.1,15.1z"/>
	<path id="icon-badge-c" fill="#008863" d="M44.9,1.2c-0.9-0.4-1.9-0.7-3-0.9C40.9,0.1,39.8,0,38.6,0c-1.398,0-2.8,0.2-4.1,0.5
		c-2.1,0.6-4.5,1.7-5.7,3.6C28.3,4.9,28,5.8,28,6.7c0,1.1,0.3,2.1,1,3c1.4,1.9,3.9,2.9,6.1,3.4c1.1,0.2,2.2,0.3,3.4,0.3
		c1.1,0,2.2-0.1,3.2-0.3c1-0.2,2.3-0.7,3.2-1.1V8.9c-1.9,1-4,1.6-6.2,1.6c-2.4,0-6-0.8-6-3.9c0-3,3.7-3.8,6-3.8c2,0,4.399,0.5,6,1.5
		V1.2H44.9z"/>
	<path id="icon-badge-p" fill="#008863" d="M52,15.5l1.5-4.7l3.4,1.1c1.1,0.3,2.898,0.6,4.5,0.1c2.199-0.8,2.898-3.2,1.5-5.1
		c-0.602-0.8-1.4-1.4-2.2-1.8c-0.9-0.4-2.5-0.9-4.101-1.4L51.7,2.1l-3.8,12.1L52,15.5L52,15.5z M59.5,8.7c-0.3,1-2.3,0.8-3,0.6
		l-2.3-0.7L55.1,5.8L57.7,6.6C58.6,6.8,59.9,7.6,59.5,8.7L59.5,8.7z"/>
</g>
<g id="icon-badge-lion">
	<path id="icon-badge-l4" fill="#F2BE4B" d="M49.5,46.9c0.1,0.1,0.3,0.2,0.6,0.2c0.4,0,0.9-0.1,1.102-0.2s0.398-0.2,0.6-0.2
		c-0.1,0-0.398,0-0.6,0.1c-0.4,0.1-1.301,0-1.301-0.5l0,0c0,0,0,0,0.101,0c0.3,0.1,0.601,0.2,1,0.2c0.3,0,0.5-0.1,0.7-0.2
		c0.199-0.1,0.3-0.2,0.6-0.2c-0.3-0.2-0.6,0-1,0c-0.3,0-0.5-0.1-0.699-0.2c-0.101-0.1-0.199-0.1-0.399-0.2c-0.3-0.1-0.7-0.2-1-0.2
		c-0.2,0-0.5,0.1-0.7,0.2c-0.2,0.1-0.3,0.3-0.4,0.5l0,0C47.4,46.1,46.9,46.3,46.4,46.6c-0.5,0.3-0.9,0.8-1.2,1.4
		c-0.4,0.8-0.4,1.6-0.3,2.5c0.1,0.8,0.5,1.6,0.898,2.4C46.6,54.4,47.1,55.4,47.4,56.1c0.3,0.699,0.398,1.199,0.398,1.801
		c0,0.398-0.1,0.8-0.3,1.1s-0.5,0.6-0.899,0.7c-0.399,0.2-0.801,0.2-1.199,0.1c-0.5-0.1-1-0.399-1.5-0.899
		C43.6,58.6,43.1,57.8,42.7,56.9C42.3,56.2,42,55.4,42,55c-0.1-0.7-0.1-1.7-0.1-2.7c0-0.1,0-0.2,0-0.399
		c-0.2,0.199-0.301,0.301-0.4,0.5s-0.2,0.5-0.2,0.801c0,0,0,0-0.1,0C41,53,40.8,52.6,40.8,52.3c-0.1-0.399,0-0.8,0.101-1.3
		c0.199-0.6,0.301-1.1,0.301-1.6s-0.102-1-0.5-1.3V48c0.199,0,0.5,0.2,0.699,0.4c0.199,0.2,0.399,0.4,0.5,0.7
		c0.101,0.2,0.101,0.4,0.199,0.7c0.2,0.8,0.4,1.601,1.301,1.7c-0.5-0.5-0.5-1.4-0.5-2.2c0-0.4,0-0.8,0-1.2
		C42.8,47.6,42.6,47.3,42.4,47c-0.301-0.3-0.7-0.4-1-0.4c0,0,0,0,0-0.1c0.1-0.1,0.199-0.2,0.199-0.3C41.7,46.1,41.9,46,42.1,46
		c0.2,0,0.301,0,0.5,0.1c0.102,0.1,0.2,0.1,0.2,0.2c0.2,0.2,0.3,0.4,0.4,0.7c0.2,0.5,0.5,1,1,1.1c-0.2-0.3-0.2-0.6-0.2-1
		c0-0.5-0.1-1-0.5-1.7c-0.2-0.3-0.4-0.5-0.7-0.7c-0.3-0.2-0.6-0.2-1-0.2c0,0-0.1,0,0-0.1c0.101-0.2,0.3-0.4,0.5-0.5
		s0.4-0.1,0.601-0.1c0.5,0.1,0.699,0.4,1,0.7c0.199,0.2,0.301,0.5,0.601,0.6c-0.101-0.2-0.2-0.4-0.2-0.6c-0.1-0.2-0.1-0.5-0.1-0.8
		c0-0.3-0.2-0.6-0.4-0.8c-0.3-0.2-0.6-0.4-1-0.4c-0.199,0-0.3,0-0.5,0.1c-0.199,0-0.398,0.1-0.6,0.2c0,0,0,0-0.102,0
		c0-0.2,0-0.4,0.102-0.6c0.1-0.1,0.199-0.2,0.3-0.3s0.3-0.1,0.5-0.1c0.399,0,0.899,0.1,1.3,0.3c0-0.2-0.1-0.4-0.199-0.5
		c-0.199-0.2-0.301-0.3-0.601-0.3c-0.399-0.1-0.8-0.1-1.2-0.1c-0.398,0-0.8,0-1.1-0.1V41c0.398-0.1,0.8-0.4,1.3-0.8l0,0
		c-0.899,0.1-1.5-0.1-2.101-0.2c-0.699-0.2-1.399-0.4-2.399,0.3l0,0c-0.3-0.1-0.6-0.1-0.9-0.2c-0.3,0-0.5,0-0.7,0
		c-0.2,0-0.4,0.1-0.4,0.2c0,0.1-0.1,0.1-0.1,0.2s0,0.1,0.1,0.2c0.1,0.1,0.2,0.2,0.4,0.3c0.2,0,0.5,0.1,0.8,0.1c0.3,0,0.7,0,1.2-0.1
		c0,0,0,0,0,0.1c-0.1,0.2-0.5,0.3-0.8,0.5c-0.3,0.1-0.6,0.2-0.8,0.3c0,0,0,0-0.1,0c-0.2-0.3-0.5-0.5-0.9-0.5c-0.4,0-1,0.1-1.8,0.3
		L33.3,42c-0.1,0.1-0.1,0.2,0,0.2c0.1,0.1,0.2,0.1,0.5,0.1c0.1,0,0.1,0,0.2,0v0.1c-0.2,0-0.3,0.1-0.4,0.3c-0.1,0.1-0.1,0.2-0.1,0.3
		s0,0.2,0.1,0.3c0.1,0.1,0.2,0.2,0.4,0.3c0.7-0.6,1.5-0.8,2.2-0.7c0.2,0,0.5,0.1,0.6,0.2c0.2,0.1,0.3,0.2,0.5,0.3
		c0.2,0.2,0.3,0.5,0.2,0.7c-0.1,0.4-0.2,0.7-0.7,0.8c-0.4,0.1-1.1,0.1-2.2-0.1c-0.1,0.2,0,0.5,0.1,0.7c0.2,0.3,0.5,0.5,0.9,0.7
		c0.3-0.2,0.6-0.4,0.8-0.6c0.3-0.1,0.5-0.2,0.7-0.2c0.1,0,0.2,0,0.2,0.1c0.1,0,0.1,0.1,0.1,0.2c0,0.1,0,0.2,0,0.2
		c0,0.1-0.1,0.3-0.2,0.4c-0.3,0.3-0.9,0.5-1.4,0.7c-0.2,0.1-0.3,0.1-0.5,0.2c-0.4,0.2-0.8,0.3-1.1,0.5c-0.3,0.2-0.4,0.3-0.5,0.6
		c0.2,0,0.5,0,0.7,0c0.5,0,0.9,0,1.6-0.2l0,0c-0.1,0.5-0.9,0.8-1.8,1.1c-0.4,0.1-0.8,0.3-1.2,0.5c-0.3,0.2-0.7,0.399-0.9,0.7
		c-0.2,0.3-0.4,0.699-0.5,1.1c0.2,0,0.4,0,0.7-0.1C32.6,51.3,33,51.1,33.4,50.8c0.2-0.1,0.4-0.2,0.6-0.2c0.4-0.1,0.8-0.199,1.4-0.7
		h0.1c-0.1,0.3-0.2,0.6-0.3,0.8c-0.2,0.2-0.4,0.5-0.6,0.7c-0.2,0.199-0.7,0.3-1.1,0.398c-0.1,0-0.2,0-0.3,0.102
		c-0.4,0.1-0.7,0.199-1,0.199c-0.3,0-0.5-0.101-0.6-0.199c-0.5,0.199-1,0.5-1.6,0.898c-0.2,0.102-0.3,0.2-0.5,0.301
		c-0.4,0.301-0.8,0.5-1.2,0.601C27.9,53.9,27.5,54,27,54c-0.6,0-1.1-0.2-1.5-0.5c-0.4-0.2-0.8-0.4-1.2-0.5c-0.2,0-0.3,0.1-0.4,0.2
		c-0.1,0.1-0.2,0.3-0.2,0.5c0.1,0,0.3,0,0.4,0h0.1c0.2,0,0.4,0,0.5,0.1c0.1,0.101,0.2,0.2,0.3,0.4v0.1c-0.3,0-1,0-1.4,0.2
		s-0.7,0.5-0.4,1.2c0-0.101,0.1-0.2,0.1-0.2c0-0.1,0.1-0.1,0.2-0.2c0.1,0,0.3-0.1,0.4-0.1c0.5-0.2,0.7-0.3,1.1,0.2v0.1
		c-0.1,0-0.2,0-0.2,0c-0.4,0.1-0.7,0.3-0.8,0.5c-0.2,0.2-0.2,0.5-0.2,0.8c0,0.101,0,0.101,0,0.2c0.2-0.2,0.4-0.2,0.5-0.2
		c0.1,0,0.2-0.1,0.2-0.1c0.1-0.101,0.2-0.101,0.2-0.2c0.3-0.2,0.5-0.4,1.4-0.6c0.2-0.102,0.3-0.102,0.5-0.2
		c0.4-0.101,0.7-0.3,1.1-0.3c0.3,0,0.7,0.1,1,0.199c0.3,0.101,0.7,0.199,1.1,0.301c-0.1-0.2-0.2-0.4-0.4-0.5
		C29.2,55.2,29,55.1,28.7,55c0,0,0,0,0-0.1c0.3-0.301,0.7-0.301,1-0.2c0.4,0.1,0.7,0.2,1.1,0.399c0.5,0.199,0.8,0.5,1.2,0.5
		s0.8,0,1.3-0.301c-0.5-0.1-0.8-0.398-1-0.6C32,54.4,31.6,54.1,31,54.2c0,0,0,0,0-0.101c0.1-0.199,0.3-0.301,0.5-0.399
		c0.2-0.101,0.4-0.101,0.7-0.101c0.3,0,0.7,0.199,1.2,0.5c0.7,0.399,1.4,0.801,2.2,0.801c0,0,0,0,0,0.1c-0.2,0.2-0.5,0.4-0.8,0.5
		c0.1,0.2,0.3,0.5,0.6,0.8c0.3,0.3,0.7,0.601,1,0.8c0.3,0.2,0.7,0.301,1.1,0.5c0.4,0.102,0.8,0.2,1.4,0.301
		c0.6,0.101,1.1,0.301,1.3,0.5c0.3,0.199,0.3,0.399,0.2,0.601c0.199,0.101,0.1,0.399,0,0.7C40.3,59.9,40.2,60.1,40,60.3
		c-0.1,0.2-0.3,0.4-0.4,0.7c-0.3,0.5-0.3,1.1-0.3,1.8V62.9c0,0.199,0.2,0.398,0.4,0.699s0.399,0.5,0.6,0.699L40.4,64.4
		c0.5,0.6,0.898,1,0.8,2.1c0.399-0.3,0.8-0.4,1.1-0.4c0.2,0,0.4,0,0.601,0.2l0,0c0.101,0.101,0.199,0.3,0.301,0.5
		c0.1,0.3,0,0.8-0.102,1.3C42.9,68.5,42.7,68.9,42.4,69.2C42.1,69.5,41.8,69.9,41.5,70.1c-0.3,0.102-0.7,0-1,0
		c-0.5-0.1-1-0.199-1.3,0.2C39.1,70.4,39.1,70.5,39,70.6c0,0.102,0,0.301,0,0.5c0.2,0,0.4,0,0.7-0.1c0.5-0.1,1-0.2,1.2,0.2l0,0
		c-0.102,0.1-0.2,0.2-0.301,0.3s-0.199,0.2-0.301,0.3c-0.1,0.2-0.199,0.5-0.3,0.9v0.1c0.101,0,0.3,0,0.399,0
		c0.399,0,0.801,0,1.101-0.3c0.101-0.1,0.2-0.2,0.3-0.3c0.2-0.2,0.4-0.5,0.602-0.5l0,0c0,0.2,0,0.3,0.1,0.399
		c0.1,0.301,0.1,0.5-0.1,0.899c0.398,0,0.8-0.101,1.1-0.3c0.2-0.2,0.4-0.4,0.4-0.602c0-0.199-0.102-0.398-0.102-0.6
		c-0.1-0.3-0.199-0.6-0.1-1c0.1-0.3,0.199-0.6,0.3-0.8s0.3-0.4,0.5-0.5c0.3-0.101,0.601-0.3,0.8-0.5c0.2-0.2,0.4-0.4,0.5-0.7
		c-0.1,0-0.3,0.1-0.398,0.1c-0.2,0-0.4,0-0.5,0.102c0,0,0,0-0.102,0c-0.1-0.102-0.1-0.301-0.1-0.4s0.1-0.3,0.199-0.5l0,0
		c0.101-0.1,0.301-0.3,0.5-0.398C45.6,66.8,45.7,66.7,45.8,66.6c0,0,0.101,0,0.2,0c0.2-0.1,0.7-0.199,1.4-0.8
		c0.199-0.2,0.398-0.5,0.398-0.7c0-0.199,0-0.5-0.199-0.699c-0.301,0.601-0.899,0.801-1.301,1C46,65.5,45.7,65.6,45.6,65.8h-0.1
		c-0.1-0.3,0-0.7,0.1-1c0.2-0.3,0.5-0.6,0.801-0.8c0.101,0,0.199-0.1,0.301-0.2c0.898-0.5,1.699-0.899,1.6-2
		c-0.3,0.3-0.699,0.4-0.898,0.5c-0.2,0-0.4,0-0.602,0c-0.199-0.1-0.3-0.2-0.398-0.3c-0.2-0.2-0.301-0.5-0.301-0.8V61.1
		C46.8,61.2,47.4,61.2,48,61c0.4-0.2,0.8-0.5,1-0.9c-0.2,0.102-0.3,0.2-0.5,0.301s-0.4,0-0.6-0.101c0,0,0,0,0-0.1
		c0.6-0.3,1-0.7,1.199-1.101c0.301-0.5,0.399-1,0.5-1.601c0-0.3,0-0.601-0.101-0.899c-0.101-0.301-0.2-0.699-0.399-1
		C48.9,55.3,48.8,55,48.6,54.7C48.4,54.4,48.2,54,48,53.7c-0.3-0.5-0.7-1.101-1-1.601s-0.6-1.101-0.7-1.601
		c-0.2-0.6-0.3-1.3-0.2-1.9c0.102-0.6,0.301-1.1,0.7-1.5c0.2-0.2,0.5-0.5,0.8-0.6c0.301-0.1,0.602-0.2,0.9-0.1l0,0
		c-0.1,0.3-0.1,0.6,0,0.8c0.1,0.4,0.5,0.7,0.9,0.7c0.699,0.1,1.199-0.1,1.8-0.3c0.3-0.1,0.5-0.2,0.8-0.3c-0.3-0.1-0.5,0-0.8,0
		c-0.2,0-0.4,0.1-0.601,0C50.4,47.2,50.2,47.1,50.2,46.9C49.4,47,49.4,47,49.5,46.9C49.4,46.9,49.5,46.9,49.5,46.9z M38.5,51.4
		c0.3-0.2,0.6-0.5,0.7-0.9c0.1-0.3,0.1-0.7,0-1.1c0,0,0.1-0.1,0.1,0c0.4,0.7,0.5,1.3,0.4,1.8c-0.2,0.5-0.5,0.899-1.101,1.2
		C38.3,52.6,38,52.6,37.7,52.6c-0.4,0.102-0.8,0.102-1.3,0.5h-0.1c0.2-0.6,0.8-0.898,1.4-1.3C37.9,51.7,38.2,51.6,38.5,51.4z
		 M33.7,52c0.2-0.2,0.6-0.5,1-0.6c0.2-0.102,0.4-0.2,0.7-0.301c0.8-0.301,1.4-0.601,1.8-1.601h0.1c0.2,0.601,0.2,1.101,0,1.5
		c-0.2,0.5-0.6,0.8-1.1,1s-0.9,0.2-1.2,0.3C34.6,52.4,34.2,52.4,33.7,52.6h-0.1C33.4,52.3,33.5,52.2,33.7,52z M34.3,53.8
		C34,53.6,33.8,53.4,33.5,53.4V53.3c0.8-0.399,1.4,0,2,0.4c0.2,0.2,0.5,0.3,0.8,0.399V54.2C35.3,54.6,34.8,54.2,34.3,53.8z
		 M35.1,55.7C35.1,55.7,35.1,55.6,35.1,55.7c0.3,0,0.6,0.1,0.8,0.2c0.3,0,0.6,0.1,0.9,0c0.4,0,0.8-0.102,1.2-0.2
		c0.4-0.101,0.8-0.2,1.1-0.4c0,0,0.102,0,0.102,0.101C39,55.7,38.7,56,38.4,56.1C38,56.3,37.6,56.4,37.2,56.4
		c-0.4,0-0.7-0.102-1.1-0.2C35.6,56.1,35.3,55.9,35.1,55.7z M38.6,57.4c-0.398,0-0.8,0-1.1-0.2c-0.3-0.101-0.6-0.3-0.8-0.5V56.6
		c0.6,0.102,1.1,0.2,1.8,0.102c0.7,0,1.3-0.102,2-0.301c0,0,0.1,0.101,0,0.101s-0.2,0.101-0.2,0.2C39.9,57,39.5,57.4,38.6,57.4z
		 M40.8,64.8C40.8,64.8,40.7,64.8,40.8,64.8c-0.3-0.5-0.5-0.899-0.7-1.2C39.9,63.2,39.6,62.9,39.6,62.4c0-0.301,0-0.7,0.2-1.102
		c0.101-0.398,0.3-0.699,0.601-1h0.101c-0.101,0.301-0.101,0.5-0.2,0.801c0,0.301,0,0.601,0,0.801c0,0.6,0.2,0.898,0.4,1.3
		C40.7,63.7,40.9,64.1,40.8,64.8z"/>
	<path id="icon-badge-l3" fill="#F2BE4B" d="M25.1,45.9c0.2,0.1,0.5,0.1,0.8,0.2c0.4,0.1,0.7,0.2,0.9,0.4c0.2,0.1,0.3,0.2,0.3,0.4
		c0.1,0.2,0.1,0.3,0,0.5c0,0.2-0.1,0.4-0.3,0.6c0.3,0,0.7-0.1,1-0.2c0.5-0.1,0.9-0.2,1.1-0.1v0.1c-0.2,0.1-0.4,0.2-0.6,0.4
		c-0.2,0.2-0.6,0.5-1.4,0.9c0.3,0.1,0.6,0.2,0.8,0.2c0.3,0,0.6-0.1,0.9-0.3c0,0,0.1-0.1,0.2-0.1c0.4-0.2,1-0.7,1.5-0.3v0.1
		c-0.5,0-0.7,0.3-1,0.7c-0.2,0.3-0.5,0.6-0.9,0.8c0.8,0.1,1.5,0,2-0.3c0.5-0.3,0.9-0.8,1.2-1.3c0.3-0.5,0.6-0.7,0.8-0.9
		c0.1-0.1,0.2-0.2,0.2-0.2c-0.3-0.1-0.7-0.1-1-0.1c-0.3,0-0.7,0-1-0.1c-0.4-0.1-0.7-0.2-1-0.3c-0.3-0.1-0.6-0.3-0.9-0.4
		c-0.5-0.3-0.9-0.7-1.1-1c-0.3-0.3-0.5-0.7-0.6-0.9c-0.1-0.1-0.1-0.2-0.1-0.3c-0.3-0.7-0.5-1.3-1.5-1.2c0.2,0.2,0.3,0.5,0.4,0.7
		c0.1,0.2,0.2,0.5,0.2,0.7c0,0-0.1,0.1-0.1,0c-0.2-0.5-0.6-0.9-0.9-1.1c-0.2-0.1-0.3-0.2-0.5-0.2s-0.3,0-0.5,0.1s-0.3,0.2-0.5,0.5
		c0.1,0,0.2,0.1,0.3,0.1l0.1,0.1c0.2,0.1,0.3,0.2,0.5,0.3c0.1,0.1,0.2,0.3,0.3,0.4v0.1c-0.2,0-0.3-0.1-0.5-0.2
		c-0.2-0.2-0.5-0.3-1-0.2C23.6,45.7,24,45.8,25.1,45.9z"/>
	<path id="icon-badge-l2" fill="#F2BE4B" d="M37.7,61.6c0.2-0.6,0.5-1.3,0.899-1.898c-0.301-0.102-0.601-0.102-1,0.1
		c-0.3,0.2-0.7,0.5-1.2,0.9h-0.1c0.2-0.5,0.4-0.9,0.6-1.2c0.2-0.3,0.5-0.399,0.8-0.601c-0.4,0-0.8,0-1.2,0.101
		c-0.5,0.101-1.1,0.3-1.6,0.7h-0.1c0-0.301,0.2-0.602,0.5-0.801c0.2-0.199,0.6-0.301,0.8-0.5c0.2-0.101,0.4-0.199,0.5-0.301
		c0.1-0.1,0.2-0.1,0.3-0.199c-0.3,0-0.6,0-1,0.101c-0.3,0-0.6,0.101-0.9,0.101c-0.2,0-0.3,0-0.5,0c-0.3,0-0.6,0-0.9,0.101
		c-0.4,0.1-0.8,0.3-1.1,0.6c-0.2,0.3-0.3,0.601-0.3,1.101c0,0.399,0.2,0.801,0.4,1.101c0.2,0.399,0.5,0.8,0.5,1.399
		c0,0.601-0.4,0.899-0.8,1.101c-0.4,0.2-1,0.2-1.4,0.2c-0.3,0-0.5,0-0.8,0c-0.2,0-0.4-0.102-0.6-0.2s-0.3-0.2-0.5-0.2
		c-0.2-0.1-0.5-0.3-0.8-0.3c-0.3,0-0.6,0-0.9,0.2c-0.2,0.199-0.4,0.398-0.5,0.6c0.1,0,0.2,0,0.3,0s0.1,0,0.2,0
		c0.4-0.1,0.7-0.1,0.9,0c0.2,0.102,0.3,0.2,0.3,0.4v0.1c-0.2,0-0.3,0-0.5,0c-0.4,0-0.7,0-0.9,0.102c-0.2,0.1-0.4,0.199-0.5,0.398
		c-0.1,0.2-0.2,0.4-0.2,0.602c0,0.1,0,0.199,0,0.3s0.1,0.2,0.1,0.3c0.2-0.4,0.5-0.6,0.8-0.699c0.3-0.201,0.7-0.201,1.1-0.101
		c0,0,0,0,0,0.101c-0.2,0.1-0.6,0.399-0.8,0.699c-0.2,0.2-0.3,0.5-0.4,0.7c0.3-0.101,0.6,0,0.9,0c0.3,0.101,0.6,0.101,0.8-0.101
		c0.1-0.101,0.2-0.199,0.2-0.301c0.2-0.199,0.4-0.398,0.6-0.6c0.1-0.102,0.2-0.2,0.3-0.2s0.2-0.101,0.3-0.101c0.8,0,1.5,0,2,0
		c0.4,0.101,0.8,0.199,0.9,0.301c0-0.2-0.1-0.301-0.2-0.4c-0.2-0.199-0.4-0.3-0.7-0.5v-0.1c0.7-0.301,1.3-0.102,2,0.1
		c0.8,0.301,1.6,0.5,2.3-0.1c-0.3,0-0.5-0.2-0.7-0.4c-0.3-0.199-0.7-0.5-1.3-0.5c0,0,0,0,0-0.1c0.1-0.2,0.3-0.4,0.5-0.5
		c0.2-0.102,0.5-0.2,0.8-0.2c0.3,0,0.7,0.101,0.9,0.2c0.4,0.1,0.7,0.199,1.1,0.199C37.6,63,37.6,62.3,37.7,61.6z"/>
	<path id="icon-badge-l1" fill="#F2BE4B" d="M30.7,44.3c0.3,0.2,0.7,0.3,1.1,0.3c0.4,0,0.8-0.2,1.3-0.4c0.7-0.3,1.5-0.7,2.5-0.6
		c-1.1-0.3-2,0-2.8,0.2c-0.4,0.1-0.7,0.2-1,0.2c-0.4,0-0.8,0-1-0.1c-0.3-0.1-0.5-0.2-0.6-0.3C30.2,43.9,30.4,44.1,30.7,44.3z"/>
</g>
</svg>
