<svg id="Layer_1" data-name="Layer 1" xmlns="http://www.w3.org/2000/svg" viewBox="0 0 92.9 137.88"><defs><style>.cls-1{fill:#fff;}.cls-2{fill:#008964;}.cls-3{fill:#f2be4b;}.cls-4,.cls-6{fill:none;}.cls-4{stroke:#008964;stroke-width:0.5px;}.cls-5{fill:#008a64;}.cls-6{stroke:#008a64;}</style></defs><title>scp-minde</title><g id="logo"><path id="icon-badge-back" class="cls-1" d="M46.45,123.35c14.24-4.83,26-12.88,34.19-23.41C88.44,89.79,92.9,77.28,92.9,62.78a96.64,96.64,0,0,0-1.49-18.7A71.52,71.52,0,0,0,87,28.84a61.28,61.28,0,0,1-12.13-1.48,49,49,0,0,1-9-3.84c-4.71-2.36-9.29-4.71-19.32-4.71s-14.62,2.35-19.33,4.71a48.9,48.9,0,0,1-9,3.84A46.92,46.92,0,0,1,5.94,28.84,82.53,82.53,0,0,0,1.49,44.08,96.64,96.64,0,0,0,0,62.78c0,14.5,4.46,27.13,12.26,37.16,8.18,10.53,20,18.46,34.19,23.41Z" transform="translate(0 0)"/><path id="icon-badge-v9" class="cls-2" d="M22.05,38.75a1,1,0,0,0,.37-.74v-.62a.89.89,0,0,0-.25-.49.91.91,0,0,0-.62-.25,1,1,0,0,0-.62.12l-.74.37c-.25.13-.5.38-.87.62l-.49.37,1.61,2,.74-.62A2.8,2.8,0,0,0,22.05,38.75Z" transform="translate(0 0)"/><path id="icon-badge-v8" class="cls-2" d="M28.12,99.45a2.27,2.27,0,0,0-.62-.5,1.83,1.83,0,0,0-.74-.24.77.77,0,0,0-.75,0,1.05,1.05,0,0,0-.74.37,2.94,2.94,0,0,0-.62.74,3.08,3.08,0,0,0-.37,1v.87a2.81,2.81,0,0,0,.37.62,2,2,0,0,0,.62.49A1.67,1.67,0,0,0,26,103h.75c.24-.13.49-.25.74-.37a3.8,3.8,0,0,0,.62-.75,4.62,4.62,0,0,0,.37-1v-.86C28.37,99.82,28.24,99.7,28.12,99.45Z" transform="translate(0 0)"/><path id="icon-badge-v7" class="cls-2" d="M20.81,95l-.62-.62L19.82,94l-1.36,1.48.62.62c.24.25.49.38.74.62s.37.25.62.25h.49c.13,0,.25-.12.38-.25V96a.73.73,0,0,0-.13-.5A1.73,1.73,0,0,0,20.81,95Z" transform="translate(0 0)"/><path id="icon-badge-v6" class="cls-2" d="M41.25,31.57c.37,0,.74-.12,1-.12A1.81,1.81,0,0,0,43,31.2l.37-.37a.91.91,0,0,0,.13-.62.67.67,0,0,0-.25-.5.74.74,0,0,0-.62-.25c-.25,0-.37-.12-.62,0h-.87L40,29.59l.25,2.23Z" transform="translate(0 0)"/><path id="icon-badge-v5" class="cls-2" d="M28.86,36.4a2.2,2.2,0,0,0,.87.62,2.49,2.49,0,0,0,1,.12,2.75,2.75,0,0,0,1.86-.86,3.73,3.73,0,0,0,.62-.75,3.69,3.69,0,0,0,.24-1.11,5.68,5.68,0,0,0-.24-1.24,2.47,2.47,0,0,0-.75-1.11,3.56,3.56,0,0,0-.86-.62,2.31,2.31,0,0,0-1-.13,2.41,2.41,0,0,0-1,.25c-.24.12-.62.37-.86.5s-.37.49-.62.74a2.26,2.26,0,0,0-.25,1A4.21,4.21,0,0,0,28.12,35,3.31,3.31,0,0,0,28.86,36.4Z" transform="translate(0 0)"/><path id="icon-badge-v4" class="cls-2" d="M35.8,102.17c-.13-.12-.25-.12-.5-.24s-.37-.13-.62-.25l-.86-.25-.62,1.73.74.25a2.21,2.21,0,0,0,.87.25h.62c.24,0,.24-.13.37-.25s.25-.25.25-.37v-.49C36.05,102.42,35.92,102.3,35.8,102.17Z" transform="translate(0 0)"/><polygon id="icon-badge-v3" class="cls-2" points="69.74 99.45 67.63 97.84 68 100.44 69.74 99.45"/><path id="icon-badge-v2" class="cls-2" d="M91,67.37c.13-1.37.13-2.85.13-4.21V61.3H71.84c-.12-1.36-.49-2.73-.74-4.09-.12-.74-.25-1.36-.37-2.11H91a78.53,78.53,0,0,0-5.7-25.26c-10.9-.25-14.61-2.11-19-4.34C61.31,23,57,20.3,46.33,20.3S31.21,23,26.26,25.5c-4.46,2.23-8,4.09-19,4.34A75.25,75.25,0,0,0,1.61,55.1H22.05c-.13.75-.25,1.37-.37,2.11-.25,1.36-.37,2.73-.5,4.09H1.49v1.86c0,1.36,0,2.84.12,4.2H21.06a34,34,0,0,0,.62,6.2H2.35a49.59,49.59,0,0,0,1.37,6.07H23.53a30.13,30.13,0,0,0,3.35,6.19H5.82c6.81,17,21.43,29.36,40.88,35.92C66,115.18,80.76,102.79,87.57,85.82h-21a27.28,27.28,0,0,0,3.34-6.19H89.68c.49-2,1-4.09,1.36-6.07H71.72a32.89,32.89,0,0,0,.62-6.2ZM76.3,39.62a6.61,6.61,0,0,1,3.47,2.6c.37.5.75,1.12,1.12,1.61a19.94,19.94,0,0,1,.74,2.36L80,47.42a10.34,10.34,0,0,0-.75-3,4.42,4.42,0,0,0-.61-1,4.7,4.7,0,0,0-2-1.49,1.76,1.76,0,0,0-1.11,0,4.77,4.77,0,0,0-1.12.5,2.39,2.39,0,0,0-1.11,2c0,1.12,1.11,2.85,1.86,3.72l1.24-.87-.87-1.24,1.24-.87L79,48.66l-3,2.23c-.38-.24-1.24-1.11-1.86-1.61a6.38,6.38,0,0,1-1.49-1.73,6.35,6.35,0,0,1-1.61-4,3.69,3.69,0,0,1,1.73-3.09A3.41,3.41,0,0,1,76.3,39.62Zm-10-7.68,2.23,6.94,2.85-4.34,2.1,1.24L68.87,43,67,41.73l-2.1-6.82L62.8,39.5l-2.11-.87L64.16,31Zm-5.45-2.23-2.35,8-2.36-.62,2.36-8ZM47.19,27.23l9.05,1L56,30l-3.34-.37-.75,6.56-2.48-.25.75-6.56L46.82,29Zm-5.2.5a7.2,7.2,0,0,1,1.61,0,3.5,3.5,0,0,1,1.24.25,2.65,2.65,0,0,1,1,.62,1.49,1.49,0,0,1,.37,1.11,2.63,2.63,0,0,1-.37,1.49,3.11,3.11,0,0,1-1.36,1.11,8.06,8.06,0,0,1,3,3.47l-2.85.12A9,9,0,0,0,42,33.06l-1.36.12.25,3.1-2.48.24-.74-8.42Zm-16.23,5.2A5.84,5.84,0,0,1,29,30.33a6.1,6.1,0,0,1,4.09-.49,4.14,4.14,0,0,1,2.48,5.82,5.84,5.84,0,0,1-3.22,2.6,6.16,6.16,0,0,1-4.09.49,4.05,4.05,0,0,1-2.6-2.35A3.46,3.46,0,0,1,25.76,32.93Zm-7.8,16a10.68,10.68,0,0,1-1.49,1.74,9,9,0,0,1-1.11,1l-1.73-1.12a14.74,14.74,0,0,0,1.73-1.11A4.79,4.79,0,0,0,16.72,48a1.45,1.45,0,0,0,.37-.49c.13-.25.25-.37.25-.62a.91.91,0,0,0,.13-.5c0-.12-.13-.24-.25-.37a.57.57,0,0,0-.62,0,2.72,2.72,0,0,0-.75.5l-.86.86-.87.87a4.45,4.45,0,0,1-1.86,1,2,2,0,0,1-1.48-.37,2.54,2.54,0,0,1-.87-2.1,7.35,7.35,0,0,1,1.36-3.1,7.73,7.73,0,0,1,1.36-1.49,8.94,8.94,0,0,1,1.12-1L15,42.47a8.46,8.46,0,0,0-2.48,2.23c-.12.12-.25.37-.37.49s-.25.38-.25.62a1,1,0,0,0-.12.5c0,.12.12.25.25.37a.52.52,0,0,0,.61,0,9.45,9.45,0,0,0,1-.74l.74-.75a5.66,5.66,0,0,1,.87-.74A3.24,3.24,0,0,1,17,43.58a2.21,2.21,0,0,1,1.49.38,2.31,2.31,0,0,1,.86,2.23A7.35,7.35,0,0,1,18,48.91Zm3.35-3.84L16,38.63l3.34-2.85c.5-.37,1-.74,1.37-1a5.3,5.3,0,0,1,1.23-.5,2.17,2.17,0,0,1,1.24,0,2,2,0,0,1,1,.75,2.44,2.44,0,0,1,.5,1,1.76,1.76,0,0,1,0,1.11A3.8,3.8,0,0,1,24,38.63,5.91,5.91,0,0,1,22.79,40l-1.36,1.12,1.73,2.1Zm-.25,53.51a4.21,4.21,0,0,1-1.24-.25,3.72,3.72,0,0,1-1.24-.86l-1-1.12L16.1,98,14.62,96.6l4.58-4.83,2.6,2.35c.37.37.62.75.87,1a2.82,2.82,0,0,1,.49,2,1.23,1.23,0,0,1-.49.86,2.72,2.72,0,0,1-.75.5C21.68,98.46,21.43,98.58,21.06,98.58Zm6.69,6.07a5.53,5.53,0,0,1-3.22-.74,5,5,0,0,1-2.23-2.35,3.05,3.05,0,0,1,.24-2.73,2.75,2.75,0,0,1,2.23-1.61,5.07,5.07,0,0,1,3.1.74,5.06,5.06,0,0,1,2.23,2.36,3.34,3.34,0,0,1-.25,2.85A2.7,2.7,0,0,1,27.75,104.65Zm10.4-1.11a1.3,1.3,0,0,1-.74,1,2.56,2.56,0,0,1-1.36.37,9.06,9.06,0,0,1,1.48,3.47l-2.35-.75a7.71,7.71,0,0,0-1.24-3l-1-.37-.74,2.35-2-.62,2.11-6.31,3.34,1.11a2.49,2.49,0,0,1,1.12.49,2.42,2.42,0,0,1,.87.62,2.67,2.67,0,0,1,.49.75A1.08,1.08,0,0,1,38.15,103.54Zm7.8,0-2.72-.25-.5,5.32L41,108.49l.5-5.33-2.73-.24.12-1.37,7.19.62ZM54,107.75a4.14,4.14,0,0,1-2.61.86,4.94,4.94,0,0,1-2.84-.37,2.41,2.41,0,0,1-1.12-1.85l-.37-4.34,2-.12.37,4.08a1.09,1.09,0,0,0,.5,1c.24.25.74.25,1.23.25a2.94,2.94,0,0,0,1.24-.37,1.09,1.09,0,0,0,.25-1.11l-.37-4.22,2.11-.24.37,4.33A2.18,2.18,0,0,1,54,107.75Zm9.53-2.11c-.49.25-1.11.5-1.73.75a6.69,6.69,0,0,1-3.47.12,2.9,2.9,0,0,1-1.86-2.1,3.47,3.47,0,0,1,.37-2.73,5.17,5.17,0,0,1,3-1.86l1.48-.37a3.88,3.88,0,0,1,1.73,0l.5,1.49a11.68,11.68,0,0,0-2.11-.25c-.24,0-.62.12-.86.12a2.57,2.57,0,0,0-1,.5,2.45,2.45,0,0,0-1,1.48,3.15,3.15,0,0,0,.12,1c.25.75.62,1.24,1.24,1.37a4.51,4.51,0,0,0,3.1-.38l-.37-1.23-1.12.37-.37-1.24,3-.87,1,3.1A6,6,0,0,0,63.54,105.64ZM72,92.51l3.59,4,2.85-2.61.86,1-4.21,4-4.58-5Zm-4.09,3.22,5.94,4.21L72,101.06l-1.24-.87-2.6,1.49.12,1.48-1.86,1.12L65.65,97Zm-3.47-9.54c-4.21,5.46-10.28,9.54-17.71,12h-.37c-7.44-2.48-13.51-6.56-17.72-12A30.58,30.58,0,0,1,22.3,67,54.39,54.39,0,0,1,23,57.58a39.33,39.33,0,0,1,2.48-8.3l.12-.37a28.65,28.65,0,0,0,6.57-.74,25.38,25.38,0,0,0,4.21-1.74A19.12,19.12,0,0,1,46.57,44a19.17,19.17,0,0,1,10.16,2.47,17.5,17.5,0,0,0,4.21,1.74,28.65,28.65,0,0,0,6.57.74l.12.37a45.76,45.76,0,0,1,2.48,8.3A55.4,55.4,0,0,1,70.85,67,31.91,31.91,0,0,1,64.41,86.19Z" transform="translate(0 0)"/><path id="icon-badge-v1" class="cls-2" d="M66.39,50.15a28,28,0,0,1-5.94-.74A20.64,20.64,0,0,1,56,47.55a17.49,17.49,0,0,0-9.54-2.36,17.15,17.15,0,0,0-9.54,2.36,20.43,20.43,0,0,1-4.46,1.86,30.41,30.41,0,0,1-5.94.74,40.2,40.2,0,0,0-2.23,7.56A52.72,52.72,0,0,0,23.53,67,30,30,0,0,0,29.6,85.45,34.63,34.63,0,0,0,46.45,97c7.06-2.48,12.88-6.32,16.85-11.52A29.72,29.72,0,0,0,69.37,67a52.72,52.72,0,0,0-.75-9.29A48.73,48.73,0,0,0,66.39,50.15Z" transform="translate(0 0)"/><g id="icon-badge-lion"><path id="icon-badge-l4" class="cls-3" d="M61.31,58.82a1.1,1.1,0,0,0,.75.25,3.93,3.93,0,0,0,1.36-.25,1.85,1.85,0,0,1,.75-.25,1.78,1.78,0,0,0-.75.13c-.49.12-1.61,0-1.61-.62h.13a3.73,3.73,0,0,0,1.23.24,1.82,1.82,0,0,0,.87-.24,1.28,1.28,0,0,1,.74-.25c-.37-.25-.74,0-1.23,0a1.72,1.72,0,0,1-.87-.25c-.12-.12-.25-.12-.49-.25A4.61,4.61,0,0,0,61,57.09a2.37,2.37,0,0,0-.87.24,1.33,1.33,0,0,0-.5.62h0a3,3,0,0,0-2.11.5A4.09,4.09,0,0,0,56,60.18a5.19,5.19,0,0,0-.37,3.1,9.72,9.72,0,0,0,1.11,3c1,1.86,1.61,3.1,2,4a5.21,5.21,0,0,1,.5,2.23,2.48,2.48,0,0,1-.38,1.36,2,2,0,0,1-1.11.87,2.12,2.12,0,0,1-1.48.12,3.7,3.7,0,0,1-1.86-1.11,10.26,10.26,0,0,1-1.49-2.48A6.27,6.27,0,0,1,52,68.85a27.7,27.7,0,0,1-.12-3.34V65a2.08,2.08,0,0,0-.74,1.62H51a1.91,1.91,0,0,1-.49-1.12,3.64,3.64,0,0,1,.12-1.61,6.1,6.1,0,0,0,.38-2,1.92,1.92,0,0,0-.62-1.61v-.13a1.55,1.55,0,0,1,.86.5,2.13,2.13,0,0,1,.62.87,5.77,5.77,0,0,1,.25.86c.25,1,.49,2,1.61,2.11a3.92,3.92,0,0,1-.62-2.73V60.31a3.63,3.63,0,0,0-.62-1.37,1.78,1.78,0,0,0-1.24-.49v-.13c.12-.12.25-.24.25-.37a1,1,0,0,1,.62-.24,1.15,1.15,0,0,1,.62.12c.12.12.24.12.24.25a1.89,1.89,0,0,1,.5.86c.25.62.62,1.24,1.24,1.37a2,2,0,0,1-.25-1.24A4,4,0,0,0,53.88,57,2.75,2.75,0,0,0,53,56.1a2,2,0,0,0-1.23-.25s-.13,0,0-.13a1.54,1.54,0,0,1,.62-.62,1.58,1.58,0,0,1,.74-.12,2.26,2.26,0,0,1,1.24.87c.25.25.37.62.74.74a1.79,1.79,0,0,1-.24-.74,2.31,2.31,0,0,1-.13-1,1.52,1.52,0,0,0-.49-1,2.23,2.23,0,0,0-1.24-.5,1.15,1.15,0,0,0-.62.12,1.9,1.9,0,0,0-.75.25h-.12a1.6,1.6,0,0,1,.12-.74l.38-.37c.12-.13.37-.13.62-.13a4,4,0,0,1,1.61.37,1,1,0,0,0-.25-.61.88.88,0,0,0-.74-.38,6.29,6.29,0,0,0-1.49-.12,4.78,4.78,0,0,1-1.36-.12v-.13a4.64,4.64,0,0,0,1.61-1h0a7.77,7.77,0,0,1-2.61-.25,3,3,0,0,0-3,.38h0c-.37-.13-.74-.13-1.11-.25h-.87c-.25,0-.49.12-.49.25s-.13.12-.13.24,0,.13.13.25a1.59,1.59,0,0,0,.49.37c.25,0,.62.13,1,.13A6.82,6.82,0,0,0,47,51.51v.13c-.13.24-.62.37-1,.62a6.75,6.75,0,0,0-1,.37h-.13A1.31,1.31,0,0,0,43.73,52a10,10,0,0,0-2.23.37l-.25.37c-.13.12-.13.25,0,.25s.25.12.62.12h.24v.13c-.24,0-.37.12-.49.37a.63.63,0,0,0,0,.74,1.73,1.73,0,0,0,.49.37,3.43,3.43,0,0,1,2.73-.86,1.33,1.33,0,0,1,.74.24c.25.13.37.25.62.37a.83.83,0,0,1,.25.87c-.12.5-.25.87-.87,1a6.88,6.88,0,0,1-2.72-.12,1.08,1.08,0,0,0,.12.87A2.64,2.64,0,0,0,44.1,58a6.37,6.37,0,0,0,1-.74A3.34,3.34,0,0,1,46,57c.13,0,.25,0,.25.13s.13.12.13.24v.25a1,1,0,0,1-.25.5,5.54,5.54,0,0,1-1.74.86c-.24.13-.37.13-.62.25a14.92,14.92,0,0,0-1.36.62,1.24,1.24,0,0,0-.62.74h.87a6.34,6.34,0,0,0,2-.24h0c-.12.62-1.11,1-2.23,1.36a7.18,7.18,0,0,0-1.48.62,3.71,3.71,0,0,0-1.12.87,4.59,4.59,0,0,0-.62,1.36,2.32,2.32,0,0,0,.87-.13,4.9,4.9,0,0,0,1.36-.74,1.86,1.86,0,0,1,.74-.25,3.64,3.64,0,0,0,1.74-.86H44a8.81,8.81,0,0,1-.37,1c-.25.24-.49.62-.74.86a3.43,3.43,0,0,1-1.36.5.48.48,0,0,0-.38.12,5.06,5.06,0,0,1-1.23.25,1,1,0,0,1-.75-.25,10.85,10.85,0,0,0-2,1.12c-.25.12-.37.24-.62.37a4.07,4.07,0,0,1-1.49.74,3.38,3.38,0,0,1-1.61.37A3,3,0,0,1,31.59,67a7.25,7.25,0,0,0-1.49-.62.67.67,0,0,0-.5.24,1,1,0,0,0-.24.62H30a.91.91,0,0,1,.62.13,1.77,1.77,0,0,1,.37.49V68a4.69,4.69,0,0,0-1.74.24c-.49.25-.86.62-.49,1.49a.46.46,0,0,1,.12-.25c0-.12.12-.12.25-.24s.37-.13.49-.13c.62-.25.87-.37,1.37.25v.12h-.25a1.52,1.52,0,0,0-1,.62,1.33,1.33,0,0,0-.25,1v.25a.8.8,0,0,1,.62-.25.46.46,0,0,0,.25-.12c.12-.13.25-.13.25-.25A3.76,3.76,0,0,1,32.33,70c.25-.13.37-.13.62-.25a5.74,5.74,0,0,1,1.36-.37,4.21,4.21,0,0,1,1.24.25c.37.12.87.24,1.36.37a1.22,1.22,0,0,0-.49-.62,2.08,2.08,0,0,0-.87-.5v-.12a1.2,1.2,0,0,1,1.24-.25,6.23,6.23,0,0,1,1.36.5c.62.24,1,.62,1.49.62a2.72,2.72,0,0,0,1.61-.38A2.33,2.33,0,0,1,40,68.48a1.78,1.78,0,0,0-1.61-.62v-.12a1.19,1.19,0,0,1,.62-.5,1.89,1.89,0,0,1,.87-.12,3.33,3.33,0,0,1,1.48.62,5.7,5.7,0,0,0,2.73,1v.12a2.65,2.65,0,0,1-1,.62,3.9,3.9,0,0,0,.74,1,7.68,7.68,0,0,0,1.24,1,11.79,11.79,0,0,0,1.36.62c.5.13,1,.25,1.73.38a3.21,3.21,0,0,1,1.61.62c.38.24.38.49.25.74.25.13.13.49,0,.87a2.78,2.78,0,0,1-.49.74,5.16,5.16,0,0,0-.5.87,4.24,4.24,0,0,0-.37,2.23v.12c0,.25.25.49.5.86a4.73,4.73,0,0,0,.74.87l.12.13a3,3,0,0,1,1,2.6,2.34,2.34,0,0,1,1.37-.5.91.91,0,0,1,.74.25h0a2.47,2.47,0,0,1,.37.62,3.75,3.75,0,0,1-.12,1.61,5.11,5.11,0,0,1-.87,1.36,9.1,9.1,0,0,1-1.12,1.12,4.22,4.22,0,0,1-1.23,0c-.62-.13-1.24-.25-1.61.25-.13.12-.13.24-.25.37v.62a2.34,2.34,0,0,0,.87-.13c.61-.12,1.23-.25,1.48.25h0l-.37.37-.37.37a5.69,5.69,0,0,0-.38,1.12v.12H50a1.78,1.78,0,0,0,1.36-.37l.37-.37c.25-.25.5-.62.75-.62h0c0,.25,0,.37.12.49a1.22,1.22,0,0,1-.12,1.12,2.56,2.56,0,0,0,1.36-.37c.25-.25.5-.5.5-.75s-.13-.49-.13-.74a2,2,0,0,1-.12-1.24,6.75,6.75,0,0,1,.37-1,1.43,1.43,0,0,1,.62-.62,2.78,2.78,0,0,0,1-.62,2.3,2.3,0,0,0,.62-.87c-.13,0-.37.13-.49.13a1,1,0,0,0-.62.12h-.13a.75.75,0,0,1-.12-.49,2,2,0,0,1,.24-.62h0a3.06,3.06,0,0,1,.62-.5,1.51,1.51,0,0,0,.5-.37H57a4.94,4.94,0,0,0,1.73-1,1.58,1.58,0,0,0,.5-.87A1.16,1.16,0,0,0,59,80.5a3,3,0,0,1-1.61,1.24c-.37.12-.74.24-.87.49h-.12A2.21,2.21,0,0,1,56.48,81a3.77,3.77,0,0,1,1-1c.12,0,.24-.12.37-.25,1.11-.62,2.1-1.11,2-2.47a3.65,3.65,0,0,1-1.11.62H58a1.73,1.73,0,0,1-.49-.38,1.38,1.38,0,0,1-.37-1v-.12a5.12,5.12,0,0,0,2.35-.12,2.68,2.68,0,0,0,1.23-1.12c-.24.13-.37.25-.61.37s-.5,0-.75-.12v-.13a3.18,3.18,0,0,0,1.49-1.36,5.47,5.47,0,0,0,.62-2,3.31,3.31,0,0,0-.13-1.12,5.26,5.26,0,0,0-.49-1.23c-.25-.37-.37-.75-.62-1.12s-.5-.87-.74-1.24c-.38-.62-.87-1.36-1.24-2a6.85,6.85,0,0,1-.87-2,5.17,5.17,0,0,1-.25-2.36A3.3,3.3,0,0,1,58,59.07a3.09,3.09,0,0,1,1-.75,1.75,1.75,0,0,1,1.12-.12h0a1.3,1.3,0,0,0,0,1,1.19,1.19,0,0,0,1.11.87,4.48,4.48,0,0,0,2.23-.38c.37-.12.62-.24,1-.37a2.74,2.74,0,0,0-1,0c-.25,0-.5.13-.74,0s-.5-.24-.5-.49c-1,.12-1,.12-.87,0ZM47.69,64.39a2,2,0,0,0,.87-1.11,2.6,2.6,0,0,0,0-1.36s.12-.13.12,0a3.21,3.21,0,0,1,.5,2.23,2.62,2.62,0,0,1-1.37,1.48,1.81,1.81,0,0,1-1.11.25,3.41,3.41,0,0,0-1.61.62H45c.25-.74,1-1.11,1.74-1.61A6.55,6.55,0,0,0,47.69,64.39Zm-5.95.75A3.11,3.11,0,0,1,43,64.39a7.83,7.83,0,0,1,.87-.37,3.21,3.21,0,0,0,2.23-2h.12a2.38,2.38,0,0,1,0,1.86,2.26,2.26,0,0,1-1.36,1.24c-.62.24-1.12.24-1.49.37a9.29,9.29,0,0,0-1.61.37h-.12C41.37,65.51,41.5,65.39,41.74,65.14Zm.75,2.23c-.38-.25-.62-.5-1-.5v-.12c1-.5,1.73,0,2.47.49a2.57,2.57,0,0,0,1,.5v.12A2.12,2.12,0,0,1,42.49,67.37Zm1,2.35h0a2.26,2.26,0,0,1,1,.25,3.44,3.44,0,0,0,1.11,0,6.45,6.45,0,0,0,1.49-.25,4.56,4.56,0,0,0,1.36-.49s.13,0,.13.12a2.25,2.25,0,0,1-1,.87,3.37,3.37,0,0,1-1.48.37,5.34,5.34,0,0,1-1.36-.25A2.24,2.24,0,0,1,43.48,69.72Zm4.33,2.11a2.43,2.43,0,0,1-1.36-.25,2.78,2.78,0,0,1-1-.62v-.12a6.78,6.78,0,0,0,2.23.12,8.52,8.52,0,0,0,2.48-.37s.12.12,0,.12a.27.27,0,0,0-.25.25A3.05,3.05,0,0,1,47.81,71.83ZM50.54,81h0c-.37-.62-.62-1.11-.87-1.48A3.19,3.19,0,0,1,49.05,78a2.92,2.92,0,0,1,.25-1.37A2.54,2.54,0,0,1,50,75.42h.13c-.13.37-.13.62-.25,1v1a3.1,3.1,0,0,0,.5,1.61A10.49,10.49,0,0,1,50.54,81Z" transform="translate(0 0)"/><path id="icon-badge-l3" class="cls-3" d="M31.09,57.58a8.84,8.84,0,0,0,1,.25,2.38,2.38,0,0,1,1.12.49c.24.13.37.25.37.5a.58.58,0,0,1,0,.62,1.07,1.07,0,0,1-.37.74,4.47,4.47,0,0,0,1.23-.24,2.86,2.86,0,0,1,1.37-.13v.13a2.47,2.47,0,0,0-.75.49,6.65,6.65,0,0,1-1.73,1.12,3.89,3.89,0,0,0,1,.24,2,2,0,0,0,1.12-.37.42.42,0,0,1,.24-.12c.5-.25,1.24-.87,1.86-.37v.12c-.62,0-.87.37-1.24.87a2.92,2.92,0,0,1-1.11,1,4,4,0,0,0,2.48-.37,4.76,4.76,0,0,0,1.48-1.61,4.91,4.91,0,0,1,1-1.12l.25-.25a4.35,4.35,0,0,0-1.24-.12,4.35,4.35,0,0,1-1.24-.12c-.49-.13-.86-.25-1.24-.38s-.74-.37-1.11-.49a4.4,4.4,0,0,1-1.36-1.24,4.68,4.68,0,0,1-.75-1.11.48.48,0,0,1-.12-.38c-.37-.86-.62-1.61-1.86-1.48a3.19,3.19,0,0,1,.5.86,2.39,2.39,0,0,1,.25.87s-.13.13-.13,0A3.18,3.18,0,0,0,31,54.61c-.25-.12-.37-.25-.62-.25a1.15,1.15,0,0,0-.62.12,1.51,1.51,0,0,0-.62.62c.12,0,.25.13.37.13l.12.12c.25.13.38.25.62.37s.25.38.38.5v.12A1.3,1.3,0,0,1,30,56.1a1.25,1.25,0,0,0-1.24-.25C29.23,57.33,29.73,57.46,31.09,57.58Z" transform="translate(0 0)"/><path id="icon-badge-l2" class="cls-3" d="M46.7,77a10.41,10.41,0,0,1,1.11-2.35,1.47,1.47,0,0,0-1.24.12c-.37.25-.86.62-1.48,1.12H45a8.19,8.19,0,0,1,.75-1.49c.24-.37.61-.49,1-.74a6.25,6.25,0,0,0-1.49.12,4.65,4.65,0,0,0-2,.87H43.1a1.24,1.24,0,0,1,.62-1c.25-.25.75-.38,1-.62a2.57,2.57,0,0,0,.62-.38c.13-.12.25-.12.38-.24a4.75,4.75,0,0,0-1.24.12c-.37,0-.75.13-1.12.13h-.62a3.5,3.5,0,0,0-1.11.12,2.91,2.91,0,0,0-1.36.75,2.2,2.2,0,0,0-.38,1.36,2.59,2.59,0,0,0,.5,1.36A3.61,3.61,0,0,1,41,78a1.5,1.5,0,0,1-1,1.36,4.21,4.21,0,0,1-1.74.25h-1a1.81,1.81,0,0,1-.74-.25c-.25-.12-.37-.25-.62-.25a2.43,2.43,0,0,0-1-.37,1.86,1.86,0,0,0-1.12.25,3.11,3.11,0,0,0-.61.74h.61a1.74,1.74,0,0,1,1.12,0c.25.13.37.25.37.5v.12h-.62a2.6,2.6,0,0,0-1.11.13A1.17,1.17,0,0,0,33,81a1.71,1.71,0,0,0-.25.75v.37c0,.12.12.24.12.37a2.16,2.16,0,0,1,2.36-1v.12a3.11,3.11,0,0,0-1,.87,3,3,0,0,0-.5.87,3.24,3.24,0,0,1,1.12,0,.94.94,0,0,0,1-.13c.12-.12.24-.25.24-.37l.75-.75c.12-.12.24-.24.37-.24s.25-.13.37-.13H40a4,4,0,0,1,1.11.37.62.62,0,0,0-.25-.49A4.92,4.92,0,0,0,40,81v-.12a3.39,3.39,0,0,1,2.48.12c1,.37,2,.62,2.84-.12a1.22,1.22,0,0,1-.86-.5,2.75,2.75,0,0,0-1.61-.62v-.12a1.43,1.43,0,0,1,.62-.62,2.22,2.22,0,0,1,1-.25,3,3,0,0,1,1.11.25,5.48,5.48,0,0,0,1.36.24A3.19,3.19,0,0,1,46.7,77Z" transform="translate(0 0)"/><path id="icon-badge-l1" class="cls-3" d="M38,55.6a2.45,2.45,0,0,0,1.36.37A4.85,4.85,0,0,0,41,55.48a6,6,0,0,1,3.1-.75,6.34,6.34,0,0,0-3.47.25,5.77,5.77,0,0,1-1.24.25,3.3,3.3,0,0,1-1.24-.13,1.84,1.84,0,0,1-.74-.37C37.41,55.1,37.66,55.35,38,55.6Z" transform="translate(0 0)"/></g><path class="cls-2" d="M32.39,125.89c.62.21.94.31,1.57.49-.87,3-1.3,4.44-2.16,7.41-.85-.25-1.27-.38-2.11-.66.62-1.83.93-2.74,1.54-4.57-1.13.64-1.72.94-2.93,1.51L28,130c-.5-1.24-.72-1.86-1.12-3.1-.8,1.76-1.19,2.63-2,4.39-.82-.37-1.22-.56-2-1l3.47-6.89c.6.3.9.44,1.5.72.42,1.45.66,2.17,1.21,3.62C30.44,127,31.1,126.67,32.39,125.89Zm4.79,9.16c-.86-.16-1.29-.24-2.15-.44.67-3,1-4.51,1.68-7.52.73.16,1.1.23,1.83.37C38,130.49,37.73,132,37.18,135.05Zm12.16.74c-.74,0-1.11.06-1.84.07A40.52,40.52,0,0,1,43,130.81c-.14,2-.22,2.95-.36,4.92-.87-.06-1.31-.1-2.18-.2.35-3.06.53-4.6.88-7.66.68.08,1,.11,1.71.16a37.93,37.93,0,0,0,4,4.84c0-1.88,0-2.83-.06-4.71.74,0,1.12,0,1.86-.07C49.08,131.17,49.17,132.71,49.34,135.79Zm5.6-8.44a5.41,5.41,0,0,1,1.82-.08,4,4,0,0,1,1.49.48,3.64,3.64,0,0,1,1.13,1,4,4,0,0,1,.69,1.36,3.89,3.89,0,0,1,.15,1.57,3.06,3.06,0,0,1-.56,1.42,4.09,4.09,0,0,1-1.35,1.15,7,7,0,0,1-2.15.75c-1.43.27-2.15.38-3.59.54l-.9-7.65C53,127.7,53.64,127.6,54.94,127.35Zm-.42,6.47,1.37-.24a3.53,3.53,0,0,0,1.24-.46,2.19,2.19,0,0,0,.72-.74,2.13,2.13,0,0,0,.26-.87,3,3,0,0,0-.07-.89,3.33,3.33,0,0,0-.37-.9,2.17,2.17,0,0,0-.64-.64,2,2,0,0,0-.9-.34,3.36,3.36,0,0,0-1.17,0c-.48.09-.73.14-1.22.21C54.05,130.92,54.21,131.89,54.52,133.82ZM70,130.28A45.36,45.36,0,0,1,64,132.87l-2.58-7.27a37.54,37.54,0,0,0,5.11-2.18l.63,1.27a36.54,36.54,0,0,1-3.44,1.55l.61,1.5c1.37-.56,2.06-.86,3.4-1.53l.62,1.27c-1.38.68-2.08,1-3.49,1.57.27.69.41,1,.69,1.72A42,42,0,0,0,69.39,129Z" transform="translate(0 0)"/><path class="cls-4" d="M32.39,125.89c.62.21.94.31,1.57.49-.87,3-1.3,4.44-2.16,7.41-.85-.25-1.27-.38-2.11-.66.62-1.83.93-2.74,1.54-4.57-1.13.64-1.72.94-2.93,1.51L28,130c-.5-1.24-.72-1.86-1.12-3.1-.8,1.76-1.19,2.63-2,4.39-.82-.37-1.22-.56-2-1l3.47-6.89c.6.3.9.44,1.5.72.42,1.45.66,2.17,1.21,3.62C30.44,127,31.1,126.67,32.39,125.89Zm4.79,9.16c-.86-.16-1.29-.24-2.15-.44.67-3,1-4.51,1.68-7.52.73.16,1.1.23,1.83.37C38,130.49,37.73,132,37.18,135.05Zm12.16.74c-.74,0-1.11.06-1.84.07A40.52,40.52,0,0,1,43,130.81c-.14,2-.22,2.95-.36,4.92-.87-.06-1.31-.1-2.18-.2.35-3.06.53-4.6.88-7.66.68.08,1,.11,1.71.16a37.93,37.93,0,0,0,4,4.84c0-1.88,0-2.83-.06-4.71.74,0,1.12,0,1.86-.07C49.08,131.17,49.17,132.71,49.34,135.79Zm5.6-8.44a5.41,5.41,0,0,1,1.82-.08,4,4,0,0,1,1.49.48,3.64,3.64,0,0,1,1.13,1,4,4,0,0,1,.69,1.36,3.89,3.89,0,0,1,.15,1.57,3.06,3.06,0,0,1-.56,1.42,4.09,4.09,0,0,1-1.35,1.15,7,7,0,0,1-2.15.75c-1.43.27-2.15.38-3.59.54l-.9-7.65C53,127.7,53.64,127.6,54.94,127.35Zm-.42,6.47,1.37-.24a3.53,3.53,0,0,0,1.24-.46,2.19,2.19,0,0,0,.72-.74,2.13,2.13,0,0,0,.26-.87,3,3,0,0,0-.07-.89,3.33,3.33,0,0,0-.37-.9,2.17,2.17,0,0,0-.64-.64,2,2,0,0,0-.9-.34,3.36,3.36,0,0,0-1.17,0c-.48.09-.73.14-1.22.21C54.05,130.92,54.21,131.89,54.52,133.82ZM70,130.28A45.36,45.36,0,0,1,64,132.87l-2.58-7.27a37.54,37.54,0,0,0,5.11-2.18l.63,1.27a36.54,36.54,0,0,1-3.44,1.55l.61,1.5c1.37-.56,2.06-.86,3.4-1.53l.62,1.27c-1.38.68-2.08,1-3.49,1.57.27.69.41,1,.69,1.72A42,42,0,0,0,69.39,129Z" transform="translate(0 0)"/><path class="cls-1" d="M26.34,123.39c.6.3.9.44,1.5.72.42,1.45.66,2.17,1.21,3.62,1.39-.69,2.05-1.06,3.34-1.84.62.21.94.31,1.57.49-.87,3-1.3,4.44-2.16,7.41-.85-.25-1.27-.38-2.11-.66.62-1.83.93-2.74,1.54-4.57-1.13.64-1.72.94-2.93,1.51L28,130c-.5-1.24-.72-1.86-1.12-3.1-.8,1.76-1.19,2.63-2,4.39-.82-.37-1.22-.56-2-1l3.47-6.89m40.15,0,.63,1.27a36.54,36.54,0,0,1-3.44,1.55c.25.6.37.9.61,1.5,1.37-.56,2.06-.86,3.4-1.53l.62,1.27c-1.38.68-2.08,1-3.49,1.57.27.69.41,1,.69,1.72A42,42,0,0,0,69.39,129c.25.51.38.76.64,1.27A45.36,45.36,0,0,1,64,132.87l-2.58-7.27a37.54,37.54,0,0,0,5.11-2.18m-29.78,3.67c.73.16,1.1.23,1.83.37-.54,3-.81,4.55-1.36,7.59-.86-.16-1.29-.24-2.15-.44.67-3,1-4.51,1.68-7.52m19.43.14a4.21,4.21,0,0,1,.62,0,4,4,0,0,1,1.49.48,3.64,3.64,0,0,1,1.13,1,4,4,0,0,1,.69,1.36,3.89,3.89,0,0,1,.15,1.57,3.06,3.06,0,0,1-.56,1.42,4.09,4.09,0,0,1-1.35,1.15,7,7,0,0,1-2.15.75c-1.43.27-2.15.38-3.59.54l-.9-7.65c1.31-.16,2-.26,3.27-.51a6.42,6.42,0,0,1,1.2-.12m-1.62,6.59,1.37-.24a3.53,3.53,0,0,0,1.24-.46,2.19,2.19,0,0,0,.72-.74,2.13,2.13,0,0,0,.26-.87,3,3,0,0,0-.07-.89,3.33,3.33,0,0,0-.37-.9,2.17,2.17,0,0,0-.64-.64,2,2,0,0,0-.9-.34,2.73,2.73,0,0,0-.41,0,4.13,4.13,0,0,0-.76.07c-.48.09-.73.14-1.22.21.31,1.93.47,2.9.78,4.83m-13.17-5.95c.68.08,1,.11,1.71.16a37.93,37.93,0,0,0,4,4.84c0-1.88,0-2.83-.06-4.71.74,0,1.12,0,1.86-.07.17,3.08.26,4.62.43,7.7-.74,0-1.11.06-1.84.07A40.52,40.52,0,0,1,43,130.81c-.14,2-.22,2.95-.36,4.92-.87-.06-1.31-.1-2.18-.2.35-3.06.53-4.6.88-7.66m-15.9-7.17-.9,1.79L22,127.65l-.87,1.73-.9,1.79,1.79.89c.82.42,1.25.63,2.1,1l1.82.82.82-1.83.18-.39.37.14.31.13.36.13-.14.42-.64,1.89,1.89.64c.87.29,1.32.43,2.19.69l1.4.4v0l.27.06.25.08v0l1.42.32c.89.19,1.35.29,2.24.45l1.43.25v0l.27,0,.27.05v0l1.44.17c.9.1,1.37.14,2.27.21l2,.14.15-2v0c.43.45.9.92,1.45,1.46l.6.59.84,0c.76,0,1.15,0,1.91-.07l1.36-.08v0l.31,0,.31,0v0l1.36-.16c1.49-.17,2.26-.29,3.73-.57a9.23,9.23,0,0,0,2.77-1,6.16,6.16,0,0,0,2-1.74,5.41,5.41,0,0,0,.62-1.16l.16.46.67,1.89,1.89-.67a45.24,45.24,0,0,0,6.29-2.69l1.79-.89-.9-1.79-.19-.39-.44-.87-.9-1.79-.24.12-.25-.49-.15-.3.17-.08-.9-1.79-.31-.63-.32-.63-.9-1.79-1.79.89a34.28,34.28,0,0,1-4.87,2.08l-1.89.67.62,1.75-.21-.12a6.06,6.06,0,0,0-2.22-.73,6.4,6.4,0,0,0-.88,0,8.87,8.87,0,0,0-1.58.15c-1.25.25-1.86.34-3.12.49l-1.31.15-1.33.08c-.71,0-1.06.05-1.78.06l-2,0,0,1.17-.36-.49-.55-.75-.92-.07c-.65-.05-1-.08-1.63-.16l-1.35-.15-1.33-.24c-.71-.13-1-.2-1.76-.35l-1.32-.3-1.31-.38c-.6-.17-.9-.27-1.49-.46l-.88-.29-.79.48c-.46.27-.83.5-1.19.7-.12-.4-.25-.82-.4-1.34l-.25-.88-.84-.38c-.58-.26-.86-.4-1.43-.69l-1.79-.9Z" transform="translate(0 0)"/><path class="cls-4" d="M32.39,125.89c.62.21.94.31,1.57.49-.87,3-1.3,4.44-2.16,7.41-.85-.25-1.27-.38-2.11-.66.62-1.83.93-2.74,1.54-4.57-1.13.64-1.72.94-2.93,1.51L28,130c-.5-1.24-.72-1.86-1.12-3.1-.8,1.76-1.19,2.63-2,4.39-.82-.37-1.22-.56-2-1l3.47-6.89c.6.3.9.44,1.5.72.42,1.45.66,2.17,1.21,3.62C30.44,127,31.1,126.67,32.39,125.89Zm4.79,9.16c-.86-.16-1.29-.24-2.15-.44.67-3,1-4.51,1.68-7.52.73.16,1.1.23,1.83.37C38,130.49,37.73,132,37.18,135.05Zm12.16.74c-.74,0-1.11.06-1.84.07A40.52,40.52,0,0,1,43,130.81c-.14,2-.22,2.95-.36,4.92-.87-.06-1.31-.1-2.18-.2.35-3.06.53-4.6.88-7.66.68.08,1,.11,1.71.16a37.93,37.93,0,0,0,4,4.84c0-1.88,0-2.83-.06-4.71.74,0,1.12,0,1.86-.07C49.08,131.17,49.17,132.71,49.34,135.79Zm5.6-8.44a5.41,5.41,0,0,1,1.82-.08,4,4,0,0,1,1.49.48,3.64,3.64,0,0,1,1.13,1,4,4,0,0,1,.69,1.36,3.89,3.89,0,0,1,.15,1.57,3.06,3.06,0,0,1-.56,1.42,4.09,4.09,0,0,1-1.35,1.15,7,7,0,0,1-2.15.75c-1.43.27-2.15.38-3.59.54l-.9-7.65C53,127.7,53.64,127.6,54.94,127.35Zm-.42,6.47,1.37-.24a3.53,3.53,0,0,0,1.24-.46,2.19,2.19,0,0,0,.72-.74,2.13,2.13,0,0,0,.26-.87,3,3,0,0,0-.07-.89,3.33,3.33,0,0,0-.37-.9,2.17,2.17,0,0,0-.64-.64,2,2,0,0,0-.9-.34,3.36,3.36,0,0,0-1.17,0c-.48.09-.73.14-1.22.21C54.05,130.92,54.21,131.89,54.52,133.82ZM70,130.28A45.36,45.36,0,0,1,64,132.87l-2.58-7.27a37.54,37.54,0,0,0,5.11-2.18l.63,1.27a36.54,36.54,0,0,1-3.44,1.55l.61,1.5c1.37-.56,2.06-.86,3.4-1.53l.62,1.27c-1.38.68-2.08,1-3.49,1.57.27.69.41,1,.69,1.72A42,42,0,0,0,69.39,129Z" transform="translate(0 0)"/><path class="cls-5" d="M10.71,12l.89-.46,2-1,.37-.17.38.13c1.82.62,3,1.07,4.41,1.65L17.48,8.8l.94-.37c.9-.35,1.36-.52,2.27-.85l.94-.33L25,16.85l-.94.33-1.66.61L22,18l-.4-.2c-1.69-.85-2.82-1.38-4.19-1.94l1.6,3.4-.91.42c-.77.37-1.15.55-1.91.94l-.89.45Zm63.83,7.26h-.48a7.11,7.11,0,0,1-2.33-.58,7.38,7.38,0,0,1-2.06-1.26,6.23,6.23,0,0,1-1.37-1.74,5.61,5.61,0,0,1-.59-2,4.74,4.74,0,0,1,.21-2A4.64,4.64,0,0,1,69,10,5.09,5.09,0,0,1,70.73,8.8a5.65,5.65,0,0,1,2.13-.39h.24A7.58,7.58,0,0,1,75.76,9a7.76,7.76,0,0,1,2.32,1.48,5.9,5.9,0,0,1,1.38,2,5.21,5.21,0,0,1,.4,2.09,4.65,4.65,0,0,1-.47,1.93A4.76,4.76,0,0,1,78.1,18a5.57,5.57,0,0,1-1.85.94A6.42,6.42,0,0,1,74.54,19.21Zm-1.23-7a1.55,1.55,0,0,0-.53.08,1.22,1.22,0,0,0-.78.81,1.34,1.34,0,0,0,0,1.16,2.13,2.13,0,0,0,1.13.94,2.64,2.64,0,0,0,1,.22,1.51,1.51,0,0,0,.48-.07,1.32,1.32,0,0,0,.86-.79,1.23,1.23,0,0,0,0-1.13,2.2,2.2,0,0,0-1.19-1A2.49,2.49,0,0,0,73.31,12.22ZM64.59,16a56.12,56.12,0,0,0-6-1.44l-1-.18,1.91-10,1,.19a63.8,63.8,0,0,1,6.82,1.63l1,.28-1,3.36-.19-.05-.88,3.06.28.08-1,3.36ZM29.4,15.39A5.24,5.24,0,0,1,27.56,15,4.06,4.06,0,0,1,26,13.92a4.74,4.74,0,0,1-1-1.83L23.41,6.67l1-.29c.92-.28,1.39-.41,2.32-.65l.25-.07.1-.35c.24-.78.37-1.18.63-2l.18-.53.54-.13c.94-.22,1.42-.32,2.36-.51l3-.59-2,2.25-.83.91.54-.1c.94-.19,1.42-.27,2.36-.43l1-.16.92,5.56a5.17,5.17,0,0,1-.07,2.16,4,4,0,0,1-1,1.69,5.17,5.17,0,0,1-1.49,1.09,8.27,8.27,0,0,1-1.8.62,8.12,8.12,0,0,1-1.84.23ZM29.11,11a.76.76,0,0,0,.41.54,1.19,1.19,0,0,0,.51.11,2,2,0,0,0,.47-.06,2.63,2.63,0,0,0,.54-.2,1.18,1.18,0,0,0,.32-.26.75.75,0,0,0,.15-.31,1.26,1.26,0,0,0,0-.51l-1-5.12-.92,1.09-1.33.32L28,6.64Zm26.81,3.11a53.5,53.5,0,0,0-6.31-.63l-1-.05.53-10.17,1,0c1,0,1.43.08,2.39.16l1,.08L53,10.2c1.19.11,2.06.22,3.47.43l1,.14-.51,3.47Zm-13.18-.53a7.45,7.45,0,0,1-2-.26,5.8,5.8,0,0,1-2-1,5.32,5.32,0,0,1-1.36-1.53,4.93,4.93,0,0,1-.63-1.88A4.4,4.4,0,0,1,37,6.86,4.83,4.83,0,0,1,38.18,5a6.08,6.08,0,0,1,2-1.31,7.85,7.85,0,0,1,2.69-.56h.46a7.4,7.4,0,0,1,3.47.77l.54.28V8.24l-1.44-.72A7.43,7.43,0,0,0,44.52,7a4.63,4.63,0,0,0-1.11-.14h-.19a3.56,3.56,0,0,0-1,.19,2.1,2.1,0,0,0-.71.4,1.38,1.38,0,0,0-.37.48,1.18,1.18,0,0,0-.07.54,1.23,1.23,0,0,0,.17.54,1.66,1.66,0,0,0,.43.45,2.65,2.65,0,0,0,.7.31,3.21,3.21,0,0,0,.78.09h.17a4.42,4.42,0,0,0,1.11-.19c.35-.12.86-.33,1.65-.69l1.41-.63v4l-.56.27a10.23,10.23,0,0,1-1.82.71,8.16,8.16,0,0,1-1.88.28Z" transform="translate(0 0)"/><path class="cls-1" d="M31,3.15C30.15,4,29.76,4.47,29,5.36l-1,.25c.24-.78.36-1.17.62-1.95.93-.22,1.39-.32,2.33-.51m12.41,1a6.44,6.44,0,0,1,3,.66V6.62A8.75,8.75,0,0,0,44.77,6a5.63,5.63,0,0,0-1.36-.17h-.23a4.31,4.31,0,0,0-1.33.24,3.23,3.23,0,0,0-1,.59,2.33,2.33,0,0,0-.63.84,2.24,2.24,0,0,0,.17,2,2.53,2.53,0,0,0,.71.75,3.16,3.16,0,0,0,1,.45,3.77,3.77,0,0,0,1,.13h.21a5.29,5.29,0,0,0,1.39-.25c.42-.14,1-.38,1.74-.71,0,.71,0,1.07,0,1.78a9.25,9.25,0,0,1-1.64.65,8.18,8.18,0,0,1-1.67.24h-.4A6.3,6.3,0,0,1,41,12.34a4.65,4.65,0,0,1-1.64-.8,4.14,4.14,0,0,1-1.1-1.23,3.72,3.72,0,0,1-.51-1.5,3.45,3.45,0,0,1,.18-1.62,3.72,3.72,0,0,1,1-1.46,5,5,0,0,1,1.69-1.1,7.12,7.12,0,0,1,2.36-.48h.42m6.73.15c.94,0,1.41.08,2.35.16l-.55,6.66c1.76.14,2.64.25,4.4.51-.09.59-.13.89-.22,1.48a55.21,55.21,0,0,0-6.41-.64c.17-3.27.26-4.9.43-8.17M33.92,5.2c.31,1.83.46,2.74.76,4.58a3.92,3.92,0,0,1,0,1.72,3,3,0,0,1-.7,1.28,4,4,0,0,1-1.21.87,7.6,7.6,0,0,1-1.59.55,7.23,7.23,0,0,1-1.61.2h-.1a4.1,4.1,0,0,1-1.48-.28,3,3,0,0,1-1.18-.85A3.7,3.7,0,0,1,26,11.8c-.54-1.78-.8-2.68-1.34-4.46.92-.27,1.37-.4,2.29-.65.49,1.82.73,2.73,1.21,4.55a1.74,1.74,0,0,0,.93,1.18,2.17,2.17,0,0,0,1,.21,2.84,2.84,0,0,0,.69-.09,2.93,2.93,0,0,0,.8-.29,2.12,2.12,0,0,0,.61-.5,1.73,1.73,0,0,0,.35-.72,2.12,2.12,0,0,0,0-.94C32.13,8.3,32,7.41,31.6,5.62c.92-.19,1.39-.27,2.32-.42m26.4.32a63.28,63.28,0,0,1,6.73,1.61l-.41,1.45c-1.72-.5-2.59-.72-4.33-1.11l-.37,1.67c1.62.37,2.43.57,4,1l-.41,1.44c-1.57-.45-2.36-.65-4-1l-.43,1.92c1.65.37,2.47.58,4.11,1.05L64.87,15a55.6,55.6,0,0,0-6.09-1.46c.62-3.21.93-4.82,1.54-8M21,8.53c1.1,3.08,1.65,4.62,2.74,7.71-.67.24-1,.36-1.68.62A55.46,55.46,0,0,0,15.48,14l2.23,4.75c-.78.37-1.17.55-1.94.95l-3.72-7.29c.8-.41,1.2-.6,2-1A54.49,54.49,0,0,1,20.6,14L18.78,9.36c.89-.35,1.34-.51,2.24-.83m51.84.88h.2a7,7,0,0,1,4.32,1.81,4.75,4.75,0,0,1,1.15,1.62,4,4,0,0,1,.33,1.69A3.38,3.38,0,0,1,78.49,16a3.69,3.69,0,0,1-1,1.22A4.4,4.4,0,0,1,76,18a5.15,5.15,0,0,1-1.43.19h-.41a6.83,6.83,0,0,1-3.79-1.59,5,5,0,0,1-1.15-1.44,4.6,4.6,0,0,1-.49-1.61A3.75,3.75,0,0,1,68.87,12a3.53,3.53,0,0,1,.81-1.32,3.84,3.84,0,0,1,1.42-.94,4.68,4.68,0,0,1,1.76-.32m1.27,7a2.54,2.54,0,0,0,.78-.12A2.32,2.32,0,0,0,76.38,15a2.25,2.25,0,0,0,0-2,3.08,3.08,0,0,0-1.7-1.48,3.56,3.56,0,0,0-1.4-.31,2.65,2.65,0,0,0-.85.13,2.28,2.28,0,0,0-1.4,1.41,2.39,2.39,0,0,0,.09,2,3.07,3.07,0,0,0,1.63,1.39,3.45,3.45,0,0,0,1.35.3M36.52,0l-6,1.19c-.95.19-1.44.3-2.38.52L27.07,2,26.72,3c-.24.73-.37,1.13-.58,1.81-.75.2-1.23.33-2.06.58L22.24,6h0l0,0h0l-1.81.64c-.92.33-1.39.51-2.3.86l-1.86.73.73,1.86.09.24c-.69-.26-1.43-.52-2.32-.82l-.77-.26-.73.35c-.81.39-1.23.59-2,1l-1.79.91.91,1.78,2,3.86L14,20.59l.91,1.78,1.78-.91c.75-.38,1.12-.56,1.88-.92l1.81-.85-.85-1.81,0-.07,1.69.84.79.4.83-.32,1.63-.61,1.89-.67-.67-1.88-.33-.91A5.19,5.19,0,0,0,27.18,16a5.91,5.91,0,0,0,2.2.43h.14a9.49,9.49,0,0,0,2.06-.25,9.06,9.06,0,0,0,2-.71,6,6,0,0,0,1.78-1.29A5,5,0,0,0,36.56,12a4,4,0,0,0,.11-.5,6.4,6.4,0,0,0,1.48,1.6,6.79,6.79,0,0,0,2.32,1.13,8.2,8.2,0,0,0,2.27.3h.49a10.09,10.09,0,0,0,2.1-.31,11.19,11.19,0,0,0,2-.78l.29-.14-.06,1,2,.11a53.74,53.74,0,0,1,6.21.62l1.32.19,1.32.26a51.66,51.66,0,0,1,5.9,1.41l1.92.56.56-1.92,0-.14L67,15a8,8,0,0,0,.45,1.1,6.93,6.93,0,0,0,1.6,2,8.12,8.12,0,0,0,2.33,1.44,8,8,0,0,0,2.66.65,4.87,4.87,0,0,0,.54,0,7.24,7.24,0,0,0,2-.27,6.4,6.4,0,0,0,2.19-1.12,5.71,5.71,0,0,0,1.56-1.88,5.51,5.51,0,0,0,.58-2.35,6.17,6.17,0,0,0-.48-2.5,6.8,6.8,0,0,0-1.62-2.31,8.6,8.6,0,0,0-2.61-1.67,8.46,8.46,0,0,0-3-.69h-.27a6.78,6.78,0,0,0-2.5.46,6,6,0,0,0-1.74,1l.15-.51L69,7.69l.55-1.92-1.92-.56a65.66,65.66,0,0,0-6.92-1.65l-2-.38-.38,2-.88,4.62-.89-.13c-1-.15-1.75-.25-2.54-.34l0-.44.36-4.25.16-2-2-.17c-1-.08-1.46-.11-2.42-.16l-2-.1-.06,1.27L47.3,3a8.39,8.39,0,0,0-3.94-.89h-.51a9.07,9.07,0,0,0-3,.63,7.13,7.13,0,0,0-2.36,1.53,6.1,6.1,0,0,0-1.33,2L35.9,4.87l-.33-2-2,.32h0L36.52,0ZM29.19,7.38l.28-.07.4-.09.65,3.26v0a1,1,0,0,1-.25.08.8.8,0,0,1-.21,0l-.38-1.41-.49-1.84ZM43.12,8.84a2.06,2.06,0,0,1-.52-.06,1.18,1.18,0,0,1-.39-.17,1.1,1.1,0,0,1-.15-.14.39.39,0,0,1,0-.11s0,0,0-.06a.27.27,0,0,1,.09-.11A1.43,1.43,0,0,1,42.52,8a2.72,2.72,0,0,1,.74-.13h.15a3.56,3.56,0,0,1,.86.11,6.33,6.33,0,0,1,.89.31c-.4.18-.8.34-1.08.44a3.18,3.18,0,0,1-.83.14Zm31,5.59a1.55,1.55,0,0,1-.58-.15c-.48-.2-.59-.4-.62-.46s-.07-.14,0-.36.11-.19.17-.21a.6.6,0,0,1,.2,0,1.72,1.72,0,0,1,.63.15,1.29,1.29,0,0,1,.66.5c0,.06.05.1,0,.28s-.17.23-.25.25a.58.58,0,0,1-.19,0Z" transform="translate(0 0)"/><path class="cls-5" d="M31,3.15C30.15,4,29.76,4.47,29,5.36l-1,.25c.24-.78.36-1.17.62-1.95.93-.22,1.39-.32,2.33-.51m12.41,1a6.44,6.44,0,0,1,3,.66V6.62A8.75,8.75,0,0,0,44.77,6a5.63,5.63,0,0,0-1.36-.17h-.23a4.31,4.31,0,0,0-1.33.24,3.23,3.23,0,0,0-1,.59,2.33,2.33,0,0,0-.63.84,2.24,2.24,0,0,0,.17,2,2.53,2.53,0,0,0,.71.75,3.16,3.16,0,0,0,1,.45,3.77,3.77,0,0,0,1,.13h.21a5.29,5.29,0,0,0,1.39-.25c.42-.14,1-.38,1.74-.71,0,.71,0,1.07,0,1.78a9.25,9.25,0,0,1-1.64.65,8.18,8.18,0,0,1-1.67.24h-.4A6.3,6.3,0,0,1,41,12.34a4.65,4.65,0,0,1-1.64-.8,4.14,4.14,0,0,1-1.1-1.23,3.72,3.72,0,0,1-.51-1.5,3.45,3.45,0,0,1,.18-1.62,3.72,3.72,0,0,1,1-1.46,5,5,0,0,1,1.69-1.1,7.12,7.12,0,0,1,2.36-.48h.42m6.73.15c.94,0,1.41.08,2.35.16l-.55,6.66c1.76.14,2.64.25,4.4.51-.09.59-.13.89-.22,1.48a55.21,55.21,0,0,0-6.41-.64c.17-3.27.26-4.9.43-8.17M33.92,5.2c.31,1.83.46,2.74.76,4.58a3.92,3.92,0,0,1,0,1.72,3,3,0,0,1-.7,1.28,4,4,0,0,1-1.21.87,7.6,7.6,0,0,1-1.59.55,7.23,7.23,0,0,1-1.61.2h-.1a4.1,4.1,0,0,1-1.48-.28,3,3,0,0,1-1.18-.85A3.7,3.7,0,0,1,26,11.8c-.54-1.78-.8-2.68-1.34-4.46.92-.27,1.37-.4,2.29-.65.49,1.82.73,2.73,1.21,4.55a1.74,1.74,0,0,0,.93,1.18,2.17,2.17,0,0,0,1,.21,2.84,2.84,0,0,0,.69-.09,2.93,2.93,0,0,0,.8-.29,2.12,2.12,0,0,0,.61-.5,1.73,1.73,0,0,0,.35-.72,2.12,2.12,0,0,0,0-.94C32.13,8.3,32,7.41,31.6,5.62c.92-.19,1.39-.27,2.32-.42m26.4.32a63.28,63.28,0,0,1,6.73,1.61l-.41,1.45c-1.72-.5-2.59-.72-4.33-1.11l-.37,1.67c1.62.37,2.43.57,4,1l-.41,1.44c-1.57-.45-2.36-.65-4-1l-.43,1.92c1.65.37,2.47.58,4.11,1.05L64.87,15a55.6,55.6,0,0,0-6.09-1.46c.62-3.21.93-4.82,1.54-8M21,8.53c1.1,3.08,1.65,4.62,2.74,7.71-.67.24-1,.36-1.68.62A55.46,55.46,0,0,0,15.48,14l2.23,4.75c-.78.37-1.17.55-1.94.95l-3.72-7.29c.8-.41,1.2-.6,2-1A54.49,54.49,0,0,1,20.6,14L18.78,9.36c.89-.35,1.34-.51,2.24-.83m51.84.88h.2a7,7,0,0,1,4.32,1.81,4.75,4.75,0,0,1,1.15,1.62,4,4,0,0,1,.33,1.69A3.38,3.38,0,0,1,78.49,16a3.69,3.69,0,0,1-1,1.22A4.4,4.4,0,0,1,76,18a5.15,5.15,0,0,1-1.43.19h-.41a6.83,6.83,0,0,1-3.79-1.59,5,5,0,0,1-1.15-1.44,4.6,4.6,0,0,1-.49-1.61A3.75,3.75,0,0,1,68.87,12a3.53,3.53,0,0,1,.81-1.32,3.84,3.84,0,0,1,1.42-.94,4.68,4.68,0,0,1,1.76-.32m1.27,7a2.54,2.54,0,0,0,.78-.12A2.32,2.32,0,0,0,76.38,15a2.25,2.25,0,0,0,0-2,3.08,3.08,0,0,0-1.7-1.48,3.56,3.56,0,0,0-1.4-.31,2.65,2.65,0,0,0-.85.13,2.28,2.28,0,0,0-1.4,1.41,2.39,2.39,0,0,0,.09,2,3.07,3.07,0,0,0,1.63,1.39,3.45,3.45,0,0,0,1.35.3M32.34,2.37l-1.49.29c-1,.19-1.41.29-2.34.51l-.28.06-.08.27c-.26.78-.39,1.18-.63,2l-.21.68V6.08l-.48.13c-.93.25-1.39.37-2.31.65L24,7l.14.48L25,10.21l.52,1.73a4.4,4.4,0,0,0,.87,1.65,3.65,3.65,0,0,0,1.37,1,4.46,4.46,0,0,0,1.66.32h.11a8.23,8.23,0,0,0,1.72-.21,8.47,8.47,0,0,0,1.7-.59,4.69,4.69,0,0,0,1.35-1,3.45,3.45,0,0,0,.82-1.49,4.56,4.56,0,0,0,.07-1.93l-.24-1.41-.52-3.18-.08-.49-.5.08c-.94.16-1.4.24-2.34.43l-.49.1.09.49L32,10.19a1.75,1.75,0,0,1,0,.72,1.4,1.4,0,0,1-.25.52,1.6,1.6,0,0,1-.47.38,2.81,2.81,0,0,1-.67.25,3.05,3.05,0,0,1-.58.07A1.77,1.77,0,0,1,29.3,12a1.22,1.22,0,0,1-.67-.86l-.4-1.5-.8-3-.08-.29.77-.19,1-.24.16,0,.11-.13c.75-.89,1.12-1.32,1.92-2.19l1-1.12Zm11,1.27h-.44a7.33,7.33,0,0,0-2.52.52,5.53,5.53,0,0,0-1.87,1.2A4.48,4.48,0,0,0,37.47,7a4.13,4.13,0,0,0-.21,1.84,4.35,4.35,0,0,0,.58,1.7,4.69,4.69,0,0,0,1.22,1.38,5.36,5.36,0,0,0,1.81.88,6.94,6.94,0,0,0,1.87.24h.43a8.36,8.36,0,0,0,1.77-.26,9.29,9.29,0,0,0,1.73-.68L47,12V9.1l-.7.32c-.83.37-1.33.58-1.7.7a4.65,4.65,0,0,1-1.25.22h-.19a3.78,3.78,0,0,1-.91-.11,2.65,2.65,0,0,1-.85-.38,1.91,1.91,0,0,1-.57-.6,1.67,1.67,0,0,1-.25-.76,1.64,1.64,0,0,1,.11-.77,1.76,1.76,0,0,1,.5-.66,2.55,2.55,0,0,1,.87-.5,4.27,4.27,0,0,1,1.18-.22h.21a4.61,4.61,0,0,1,1.23.16,7,7,0,0,1,1.5.57l.72.36V4.5l-.27-.14a6.83,6.83,0,0,0-3.24-.72Zm6.25.12,0,.5-.24,4.56-.18,3.61,0,.5.5,0a56.18,56.18,0,0,1,6.35.63l.5.08.07-.5.22-1.48.08-.49-.5-.08c-1.58-.23-2.48-.34-3.93-.47l.16-1.92.35-4.24L53,4l-.5,0c-.94-.08-1.42-.11-2.37-.16l-.5,0ZM59.92,4.94l-.09.49L58.57,12l-.28,1.43L58.2,14l.49.09a56.47,56.47,0,0,1,6,1.45l.48.14.14-.48,0-.13.38-1.31.14-.48-.48-.14c-1.47-.42-2.3-.64-3.65-.95l.1-.47L62,11.2c1.27.29,2,.49,3.43.89l.48.14.14-.48.36-1.27,0-.17.14-.49-.48-.13c-1.44-.41-2.26-.62-3.58-.93l.16-.69c1.43.32,2.27.54,3.81,1l.48.13.14-.48L67.33,8l.2-.72.14-.48-.48-.14A64.92,64.92,0,0,0,60.41,5l-.49-.09ZM21.33,7.89l-.47.16c-.92.33-1.36.49-2.26.85l-.47.18.18.47,1.16,2.95.22.56a53.32,53.32,0,0,0-5.48-2.13L14,10.87l-.19.08c-.8.39-1.2.58-2,1l-.45.23.23.44,2,3.86,1.74,3.43.23.45.45-.23c.76-.39,1.14-.57,1.92-.94l.45-.21-.21-.45-.05-.12-1.66-3.52a51.66,51.66,0,0,1,5.4,2.43l.2.1.21-.08c.67-.26,1-.38,1.67-.62l.47-.17-.17-.47L21.5,8.36l-.17-.47Zm51.53,1a5.23,5.23,0,0,0-1.94.35,4.37,4.37,0,0,0-1.6,1.07,3.86,3.86,0,0,0-.92,1.5,4.08,4.08,0,0,0-.19,1.78,4.94,4.94,0,0,0,.54,1.78A5.2,5.2,0,0,0,70,17a6.71,6.71,0,0,0,1.91,1.18,6.64,6.64,0,0,0,2.17.54h.45a5.78,5.78,0,0,0,1.57-.21,4.86,4.86,0,0,0,1.68-.86,4.21,4.21,0,0,0,1.15-1.38,4,4,0,0,0,.42-1.71A4.73,4.73,0,0,0,79,12.66a5.32,5.32,0,0,0-1.27-1.79,7.15,7.15,0,0,0-2.17-1.38,7,7,0,0,0-2.48-.57Zm1.27,7A3.1,3.1,0,0,1,73,15.67a2.59,2.59,0,0,1-1.37-1.16,1.83,1.83,0,0,1-.07-1.57,1.75,1.75,0,0,1,1.09-1.11,2,2,0,0,1,.69-.11,3.17,3.17,0,0,1,1.21.27A2.61,2.61,0,0,1,76,13.23a1.76,1.76,0,0,1,0,1.55,1.88,1.88,0,0,1-1.17,1.06,2.18,2.18,0,0,1-.63.09Z" transform="translate(0 0)"/><path class="cls-6" d="M23.76,16.24c-.67.24-1,.36-1.68.62A55.46,55.46,0,0,0,15.48,14l2.23,4.75c-.78.37-1.17.55-1.94.95l-3.72-7.29c.8-.41,1.2-.6,2-1A54.49,54.49,0,0,1,20.6,14L18.78,9.36c.89-.35,1.34-.51,2.24-.83C22.12,11.61,22.67,13.15,23.76,16.24Zm10.16-11c.31,1.83.46,2.74.76,4.58a3.92,3.92,0,0,1,0,1.72,3,3,0,0,1-.7,1.28,4,4,0,0,1-1.21.87,7.6,7.6,0,0,1-1.59.55,7,7,0,0,1-1.71.19,4.1,4.1,0,0,1-1.48-.28,3,3,0,0,1-1.18-.85A3.7,3.7,0,0,1,26,11.8c-.54-1.78-.8-2.68-1.34-4.46.92-.27,1.37-.4,2.29-.65.49,1.82.73,2.73,1.21,4.55a1.74,1.74,0,0,0,.93,1.18,2.38,2.38,0,0,0,1.64.12,2.93,2.93,0,0,0,.8-.29,2.12,2.12,0,0,0,.61-.5,1.73,1.73,0,0,0,.35-.72,2.12,2.12,0,0,0,0-.94C32.13,8.3,32,7.41,31.6,5.62,32.52,5.43,33,5.35,33.92,5.2ZM29,5.36l-1,.25c.24-.78.36-1.17.62-1.95.93-.22,1.39-.32,2.33-.51C30.15,4,29.76,4.47,29,5.36Zm17.43,6.3a9.25,9.25,0,0,1-1.64.65,8.18,8.18,0,0,1-1.67.24A6.54,6.54,0,0,1,41,12.34a4.65,4.65,0,0,1-1.64-.8,4.14,4.14,0,0,1-1.1-1.23,3.72,3.72,0,0,1-.51-1.5,3.45,3.45,0,0,1,.18-1.62,3.72,3.72,0,0,1,1-1.46,5,5,0,0,1,1.69-1.1,7.12,7.12,0,0,1,2.36-.48,6.72,6.72,0,0,1,3.43.65V6.62A8.75,8.75,0,0,0,44.77,6a5.31,5.31,0,0,0-1.59-.16,4.31,4.31,0,0,0-1.33.24,3.23,3.23,0,0,0-1,.59,2.33,2.33,0,0,0-.63.84,2.24,2.24,0,0,0,.17,2,2.53,2.53,0,0,0,.71.75,3.16,3.16,0,0,0,1,.45,4.46,4.46,0,0,0,1.24.13,5.29,5.29,0,0,0,1.39-.25c.42-.14,1-.38,1.74-.71Zm9.62,1.44a55.21,55.21,0,0,0-6.41-.64c.17-3.27.26-4.9.43-8.17.94,0,1.41.08,2.35.16l-.55,6.66c1.76.14,2.64.25,4.4.51ZM64.87,15a55.6,55.6,0,0,0-6.09-1.46c.62-3.21.93-4.82,1.54-8a63.28,63.28,0,0,1,6.73,1.61l-.41,1.45c-1.72-.5-2.59-.72-4.33-1.11l-.37,1.67c1.62.37,2.43.57,4,1l-.41,1.44c-1.57-.45-2.36-.65-4-1l-.43,1.92c1.65.37,2.47.58,4.11,1.05Zm12.61,2.23A4.4,4.4,0,0,1,76,18a5.57,5.57,0,0,1-1.84.18,6.83,6.83,0,0,1-3.79-1.59,5,5,0,0,1-1.15-1.44,4.6,4.6,0,0,1-.49-1.61A3.75,3.75,0,0,1,68.87,12a3.53,3.53,0,0,1,.81-1.32,3.84,3.84,0,0,1,1.42-.94,4.73,4.73,0,0,1,2-.31,7,7,0,0,1,4.32,1.81,4.75,4.75,0,0,1,1.15,1.62,4,4,0,0,1,.33,1.69A3.38,3.38,0,0,1,78.49,16,3.69,3.69,0,0,1,77.48,17.25ZM76.41,13a3.08,3.08,0,0,0-1.7-1.48,3,3,0,0,0-2.25-.17,2.24,2.24,0,0,0-1.4,1.4,2.39,2.39,0,0,0,.09,2,3.07,3.07,0,0,0,1.63,1.39,3,3,0,0,0,2.13.18A2.32,2.32,0,0,0,76.38,15,2.25,2.25,0,0,0,76.41,13Z" transform="translate(0 0)"/></g></svg>