<svg id="Layer_1" data-name="Layer 1" xmlns="http://www.w3.org/2000/svg" viewBox="0 0 92.9 134.38"><defs><style>.cls-1{fill:#fff;}.cls-2{fill:#008964;}.cls-3{fill:#f2be4b;}.cls-4,.cls-6{fill:none;stroke-width:0.5px;}.cls-4{stroke:#008964;}.cls-5{fill:#008a64;}.cls-6{stroke:#008a64;}</style></defs><title>scp-minde</title><g id="logo"><path id="icon-badge-back" class="cls-1" d="M46.45,121.22c14.24-4.83,26-12.88,34.19-23.41C88.44,87.66,92.9,75.15,92.9,60.65A96.64,96.64,0,0,0,91.41,42,71.52,71.52,0,0,0,87,26.71a61.28,61.28,0,0,1-12.13-1.48,49,49,0,0,1-9-3.84c-4.71-2.36-9.29-4.71-19.32-4.71S31.83,19,27.12,21.39a48.9,48.9,0,0,1-9,3.84A47.37,47.37,0,0,1,5.94,26.71,82.53,82.53,0,0,0,1.49,42,96.64,96.64,0,0,0,0,60.65c0,14.5,4.46,27.13,12.26,37.16,8.18,10.53,20,18.46,34.19,23.41Z" transform="translate(0 -0.86)"/><path id="icon-badge-v9" class="cls-2" d="M22.05,36.62a1,1,0,0,0,.37-.74v-.62a.89.89,0,0,0-.25-.49.91.91,0,0,0-.62-.25,1,1,0,0,0-.62.12l-.74.37c-.25.13-.5.37-.87.62l-.49.37,1.61,2,.74-.62A2.8,2.8,0,0,0,22.05,36.62Z" transform="translate(0 -0.86)"/><path id="icon-badge-v8" class="cls-2" d="M28.12,97.32a2.27,2.27,0,0,0-.62-.5,1.86,1.86,0,0,0-.74-.25.83.83,0,0,0-.75,0,1.07,1.07,0,0,0-.74.38,2.94,2.94,0,0,0-.62.74,3.08,3.08,0,0,0-.37,1v.87a2.81,2.81,0,0,0,.37.62,2.22,2.22,0,0,0,.62.49,1.67,1.67,0,0,0,.74.25h.75c.24-.13.49-.25.74-.37a4.12,4.12,0,0,0,.62-.75,4.62,4.62,0,0,0,.37-1v-.86C28.37,97.69,28.24,97.57,28.12,97.32Z" transform="translate(0 -0.86)"/><path id="icon-badge-v7" class="cls-2" d="M20.81,92.86l-.62-.62-.37-.37-1.36,1.48.62.62c.24.25.49.38.74.62s.37.25.62.25h.49c.13,0,.25-.12.38-.25v-.74a.73.73,0,0,0-.13-.5A1.73,1.73,0,0,0,20.81,92.86Z" transform="translate(0 -0.86)"/><path id="icon-badge-v6" class="cls-2" d="M41.25,29.44c.37,0,.74-.12,1-.12a1.81,1.81,0,0,0,.74-.25l.37-.37a.91.91,0,0,0,.13-.62.67.67,0,0,0-.25-.5.74.74,0,0,0-.62-.25c-.25,0-.37-.12-.62,0h-.87L40,27.46l.25,2.23Z" transform="translate(0 -0.86)"/><path id="icon-badge-v5" class="cls-2" d="M28.86,34.27a2.2,2.2,0,0,0,.87.62,2.49,2.49,0,0,0,1,.12,2.75,2.75,0,0,0,1.86-.86,3.73,3.73,0,0,0,.62-.75,3.69,3.69,0,0,0,.24-1.11,5.58,5.58,0,0,0-.24-1.24,2.57,2.57,0,0,0-.75-1.12,3.8,3.8,0,0,0-.86-.61,2.31,2.31,0,0,0-1-.13,2.41,2.41,0,0,0-1,.25c-.24.12-.62.37-.86.49s-.37.5-.62.75a2.26,2.26,0,0,0-.25,1,4.21,4.21,0,0,0,.25,1.24A3.31,3.31,0,0,0,28.86,34.27Z" transform="translate(0 -0.86)"/><path id="icon-badge-v4" class="cls-2" d="M35.8,100c-.13-.12-.25-.12-.5-.24s-.37-.13-.62-.25l-.86-.25L33.2,101l.74.25a2.21,2.21,0,0,0,.87.25h.62c.24,0,.24-.13.37-.25s.25-.25.25-.37v-.5C36.05,100.29,35.92,100.17,35.8,100Z" transform="translate(0 -0.86)"/><polygon id="icon-badge-v3" class="cls-2" points="69.74 96.46 67.63 94.85 68 97.45 69.74 96.46"/><path id="icon-badge-v2" class="cls-2" d="M91,65.24c.13-1.37.13-2.85.13-4.21V59.17H71.84c-.12-1.36-.49-2.73-.74-4.09-.12-.74-.25-1.36-.37-2.11H91a78.53,78.53,0,0,0-5.7-25.26c-10.9-.25-14.61-2.11-19-4.34-5.08-2.48-9.41-5.2-20.06-5.2s-15.12,2.72-20.07,5.2c-4.46,2.23-8,4.09-19,4.34A75.25,75.25,0,0,0,1.61,53H22.05c-.13.75-.25,1.37-.37,2.11-.25,1.36-.37,2.72-.5,4.09H1.49V61c0,1.36,0,2.84.12,4.2H21.06a34,34,0,0,0,.62,6.2H2.35A49.59,49.59,0,0,0,3.72,77.5H23.53a30.13,30.13,0,0,0,3.35,6.19H5.82c6.81,17,21.43,29.36,40.88,35.92,19.32-6.56,34.06-19,40.87-35.92h-21a27.28,27.28,0,0,0,3.34-6.19H89.68c.49-2,1-4.09,1.36-6.07H71.72a32.89,32.89,0,0,0,.62-6.2ZM76.3,37.49a6.61,6.61,0,0,1,3.47,2.6c.37.5.75,1.12,1.12,1.61a19.94,19.94,0,0,1,.74,2.36L80,45.29a10.34,10.34,0,0,0-.75-3,4.42,4.42,0,0,0-.61-1,4.7,4.7,0,0,0-2-1.49,1.76,1.76,0,0,0-1.11,0,4.77,4.77,0,0,0-1.12.5,2.38,2.38,0,0,0-1.11,2c0,1.12,1.11,2.85,1.86,3.72l1.24-.87-.87-1.24,1.24-.87L79,46.53l-3,2.23c-.38-.25-1.24-1.11-1.86-1.61a6.38,6.38,0,0,1-1.49-1.73,6.35,6.35,0,0,1-1.61-4,3.69,3.69,0,0,1,1.73-3.09A3.41,3.41,0,0,1,76.3,37.49Zm-10-7.68,2.23,6.94,2.85-4.34,2.1,1.24-4.58,7.18L67,39.6l-2.1-6.82L62.8,37.37l-2.11-.87,3.47-7.68Zm-5.45-2.23-2.35,8.05L56.11,35l2.36-8ZM47.19,25.1l9.05,1L56,27.83l-3.34-.37L51.9,34l-2.48-.25.75-6.56-3.35-.37Zm-5.2.5a7.2,7.2,0,0,1,1.61,0,3.5,3.5,0,0,1,1.24.25,2.65,2.65,0,0,1,1,.62,1.49,1.49,0,0,1,.37,1.11,2.63,2.63,0,0,1-.37,1.49,3.18,3.18,0,0,1-1.36,1.11,8.06,8.06,0,0,1,3,3.47l-2.85.12A9,9,0,0,0,42,30.93l-1.36.12.25,3.1-2.48.24L37.66,26ZM25.76,30.8A5.84,5.84,0,0,1,29,28.2a6.1,6.1,0,0,1,4.09-.49,4.14,4.14,0,0,1,2.48,5.82,5.84,5.84,0,0,1-3.22,2.6,6.16,6.16,0,0,1-4.09.49,4.05,4.05,0,0,1-2.6-2.35A3.46,3.46,0,0,1,25.76,30.8Zm-7.8,16a10.17,10.17,0,0,1-1.49,1.73,8.35,8.35,0,0,1-1.11,1l-1.73-1.12a14.74,14.74,0,0,0,1.73-1.11,4.79,4.79,0,0,0,1.36-1.37,1.45,1.45,0,0,0,.37-.49c.13-.25.25-.37.25-.62a.91.91,0,0,0,.13-.5c0-.12-.13-.24-.25-.37a.57.57,0,0,0-.62,0,2.72,2.72,0,0,0-.75.5l-.86.86-.87.87a4.45,4.45,0,0,1-1.86,1,2,2,0,0,1-1.48-.37,2.55,2.55,0,0,1-.87-2.11,7.37,7.37,0,0,1,1.36-3.09,7.73,7.73,0,0,1,1.36-1.49,8.94,8.94,0,0,1,1.12-1L15,40.34a8.33,8.33,0,0,0-2.48,2.23c-.12.12-.25.37-.37.49s-.25.38-.25.62a1,1,0,0,0-.12.5c0,.12.12.25.25.37a.55.55,0,0,0,.61,0,9.45,9.45,0,0,0,1-.74l.74-.75a5.66,5.66,0,0,1,.87-.74A3.24,3.24,0,0,1,17,41.45a2.21,2.21,0,0,1,1.49.38,2.31,2.31,0,0,1,.86,2.23A7.35,7.35,0,0,1,18,46.78Zm3.35-3.84L16,36.5l3.34-2.85c.5-.37,1-.74,1.37-1a5.3,5.3,0,0,1,1.23-.5,2.17,2.17,0,0,1,1.24,0,2,2,0,0,1,1,.75,2.44,2.44,0,0,1,.5,1,1.76,1.76,0,0,1,0,1.11A3.8,3.8,0,0,1,24,36.5a5.91,5.91,0,0,1-1.24,1.36L21.43,39l1.73,2.1Zm-.25,53.51a4.21,4.21,0,0,1-1.24-.25,3.72,3.72,0,0,1-1.24-.86l-1-1.12L16.1,95.83l-1.48-1.36,4.58-4.83L21.8,92c.37.37.62.75.87,1a2.81,2.81,0,0,1,.49,2,1.23,1.23,0,0,1-.49.87,2.72,2.72,0,0,1-.75.5C21.68,96.33,21.43,96.45,21.06,96.45Zm6.69,6.07a5.53,5.53,0,0,1-3.22-.74,5,5,0,0,1-2.23-2.35,3.05,3.05,0,0,1,.24-2.73,2.73,2.73,0,0,1,2.23-1.61,4.94,4.94,0,0,1,3.1.74,5.06,5.06,0,0,1,2.23,2.36,3.34,3.34,0,0,1-.25,2.85A2.7,2.7,0,0,1,27.75,102.52Zm10.4-1.11a1.3,1.3,0,0,1-.74,1,2.56,2.56,0,0,1-1.36.37,9.06,9.06,0,0,1,1.48,3.47l-2.35-.75a7.71,7.71,0,0,0-1.24-3l-1-.37-.74,2.35-2-.62,2.11-6.31,3.34,1.11a2.38,2.38,0,0,1,1.12.49,2.42,2.42,0,0,1,.87.62,2.67,2.67,0,0,1,.49.75A1.08,1.08,0,0,1,38.15,101.41Zm7.8,0-2.72-.25-.5,5.32L41,106.36l.5-5.33-2.73-.24.12-1.37,7.19.62ZM54,105.62a4.14,4.14,0,0,1-2.61.86,4.94,4.94,0,0,1-2.84-.37,2.41,2.41,0,0,1-1.12-1.86l-.37-4.33,2-.12.37,4.08a1.09,1.09,0,0,0,.5,1c.24.25.74.25,1.23.25a2.94,2.94,0,0,0,1.24-.37,1.09,1.09,0,0,0,.25-1.11l-.37-4.22,2.11-.24.37,4.33A2.18,2.18,0,0,1,54,105.62Zm9.53-2.11c-.49.25-1.11.5-1.73.74a6.6,6.6,0,0,1-3.47.13,2.9,2.9,0,0,1-1.86-2.1,3.47,3.47,0,0,1,.37-2.73,5.17,5.17,0,0,1,3-1.86l1.48-.37a3.88,3.88,0,0,1,1.73,0l.5,1.48a12.63,12.63,0,0,0-2.11-.24c-.24,0-.62.12-.86.12a2.85,2.85,0,0,0-2,2,3.15,3.15,0,0,0,.12,1c.25.75.62,1.24,1.24,1.37a4.51,4.51,0,0,0,3.1-.38l-.37-1.23-1.12.37-.37-1.24,3-.87,1,3.1A6,6,0,0,0,63.54,103.51ZM72,90.38l3.59,4,2.85-2.61.86,1-4.21,4-4.58-5ZM67.88,93.6l5.94,4.21L72,98.93l-1.24-.87-2.6,1.49.12,1.48-1.86,1.12-.74-7.31Zm-3.47-9.54a36.56,36.56,0,0,1-17.71,12h-.37a36.54,36.54,0,0,1-17.72-12A30.58,30.58,0,0,1,22.3,64.87,54.39,54.39,0,0,1,23,55.45a39.33,39.33,0,0,1,2.48-8.3l.12-.37A28.65,28.65,0,0,0,32.21,46a25.38,25.38,0,0,0,4.21-1.74,19.12,19.12,0,0,1,10.15-2.47A19.17,19.17,0,0,1,56.73,44.3,17.5,17.5,0,0,0,60.94,46a28.65,28.65,0,0,0,6.57.74l.12.37a45.76,45.76,0,0,1,2.48,8.3,55.4,55.4,0,0,1,.74,9.42A31.91,31.91,0,0,1,64.41,84.06Z" transform="translate(0 -0.86)"/><path id="icon-badge-v1" class="cls-2" d="M66.39,48a28,28,0,0,1-5.94-.74A20.64,20.64,0,0,1,56,45.42a17.49,17.49,0,0,0-9.54-2.36,17.15,17.15,0,0,0-9.54,2.36,20.43,20.43,0,0,1-4.46,1.86,30.41,30.41,0,0,1-5.94.74,40.2,40.2,0,0,0-2.23,7.56,52.72,52.72,0,0,0-.75,9.29A30,30,0,0,0,29.6,83.32,34.7,34.7,0,0,0,46.45,94.84c7.06-2.48,12.88-6.32,16.85-11.52a29.72,29.72,0,0,0,6.07-18.45,52.72,52.72,0,0,0-.75-9.29A48.73,48.73,0,0,0,66.39,48Z" transform="translate(0 -0.86)"/><g id="icon-badge-lion"><path id="icon-badge-l4" class="cls-3" d="M61.31,56.69a1.1,1.1,0,0,0,.75.25,3.93,3.93,0,0,0,1.36-.25,1.85,1.85,0,0,1,.75-.25,1.78,1.78,0,0,0-.75.13c-.49.12-1.61,0-1.61-.62h.13a3.73,3.73,0,0,0,1.23.24A1.82,1.82,0,0,0,64,56a1.28,1.28,0,0,1,.74-.25c-.37-.25-.74,0-1.23,0a1.72,1.72,0,0,1-.87-.25c-.12-.12-.25-.12-.49-.25A4.61,4.61,0,0,0,61,55a2.37,2.37,0,0,0-.87.24,1.33,1.33,0,0,0-.5.62h0a3,3,0,0,0-2.11.5A4.09,4.09,0,0,0,56,58.05a5.19,5.19,0,0,0-.37,3.1,9.72,9.72,0,0,0,1.11,3c1,1.86,1.61,3.1,2,4a5.21,5.21,0,0,1,.5,2.23,2.48,2.48,0,0,1-.38,1.36,2,2,0,0,1-1.11.87,2.12,2.12,0,0,1-1.48.12,3.7,3.7,0,0,1-1.86-1.11,10.26,10.26,0,0,1-1.49-2.48A6.27,6.27,0,0,1,52,66.72a27.7,27.7,0,0,1-.12-3.34v-.5a2.08,2.08,0,0,0-.74,1.62H51a1.91,1.91,0,0,1-.49-1.12,3.64,3.64,0,0,1,.12-1.61,6.1,6.1,0,0,0,.38-2,1.92,1.92,0,0,0-.62-1.61v-.13a1.55,1.55,0,0,1,.86.5,2.17,2.17,0,0,1,.62.86,6.34,6.34,0,0,1,.25.87c.25,1,.49,2,1.61,2.11a3.92,3.92,0,0,1-.62-2.73V58.18a3.63,3.63,0,0,0-.62-1.37,1.78,1.78,0,0,0-1.24-.49v-.13c.12-.12.25-.24.25-.37a1,1,0,0,1,.62-.24,1.15,1.15,0,0,1,.62.12c.12.12.24.12.24.25a1.89,1.89,0,0,1,.5.86c.25.62.62,1.24,1.24,1.37a2,2,0,0,1-.25-1.24,4,4,0,0,0-.62-2.11A2.89,2.89,0,0,0,53,54a2.07,2.07,0,0,0-1.23-.24s-.13,0,0-.13A1.54,1.54,0,0,1,52.4,53a1.58,1.58,0,0,1,.74-.12,2.26,2.26,0,0,1,1.24.87c.25.24.37.62.74.74a1.83,1.83,0,0,1-.24-.74,2.31,2.31,0,0,1-.13-1,1.52,1.52,0,0,0-.49-1,2.23,2.23,0,0,0-1.24-.5,1.15,1.15,0,0,0-.62.12,1.9,1.9,0,0,0-.75.25h-.12a1.6,1.6,0,0,1,.12-.74L52,50.5c.12-.13.37-.13.62-.13a4,4,0,0,1,1.61.37,1,1,0,0,0-.25-.62.9.9,0,0,0-.74-.37,6.29,6.29,0,0,0-1.49-.12,4.78,4.78,0,0,1-1.36-.12v-.13a4.64,4.64,0,0,0,1.61-1h0a8,8,0,0,1-2.61-.25,3,3,0,0,0-3,.37h0c-.37-.12-.74-.12-1.11-.24h-.87c-.25,0-.49.12-.49.24s-.13.13-.13.25,0,.13.13.25a1.59,1.59,0,0,0,.49.37c.25,0,.62.13,1,.13A6.82,6.82,0,0,0,47,49.38v.13c-.13.24-.62.37-1,.61a8,8,0,0,0-1,.38h-.13a1.28,1.28,0,0,0-1.11-.62,10,10,0,0,0-2.23.37l-.25.37c-.13.12-.13.25,0,.25s.25.12.62.12h.24v.13c-.24,0-.37.12-.49.37a.63.63,0,0,0,0,.74,1.73,1.73,0,0,0,.49.37,3.43,3.43,0,0,1,2.73-.86,1.33,1.33,0,0,1,.74.24c.25.13.37.25.62.37a.83.83,0,0,1,.25.87c-.12.5-.25.87-.87,1a6.88,6.88,0,0,1-2.72-.12A1.08,1.08,0,0,0,43,55a2.64,2.64,0,0,0,1.12.86,6.37,6.37,0,0,0,1-.74,3.34,3.34,0,0,1,.86-.25c.13,0,.25,0,.25.13s.13.12.13.24v.25a1,1,0,0,1-.25.5,5.54,5.54,0,0,1-1.74.86c-.24.13-.37.13-.62.25a14.92,14.92,0,0,0-1.36.62,1.24,1.24,0,0,0-.62.74h.87a6.34,6.34,0,0,0,2-.24h0c-.12.62-1.11,1-2.23,1.36a7.18,7.18,0,0,0-1.48.62,3.71,3.71,0,0,0-1.12.87,4.59,4.59,0,0,0-.62,1.36,2.32,2.32,0,0,0,.87-.13,4.9,4.9,0,0,0,1.36-.74,1.86,1.86,0,0,1,.74-.25,3.64,3.64,0,0,0,1.74-.86H44a8.81,8.81,0,0,1-.37,1c-.25.24-.49.62-.74.86a3.43,3.43,0,0,1-1.36.5.48.48,0,0,0-.38.12,5.06,5.06,0,0,1-1.23.25,1.08,1.08,0,0,1-.75-.25,10.85,10.85,0,0,0-2,1.12c-.25.12-.37.24-.62.37a4.07,4.07,0,0,1-1.49.74,3.38,3.38,0,0,1-1.61.37,3,3,0,0,1-1.85-.61,7.25,7.25,0,0,0-1.49-.62.67.67,0,0,0-.5.24,1,1,0,0,0-.24.62H30a.91.91,0,0,1,.62.13,1.77,1.77,0,0,1,.37.49v.13a4.69,4.69,0,0,0-1.74.24c-.49.25-.86.62-.49,1.49a.46.46,0,0,1,.12-.25c0-.12.12-.12.25-.25s.37-.12.49-.12c.62-.25.87-.37,1.37.25v.12h-.25a1.52,1.52,0,0,0-1,.62,1.33,1.33,0,0,0-.25,1v.25A.8.8,0,0,1,30.1,69a.46.46,0,0,0,.25-.12c.12-.13.25-.13.25-.25a3.76,3.76,0,0,1,1.73-.74c.25-.13.37-.13.62-.25a5.74,5.74,0,0,1,1.36-.37,4.21,4.21,0,0,1,1.24.25c.37.12.87.24,1.36.37a1.22,1.22,0,0,0-.49-.62,2.08,2.08,0,0,0-.87-.5V66.6a1.2,1.2,0,0,1,1.24-.25,6.23,6.23,0,0,1,1.36.5c.62.24,1,.62,1.49.62a2.72,2.72,0,0,0,1.61-.38A2.33,2.33,0,0,1,40,66.35a1.78,1.78,0,0,0-1.61-.62v-.12a1.19,1.19,0,0,1,.62-.5,1.89,1.89,0,0,1,.87-.12,3.33,3.33,0,0,1,1.48.62,5.7,5.7,0,0,0,2.73,1v.12a2.65,2.65,0,0,1-1,.62,3.9,3.9,0,0,0,.74,1,8.27,8.27,0,0,0,1.24,1,11.79,11.79,0,0,0,1.36.62c.5.13,1,.25,1.73.38a3.21,3.21,0,0,1,1.61.62c.38.24.38.49.25.74.25.13.13.49,0,.87a2.78,2.78,0,0,1-.49.74,5.16,5.16,0,0,0-.5.87,4.22,4.22,0,0,0-.37,2.22v.13c0,.25.25.49.5.86a4.73,4.73,0,0,0,.74.87l.12.13A3,3,0,0,1,51,81a2.34,2.34,0,0,1,1.37-.5.91.91,0,0,1,.74.25h0a2.47,2.47,0,0,1,.37.62A3.75,3.75,0,0,1,53.39,83a5.11,5.11,0,0,1-.87,1.36,9.1,9.1,0,0,1-1.12,1.12,4.22,4.22,0,0,1-1.23,0c-.62-.13-1.24-.25-1.61.24-.13.13-.13.25-.25.38v.62a2.34,2.34,0,0,0,.87-.13c.61-.12,1.23-.25,1.48.25h0l-.37.37c-.13.12-.25.25-.37.37a5.69,5.69,0,0,0-.38,1.12v.12H50a1.78,1.78,0,0,0,1.36-.37l.37-.37c.25-.25.5-.62.75-.62h0c0,.25,0,.37.12.49A1.22,1.22,0,0,1,52.52,89a2.56,2.56,0,0,0,1.36-.37c.25-.25.5-.5.5-.75s-.13-.49-.13-.74a2,2,0,0,1-.12-1.24,6.75,6.75,0,0,1,.37-1,1.43,1.43,0,0,1,.62-.62,2.78,2.78,0,0,0,1-.62,2.3,2.3,0,0,0,.62-.87c-.13,0-.37.12-.49.12s-.5,0-.62.13h-.13a.76.76,0,0,1-.12-.49,2,2,0,0,1,.24-.62h0a2.75,2.75,0,0,1,.62-.5,1.51,1.51,0,0,0,.5-.37H57a4.94,4.94,0,0,0,1.73-1,1.58,1.58,0,0,0,.5-.87,1.16,1.16,0,0,0-.25-.86,3,3,0,0,1-1.61,1.24c-.37.12-.74.24-.87.49h-.12a2.21,2.21,0,0,1,.12-1.24,3.77,3.77,0,0,1,1-1c.12,0,.24-.12.37-.25,1.11-.62,2.1-1.11,2-2.47a3.65,3.65,0,0,1-1.11.62H58a1.73,1.73,0,0,1-.49-.38,1.38,1.38,0,0,1-.37-1v-.12a5.12,5.12,0,0,0,2.35-.12A2.68,2.68,0,0,0,60.69,73c-.24.13-.37.25-.61.37s-.5,0-.75-.12v-.13a3.18,3.18,0,0,0,1.49-1.36,5.47,5.47,0,0,0,.62-2,3.31,3.31,0,0,0-.13-1.12,5.26,5.26,0,0,0-.49-1.23c-.25-.38-.37-.75-.62-1.12s-.5-.87-.74-1.24c-.38-.62-.87-1.36-1.24-2a6.85,6.85,0,0,1-.87-2,5.17,5.17,0,0,1-.25-2.36A3.3,3.3,0,0,1,58,56.94a3.09,3.09,0,0,1,1-.75,1.75,1.75,0,0,1,1.12-.12h0a1.3,1.3,0,0,0,0,1,1.19,1.19,0,0,0,1.11.87,4.48,4.48,0,0,0,2.23-.38c.37-.12.62-.24,1-.37a2.74,2.74,0,0,0-1,0c-.25,0-.5.13-.74,0s-.5-.24-.5-.49c-1,.12-1,.12-.87,0ZM47.69,62.26a2,2,0,0,0,.87-1.11,2.6,2.6,0,0,0,0-1.36s.12-.13.12,0a3.21,3.21,0,0,1,.5,2.23,2.62,2.62,0,0,1-1.37,1.48,1.81,1.81,0,0,1-1.11.25,3.41,3.41,0,0,0-1.61.62H45c.25-.74,1-1.11,1.74-1.61A6.55,6.55,0,0,0,47.69,62.26ZM41.74,63A3.11,3.11,0,0,1,43,62.26a7.83,7.83,0,0,1,.87-.37,3.21,3.21,0,0,0,2.23-2h.12a2.38,2.38,0,0,1,0,1.86A2.21,2.21,0,0,1,44.84,63a14.22,14.22,0,0,1-1.49.38,9.29,9.29,0,0,0-1.61.37h-.12C41.37,63.38,41.5,63.25,41.74,63Zm.75,2.23c-.38-.25-.62-.5-1-.5v-.12c1-.5,1.73,0,2.47.49a2.57,2.57,0,0,0,1,.5v.12A2.12,2.12,0,0,1,42.49,65.24Zm1,2.35h0a2.26,2.26,0,0,1,1,.25,3.44,3.44,0,0,0,1.11,0,6.45,6.45,0,0,0,1.49-.25,4.31,4.31,0,0,0,1.36-.5.13.13,0,0,1,.13.13,2.25,2.25,0,0,1-1,.87,3.37,3.37,0,0,1-1.48.37,5.34,5.34,0,0,1-1.36-.25A2.24,2.24,0,0,1,43.48,67.59Zm4.33,2.11a2.43,2.43,0,0,1-1.36-.25,2.78,2.78,0,0,1-1-.62V68.7a6.51,6.51,0,0,0,2.23.13,8.87,8.87,0,0,0,2.48-.37s.12.12,0,.12a.27.27,0,0,0-.25.25A3.05,3.05,0,0,1,47.81,69.7Zm2.73,9.16h0c-.37-.62-.62-1.11-.87-1.48a3.19,3.19,0,0,1-.62-1.49,2.92,2.92,0,0,1,.25-1.37A2.54,2.54,0,0,1,50,73.29h.13c-.13.37-.13.61-.25,1v1a3.1,3.1,0,0,0,.5,1.61A10.43,10.43,0,0,1,50.54,78.86Z" transform="translate(0 -0.86)"/><path id="icon-badge-l3" class="cls-3" d="M31.09,55.45a8.84,8.84,0,0,0,1,.25,2.38,2.38,0,0,1,1.12.49c.24.13.37.25.37.5a.58.58,0,0,1,0,.62,1.09,1.09,0,0,1-.37.74,4.14,4.14,0,0,0,1.23-.25,3,3,0,0,1,1.37-.12v.12a2.72,2.72,0,0,0-.75.5,6.45,6.45,0,0,1-1.73,1.11,3.57,3.57,0,0,0,1,.25,2,2,0,0,0,1.12-.37.42.42,0,0,1,.24-.12c.5-.25,1.24-.87,1.86-.37v.12c-.62,0-.87.37-1.24.87a2.92,2.92,0,0,1-1.11,1,4,4,0,0,0,2.48-.37,4.86,4.86,0,0,0,1.48-1.61,4.91,4.91,0,0,1,1-1.12l.25-.25a4.35,4.35,0,0,0-1.24-.12,4.35,4.35,0,0,1-1.24-.12c-.49-.13-.86-.25-1.24-.38s-.74-.37-1.11-.49a4.4,4.4,0,0,1-1.36-1.24A4.51,4.51,0,0,1,33.44,54a.45.45,0,0,1-.12-.37c-.37-.86-.62-1.61-1.86-1.48A3.19,3.19,0,0,1,32,53a2.39,2.39,0,0,1,.25.87s-.13.12-.13,0A3.18,3.18,0,0,0,31,52.48c-.25-.13-.37-.25-.62-.25a1.15,1.15,0,0,0-.62.12,1.51,1.51,0,0,0-.62.62c.12,0,.25.13.37.13l.12.12c.25.13.38.25.62.37s.25.37.38.5v.12A1.22,1.22,0,0,1,30,54a1.28,1.28,0,0,0-1.24-.24C29.23,55.2,29.73,55.33,31.09,55.45Z" transform="translate(0 -0.86)"/><path id="icon-badge-l2" class="cls-3" d="M46.7,74.9a10.41,10.41,0,0,1,1.11-2.35,1.47,1.47,0,0,0-1.24.12c-.37.25-.86.62-1.48,1.12H45a8.19,8.19,0,0,1,.75-1.49c.24-.37.61-.49,1-.74a6.25,6.25,0,0,0-1.49.12,4.65,4.65,0,0,0-2,.87H43.1a1.24,1.24,0,0,1,.62-1c.25-.25.75-.38,1-.62a2.57,2.57,0,0,0,.62-.38c.13-.12.25-.12.38-.24a4.75,4.75,0,0,0-1.24.12c-.37,0-.75.13-1.12.13h-.62a3.5,3.5,0,0,0-1.11.12,3,3,0,0,0-1.36.74,2.25,2.25,0,0,0-.38,1.37,2.59,2.59,0,0,0,.5,1.36A3.61,3.61,0,0,1,41,75.9a1.5,1.5,0,0,1-1,1.36,4.21,4.21,0,0,1-1.74.25h-1a1.81,1.81,0,0,1-.74-.25c-.25-.12-.37-.25-.62-.25a2.43,2.43,0,0,0-1-.37,1.86,1.86,0,0,0-1.12.25,3.11,3.11,0,0,0-.61.74h.61a1.74,1.74,0,0,1,1.12,0c.25.13.37.25.37.5v.12h-.62a2.6,2.6,0,0,0-1.11.13,1.17,1.17,0,0,0-.62.49,1.67,1.67,0,0,0-.25.75V80c0,.12.12.24.12.37a2.16,2.16,0,0,1,2.36-1v.12a3.11,3.11,0,0,0-1,.87,3,3,0,0,0-.5.87,3.24,3.24,0,0,1,1.12,0,.94.94,0,0,0,1-.13c.12-.12.24-.25.24-.37l.75-.75c.12-.12.24-.24.37-.24s.25-.13.37-.13H40a4,4,0,0,1,1.11.37.62.62,0,0,0-.25-.49,4.92,4.92,0,0,0-.86-.62v-.12a3.39,3.39,0,0,1,2.48.12c1,.37,2,.62,2.84-.12a1.22,1.22,0,0,1-.86-.5,2.75,2.75,0,0,0-1.61-.62v-.12a1.43,1.43,0,0,1,.62-.62,2.22,2.22,0,0,1,1-.25,2.84,2.84,0,0,1,1.11.25,5.48,5.48,0,0,0,1.36.24A3.19,3.19,0,0,1,46.7,74.9Z" transform="translate(0 -0.86)"/><path id="icon-badge-l1" class="cls-3" d="M38,53.47a2.45,2.45,0,0,0,1.36.37A4.85,4.85,0,0,0,41,53.35a6,6,0,0,1,3.1-.75,6.34,6.34,0,0,0-3.47.25,5.77,5.77,0,0,1-1.24.25A3.3,3.3,0,0,1,38.15,53a1.84,1.84,0,0,1-.74-.37C37.41,53,37.66,53.22,38,53.47Z" transform="translate(0 -0.86)"/></g><path class="cls-2" d="M32.39,124.76c.62.21.94.31,1.57.49-.87,3-1.3,4.44-2.16,7.41-.85-.25-1.27-.38-2.11-.67.62-1.82.93-2.73,1.54-4.56-1.13.64-1.72.94-2.93,1.51l-.3-.12c-.5-1.24-.72-1.86-1.12-3.1-.8,1.76-1.19,2.63-2,4.39-.82-.37-1.22-.56-2-1l3.47-6.89c.6.3.9.44,1.5.72.42,1.45.66,2.17,1.21,3.62C30.44,125.91,31.1,125.54,32.39,124.76Zm4.79,9.16c-.86-.16-1.29-.24-2.15-.44.67-3,1-4.51,1.68-7.52.73.16,1.1.23,1.83.37C38,129.36,37.73,130.88,37.18,133.92Zm12.16.74c-.74,0-1.11.06-1.84.07a40.52,40.52,0,0,1-4.49-5c-.14,2-.22,2.95-.36,4.92-.87-.06-1.31-.1-2.18-.2.35-3.06.53-4.6.88-7.66.68.08,1,.11,1.71.16a37.93,37.93,0,0,0,4,4.84c0-1.89,0-2.83-.06-4.71.74,0,1.12,0,1.86-.07C49.08,130,49.17,131.58,49.34,134.66Zm5.6-8.44a5.71,5.71,0,0,1,1.82-.09,4.22,4.22,0,0,1,1.49.49,3.75,3.75,0,0,1,1.13,1,4.11,4.11,0,0,1,.69,1.37,3.89,3.89,0,0,1,.15,1.57,3.06,3.06,0,0,1-.56,1.42,4.21,4.21,0,0,1-1.35,1.15,7,7,0,0,1-2.15.75c-1.43.27-2.15.37-3.59.54l-.9-7.66C53,126.57,53.64,126.47,54.94,126.22Zm-.42,6.47,1.37-.24a3.53,3.53,0,0,0,1.24-.46,2.19,2.19,0,0,0,.72-.74,2.13,2.13,0,0,0,.26-.87,2.93,2.93,0,0,0-.07-.89,3.33,3.33,0,0,0-.37-.9A2.17,2.17,0,0,0,57,128a2,2,0,0,0-.9-.34,3.36,3.36,0,0,0-1.17,0c-.48.09-.73.14-1.22.21C54.05,129.79,54.21,130.76,54.52,132.69ZM70,129.15A45.36,45.36,0,0,1,64,131.74l-2.58-7.28a36.27,36.27,0,0,0,5.11-2.17l.63,1.27a36.54,36.54,0,0,1-3.44,1.55l.61,1.5c1.37-.56,2.06-.86,3.4-1.53l.62,1.27c-1.38.68-2.08,1-3.49,1.57.27.69.41,1,.69,1.72,1.57-.64,2.35-1,3.88-1.76Z" transform="translate(0 -0.86)"/><path class="cls-4" d="M32.39,124.76c.62.21.94.31,1.57.49-.87,3-1.3,4.44-2.16,7.41-.85-.25-1.27-.38-2.11-.67.62-1.82.93-2.73,1.54-4.56-1.13.64-1.72.94-2.93,1.51l-.3-.12c-.5-1.24-.72-1.86-1.12-3.1-.8,1.76-1.19,2.63-2,4.39-.82-.37-1.22-.56-2-1l3.47-6.89c.6.3.9.44,1.5.72.42,1.45.66,2.17,1.21,3.62C30.44,125.91,31.1,125.54,32.39,124.76Zm4.79,9.16c-.86-.16-1.29-.24-2.15-.44.67-3,1-4.51,1.68-7.52.73.16,1.1.23,1.83.37C38,129.36,37.73,130.88,37.18,133.92Zm12.16.74c-.74,0-1.11.06-1.84.07a40.52,40.52,0,0,1-4.49-5c-.14,2-.22,2.95-.36,4.92-.87-.06-1.31-.1-2.18-.2.35-3.06.53-4.6.88-7.66.68.08,1,.11,1.71.16a37.93,37.93,0,0,0,4,4.84c0-1.89,0-2.83-.06-4.71.74,0,1.12,0,1.86-.07C49.08,130,49.17,131.58,49.34,134.66Zm5.6-8.44a5.71,5.71,0,0,1,1.82-.09,4.22,4.22,0,0,1,1.49.49,3.75,3.75,0,0,1,1.13,1,4.11,4.11,0,0,1,.69,1.37,3.89,3.89,0,0,1,.15,1.57,3.06,3.06,0,0,1-.56,1.42,4.21,4.21,0,0,1-1.35,1.15,7,7,0,0,1-2.15.75c-1.43.27-2.15.37-3.59.54l-.9-7.66C53,126.57,53.64,126.47,54.94,126.22Zm-.42,6.47,1.37-.24a3.53,3.53,0,0,0,1.24-.46,2.19,2.19,0,0,0,.72-.74,2.13,2.13,0,0,0,.26-.87,2.93,2.93,0,0,0-.07-.89,3.33,3.33,0,0,0-.37-.9A2.17,2.17,0,0,0,57,128a2,2,0,0,0-.9-.34,3.36,3.36,0,0,0-1.17,0c-.48.09-.73.14-1.22.21C54.05,129.79,54.21,130.76,54.52,132.69ZM70,129.15A45.36,45.36,0,0,1,64,131.74l-2.58-7.28a36.27,36.27,0,0,0,5.11-2.17l.63,1.27a36.54,36.54,0,0,1-3.44,1.55l.61,1.5c1.37-.56,2.06-.86,3.4-1.53l.62,1.27c-1.38.68-2.08,1-3.49,1.57.27.69.41,1,.69,1.72,1.57-.64,2.35-1,3.88-1.76Z" transform="translate(0 -0.86)"/><path class="cls-4" d="M32.39,124.76c.62.21.94.31,1.57.49-.87,3-1.3,4.44-2.16,7.41-.85-.25-1.27-.38-2.11-.67.62-1.82.93-2.73,1.54-4.56-1.13.64-1.72.94-2.93,1.51l-.3-.12c-.5-1.24-.72-1.86-1.12-3.1-.8,1.76-1.19,2.63-2,4.39-.82-.37-1.22-.56-2-1l3.47-6.89c.6.3.9.44,1.5.72.42,1.45.66,2.17,1.21,3.62C30.44,125.91,31.1,125.54,32.39,124.76Zm4.79,9.16c-.86-.16-1.29-.24-2.15-.44.67-3,1-4.51,1.68-7.52.73.16,1.1.23,1.83.37C38,129.36,37.73,130.88,37.18,133.92Zm12.16.74c-.74,0-1.11.06-1.84.07a40.52,40.52,0,0,1-4.49-5c-.14,2-.22,2.95-.36,4.92-.87-.06-1.31-.1-2.18-.2.35-3.06.53-4.6.88-7.66.68.08,1,.11,1.71.16a37.93,37.93,0,0,0,4,4.84c0-1.89,0-2.83-.06-4.71.74,0,1.12,0,1.86-.07C49.08,130,49.17,131.58,49.34,134.66Zm5.6-8.44a5.71,5.71,0,0,1,1.82-.09,4.22,4.22,0,0,1,1.49.49,3.75,3.75,0,0,1,1.13,1,4.11,4.11,0,0,1,.69,1.37,3.89,3.89,0,0,1,.15,1.57,3.06,3.06,0,0,1-.56,1.42,4.21,4.21,0,0,1-1.35,1.15,7,7,0,0,1-2.15.75c-1.43.27-2.15.37-3.59.54l-.9-7.66C53,126.57,53.64,126.47,54.94,126.22Zm-.42,6.47,1.37-.24a3.53,3.53,0,0,0,1.24-.46,2.19,2.19,0,0,0,.72-.74,2.13,2.13,0,0,0,.26-.87,2.93,2.93,0,0,0-.07-.89,3.33,3.33,0,0,0-.37-.9A2.17,2.17,0,0,0,57,128a2,2,0,0,0-.9-.34,3.36,3.36,0,0,0-1.17,0c-.48.09-.73.14-1.22.21C54.05,129.79,54.21,130.76,54.52,132.69ZM70,129.15A45.36,45.36,0,0,1,64,131.74l-2.58-7.28a36.27,36.27,0,0,0,5.11-2.17l.63,1.27a36.54,36.54,0,0,1-3.44,1.55l.61,1.5c1.37-.56,2.06-.86,3.4-1.53l.62,1.27c-1.38.68-2.08,1-3.49,1.57.27.69.41,1,.69,1.72,1.57-.64,2.35-1,3.88-1.76Z" transform="translate(0 -0.86)"/><path class="cls-2" d="M26.34,122.26c.6.3.9.44,1.5.72.42,1.45.66,2.17,1.21,3.62,1.39-.69,2.05-1.06,3.34-1.84.62.21.94.31,1.57.49-.87,3-1.3,4.44-2.16,7.41-.85-.25-1.27-.38-2.11-.67.62-1.82.93-2.73,1.54-4.56-1.13.64-1.72.94-2.93,1.51l-.3-.12c-.5-1.24-.72-1.86-1.12-3.1-.8,1.76-1.19,2.63-2,4.39-.82-.37-1.22-.56-2-1l3.47-6.89m40.15,0,.63,1.27a36.54,36.54,0,0,1-3.44,1.55c.25.6.37.9.61,1.5,1.37-.56,2.06-.86,3.4-1.53l.62,1.27c-1.38.68-2.08,1-3.49,1.57.27.69.41,1,.69,1.72,1.57-.64,2.35-1,3.88-1.76.25.51.38.76.64,1.27A45.36,45.36,0,0,1,64,131.74l-2.58-7.28a36.27,36.27,0,0,0,5.11-2.17M36.71,126c.73.16,1.1.23,1.83.37-.54,3-.81,4.55-1.36,7.59-.86-.16-1.29-.24-2.15-.44.67-3,1-4.51,1.68-7.52m19.43.13c.21,0,.42,0,.62,0a4.22,4.22,0,0,1,1.49.49,3.75,3.75,0,0,1,1.13,1,4.11,4.11,0,0,1,.69,1.37,3.89,3.89,0,0,1,.15,1.57,3.06,3.06,0,0,1-.56,1.42,4.21,4.21,0,0,1-1.35,1.15,7,7,0,0,1-2.15.75c-1.43.27-2.15.37-3.59.54l-.9-7.66c1.31-.15,2-.25,3.27-.5a6.46,6.46,0,0,1,1.2-.13m-1.62,6.6,1.37-.24a3.53,3.53,0,0,0,1.24-.46,2.19,2.19,0,0,0,.72-.74,2.13,2.13,0,0,0,.26-.87,2.93,2.93,0,0,0-.07-.89,3.33,3.33,0,0,0-.37-.9A2.17,2.17,0,0,0,57,128a2,2,0,0,0-.9-.34,2.73,2.73,0,0,0-.41,0,4.13,4.13,0,0,0-.76.07c-.48.09-.73.14-1.22.21.31,1.93.47,2.9.78,4.83m-13.17-6c.68.08,1,.11,1.71.16a37.93,37.93,0,0,0,4,4.84c0-1.89,0-2.83-.06-4.71.74,0,1.12,0,1.86-.07.17,3.08.26,4.62.43,7.7-.74,0-1.11.06-1.84.07a40.52,40.52,0,0,1-4.49-5c-.14,2-.22,2.95-.36,4.92-.87-.06-1.31-.1-2.18-.2.35-3.06.53-4.6.88-7.66m-15.23-5.15-.23.44-2.59,5.16-.87,1.73-.23.45.45.22c.8.41,1.22.61,2,1l.46.2.2-.45.92-2,.54-1.2c.21.6.42,1.14.73,1.92l.08.2.2.08.3.12.2.08.2-.1c.75-.35,1.27-.61,1.83-.9l-1.13,3.35-.16.47.47.16c.84.28,1.28.42,2.13.67l.48.14.14-.48,1-3.48,1.15-3.93.13-.48-.48-.14c-.62-.18-.93-.28-1.54-.48l-.22-.07-.2.12c-1.12.68-1.76,1-2.81,1.56-.41-1.1-.63-1.8-1-3.06l-.06-.22-.21-.1c-.6-.27-.9-.41-1.49-.71l-.44-.22Zm40.59,0-.44.23a36.07,36.07,0,0,1-5,2.14l-.47.17.16.47,1.08,3,1.5,4.23.16.47.48-.16a44.53,44.53,0,0,0,6.12-2.62l.45-.22-.23-.45-.19-.39-.44-.87-.23-.45-.44.23c-1.36.68-2.11,1-3.38,1.55l0-.07-.29-.73c1.13-.46,1.84-.79,3.07-1.39l.44-.22-.22-.45-.31-.64-.32-.63-.22-.45-.45.23c-1.17.58-1.82.87-2.89,1.31l-.24-.57c1.12-.45,1.82-.78,3-1.38l.44-.22-.22-.45-.32-.63-.31-.63-.23-.45Zm-30.38,3.74-.11.49-.85,3.79-.83,3.74-.11.48.49.11c.86.19,1.31.28,2.17.44l.5.09.08-.49.67-3.72.7-3.88.08-.49-.49-.09c-.73-.13-1.09-.2-1.81-.36l-.49-.11Zm19.81.23a6.6,6.6,0,0,0-1.29.14c-1.3.25-1.93.34-3.24.5l-.5.06.06.49.27,2.28.63,5.38.06.5.5-.06c1.45-.17,2.19-.28,3.63-.55a7.68,7.68,0,0,0,2.3-.8,4.49,4.49,0,0,0,1.5-1.3,3.52,3.52,0,0,0,.65-1.65,4.18,4.18,0,0,0-.16-1.77,4.34,4.34,0,0,0-2-2.63,4.55,4.55,0,0,0-1.68-.54,5.06,5.06,0,0,0-.68,0Zm-1.82,2.69.74-.14a4,4,0,0,1,.66-.06,1.94,1.94,0,0,1,.34,0,1.73,1.73,0,0,1,.7.26,1.63,1.63,0,0,1,.48.5,2.36,2.36,0,0,1,.31.74,2.32,2.32,0,0,1,.06.74,1.67,1.67,0,0,1-.2.67,1.71,1.71,0,0,1-.55.56,3.05,3.05,0,0,1-1.06.39l-.87.15-.61-3.83Zm-13.41-2.1-.06.5-.43,3.75L40,134.34l-.06.5.49.06c.88.1,1.33.14,2.21.2l.49,0,0-.5.25-3.49V131a39.82,39.82,0,0,0,3.74,4.08l.15.15h.21c.74,0,1.11,0,1.85-.07l.5,0,0-.49-.26-4.72-.17-3,0-.49-.5,0c-.73,0-1.1.06-1.84.07h-.5v.5l0,3.11v.33a37.32,37.32,0,0,1-3.13-3.86l-.13-.19-.24,0c-.67-.05-1-.08-1.68-.16l-.5-.06Z" transform="translate(0 -0.86)"/><path class="cls-5" d="M23.74,14.73c-.67.24-1,.36-1.68.62a55.46,55.46,0,0,0-6.6-2.88l2.23,4.75c-.78.37-1.17.55-1.94,1L12,10.88c.8-.41,1.2-.6,2-1a55.16,55.16,0,0,1,6.55,2.61L18.76,7.85C19.65,7.5,20.1,7.34,21,7,22.1,10.1,22.65,11.64,23.74,14.73Zm10.16-11c.31,1.83.46,2.74.76,4.58a3.92,3.92,0,0,1,0,1.72,3,3,0,0,1-.7,1.28,4.16,4.16,0,0,1-1.21.87,7.6,7.6,0,0,1-1.59.55,7,7,0,0,1-1.71.19,4.1,4.1,0,0,1-1.48-.28,3,3,0,0,1-1.18-.85A3.7,3.7,0,0,1,26,10.29c-.54-1.78-.8-2.68-1.34-4.46.92-.27,1.37-.4,2.29-.65.49,1.82.73,2.73,1.21,4.55a1.74,1.74,0,0,0,.93,1.18A2.38,2.38,0,0,0,30.7,11a2.93,2.93,0,0,0,.8-.29,2.12,2.12,0,0,0,.61-.5,1.73,1.73,0,0,0,.35-.72,2.12,2.12,0,0,0,0-.94c-.35-1.79-.53-2.68-.89-4.47C32.5,3.92,33,3.84,33.9,3.69ZM29,3.85,28,4.1c.24-.78.36-1.17.62-1.95.93-.22,1.39-.32,2.33-.51C30.13,2.52,29.74,3,29,3.85Zm17.43,6.3a9.25,9.25,0,0,1-1.64.65,8.18,8.18,0,0,1-1.67.24A6.54,6.54,0,0,1,41,10.83a4.57,4.57,0,0,1-1.64-.8,4.14,4.14,0,0,1-1.1-1.23,3.72,3.72,0,0,1-.51-1.5,3.45,3.45,0,0,1,.18-1.62,3.81,3.81,0,0,1,.94-1.46,5.15,5.15,0,0,1,1.7-1.1,7.12,7.12,0,0,1,2.36-.48,6.72,6.72,0,0,1,3.43.65V5.11a8.75,8.75,0,0,0-1.59-.61,5.34,5.34,0,0,0-1.6-.16,4.3,4.3,0,0,0-1.32.24,3.23,3.23,0,0,0-1,.59,2.33,2.33,0,0,0-.63.84,2.24,2.24,0,0,0,.17,2,2.53,2.53,0,0,0,.71.75,3.16,3.16,0,0,0,1,.45,4.46,4.46,0,0,0,1.24.13,5.29,5.29,0,0,0,1.39-.25c.42-.14,1-.38,1.74-.71Zm9.62,1.44A55.21,55.21,0,0,0,49.64,11c.17-3.27.26-4.9.43-8.17.94.05,1.41.08,2.35.16L51.87,9.6c1.76.14,2.64.25,4.4.51Zm8.8,1.92a55.6,55.6,0,0,0-6.09-1.46c.62-3.21.92-4.82,1.54-8A63.28,63.28,0,0,1,67,5.62l-.41,1.45C64.9,6.57,64,6.35,62.29,6l-.37,1.67c1.62.37,2.43.57,4,1l-.41,1.44c-1.57-.45-2.36-.65-4-1L61.16,11c1.65.37,2.47.58,4.11,1.05Zm12.61,2.23a4.4,4.4,0,0,1-1.51.77,5.57,5.57,0,0,1-1.84.18,6.11,6.11,0,0,1-2-.5,6.15,6.15,0,0,1-1.78-1.09,5,5,0,0,1-1.15-1.44,4.6,4.6,0,0,1-.49-1.61,3.75,3.75,0,0,1,.17-1.57,3.53,3.53,0,0,1,.81-1.32,3.84,3.84,0,0,1,1.42-.94,4.73,4.73,0,0,1,2-.31,7,7,0,0,1,4.32,1.81,4.75,4.75,0,0,1,1.15,1.62A4,4,0,0,1,78.84,13a3.38,3.38,0,0,1-.37,1.49A3.69,3.69,0,0,1,77.46,15.74ZM76.39,11.5a3.6,3.6,0,0,0-4-1.66A2.28,2.28,0,0,0,71,11.25a2.39,2.39,0,0,0,.09,2,3.07,3.07,0,0,0,1.63,1.39,3,3,0,0,0,2.13.18,2.32,2.32,0,0,0,1.47-1.31A2.25,2.25,0,0,0,76.39,11.5Z" transform="translate(0 -0.86)"/><path class="cls-5" d="M30.93,1.64C30.13,2.52,29.74,3,29,3.85L28,4.1c.24-.78.36-1.17.62-1.95.93-.22,1.39-.32,2.33-.51m12.41,1a6.44,6.44,0,0,1,3,.66V5.11a8.75,8.75,0,0,0-1.59-.61,5.69,5.69,0,0,0-1.36-.17h-.24a4.3,4.3,0,0,0-1.32.24,3.23,3.23,0,0,0-1,.59,2.33,2.33,0,0,0-.63.84,2.24,2.24,0,0,0,.17,2,2.53,2.53,0,0,0,.71.75,3.16,3.16,0,0,0,1,.45,3.77,3.77,0,0,0,1,.13h.21a5.29,5.29,0,0,0,1.39-.25c.42-.14,1-.38,1.74-.71,0,.71,0,1.07,0,1.78a9.25,9.25,0,0,1-1.64.65,8.18,8.18,0,0,1-1.67.24h-.4A6.25,6.25,0,0,1,41,10.83a4.57,4.57,0,0,1-1.64-.8,4.14,4.14,0,0,1-1.1-1.23,3.72,3.72,0,0,1-.51-1.5,3.45,3.45,0,0,1,.18-1.62,3.81,3.81,0,0,1,.94-1.46,5.15,5.15,0,0,1,1.7-1.1,7.12,7.12,0,0,1,2.36-.48h.42m6.73.15c.94.05,1.41.08,2.35.16L51.87,9.6c1.76.14,2.64.25,4.4.51-.09.59-.13.89-.22,1.48A55.21,55.21,0,0,0,49.64,11c.17-3.27.26-4.9.43-8.17M33.9,3.69c.31,1.83.46,2.74.76,4.58a3.92,3.92,0,0,1,0,1.72,3,3,0,0,1-.7,1.28,4.16,4.16,0,0,1-1.21.87,7.6,7.6,0,0,1-1.59.55,7.23,7.23,0,0,1-1.61.2h-.1a4.1,4.1,0,0,1-1.48-.28,3,3,0,0,1-1.18-.85A3.7,3.7,0,0,1,26,10.29c-.54-1.78-.8-2.68-1.34-4.46.92-.27,1.37-.4,2.29-.65.49,1.82.73,2.73,1.21,4.55a1.74,1.74,0,0,0,.93,1.18,2.17,2.17,0,0,0,1,.21A2.84,2.84,0,0,0,30.7,11a2.93,2.93,0,0,0,.8-.29,2.12,2.12,0,0,0,.61-.5,1.73,1.73,0,0,0,.35-.72,2.12,2.12,0,0,0,0-.94c-.35-1.79-.53-2.68-.89-4.47.93-.19,1.4-.27,2.33-.42M60.3,4A63.28,63.28,0,0,1,67,5.62l-.41,1.45C64.9,6.57,64,6.35,62.29,6l-.37,1.67c1.62.37,2.43.57,4,1l-.41,1.44c-1.57-.45-2.36-.65-4-1L61.16,11c1.65.37,2.47.58,4.11,1.05l-.42,1.44a55.6,55.6,0,0,0-6.09-1.46c.62-3.21.92-4.82,1.54-8M21,7c1.1,3.08,1.65,4.62,2.74,7.71-.67.24-1,.36-1.68.62a55.46,55.46,0,0,0-6.6-2.88l2.23,4.75c-.78.37-1.17.55-1.94,1L12,10.88c.8-.41,1.2-.6,2-1a55.16,55.16,0,0,1,6.55,2.61L18.76,7.85C19.65,7.5,20.1,7.34,21,7m51.84.88H73a7,7,0,0,1,4.32,1.81,4.75,4.75,0,0,1,1.15,1.62A4,4,0,0,1,78.84,13a3.38,3.38,0,0,1-.37,1.49,3.69,3.69,0,0,1-1,1.22,4.4,4.4,0,0,1-1.51.77,5.2,5.2,0,0,1-1.43.19h-.41a6.11,6.11,0,0,1-2-.5,6.15,6.15,0,0,1-1.78-1.09,5,5,0,0,1-1.15-1.44,4.6,4.6,0,0,1-.49-1.61,3.75,3.75,0,0,1,.17-1.57,3.53,3.53,0,0,1,.81-1.32,3.84,3.84,0,0,1,1.42-.94,4.68,4.68,0,0,1,1.76-.32m1.27,7a2.54,2.54,0,0,0,.78-.12,2.32,2.32,0,0,0,1.47-1.31,2.25,2.25,0,0,0,0-2A3.08,3.08,0,0,0,74.69,10a3.56,3.56,0,0,0-1.4-.31,2.65,2.65,0,0,0-.85.13A2.28,2.28,0,0,0,71,11.25a2.39,2.39,0,0,0,.09,2,3.07,3.07,0,0,0,1.63,1.39,3.45,3.45,0,0,0,1.35.3M32.32.86l-1.49.29c-.95.19-1.41.29-2.34.51l-.28.06L28.12,2c-.25.78-.38,1.18-.62,2l-.21.68V4.57l-.48.13c-.93.25-1.39.37-2.31.65L24,5.49l.14.48L25,8.7l.52,1.73a4.4,4.4,0,0,0,.87,1.65,3.65,3.65,0,0,0,1.37,1,4.46,4.46,0,0,0,1.66.32h.11a8.19,8.19,0,0,0,1.72-.2,8.47,8.47,0,0,0,1.7-.59,4.69,4.69,0,0,0,1.35-1,3.45,3.45,0,0,0,.82-1.49,4.56,4.56,0,0,0,.07-1.93l-.24-1.41L34.4,3.6l-.08-.49-.5.08c-.94.16-1.4.24-2.34.43l-.49.1.09.49L32,8.68a1.74,1.74,0,0,1,0,.72,1.15,1.15,0,0,1-.25.52,1.56,1.56,0,0,1-.46.38,2.81,2.81,0,0,1-.67.25,3.05,3.05,0,0,1-.58.07,1.74,1.74,0,0,1-.73-.16,1.22,1.22,0,0,1-.67-.86l-.4-1.5-.8-3-.08-.29.77-.19,1-.24.16,0,.11-.13c.75-.89,1.12-1.32,1.91-2.19l1-1.12Zm11,1.27H42.9a7.33,7.33,0,0,0-2.52.52,5.53,5.53,0,0,0-1.87,1.2,4.48,4.48,0,0,0-1.06,1.65,4.13,4.13,0,0,0-.21,1.84,4.35,4.35,0,0,0,.58,1.7A4.69,4.69,0,0,0,39,10.43a5.36,5.36,0,0,0,1.81.88,6.88,6.88,0,0,0,1.87.24h.42a8.36,8.36,0,0,0,1.78-.26,9.29,9.29,0,0,0,1.73-.68l.28-.13V7.59l-.7.32c-.83.37-1.33.58-1.7.7a4.65,4.65,0,0,1-1.25.22H43.1a3.78,3.78,0,0,1-.91-.11,2.81,2.81,0,0,1-.86-.38,2,2,0,0,1-.56-.6A1.56,1.56,0,0,1,40.52,7a1.53,1.53,0,0,1,.11-.77,1.76,1.76,0,0,1,.5-.66,2.55,2.55,0,0,1,.87-.5,4.27,4.27,0,0,1,1.18-.22h.21A4.61,4.61,0,0,1,44.62,5a7,7,0,0,1,1.5.57l.72.36V3l-.27-.14a6.86,6.86,0,0,0-3.24-.72Zm6.25.12,0,.5-.24,4.56-.19,3.61,0,.5.5,0a56.18,56.18,0,0,1,6.35.63l.5.08.07-.5.22-1.48.08-.49-.5-.08c-1.58-.23-2.48-.34-3.93-.47l.16-1.92L52.92,3l0-.5-.5,0c-.94-.08-1.42-.11-2.37-.16l-.5,0ZM59.9,3.43l-.09.49-1.27,6.61L58.27,12l-.09.49.49.09a57.05,57.05,0,0,1,6,1.45l.48.14.14-.48,0-.13.38-1.31.14-.48-.48-.14c-1.47-.42-2.3-.64-3.65-.95l.1-.47L62,9.69c1.27.29,2,.49,3.43.89l.48.14.14-.48L66.38,9l.05-.17.14-.49-.48-.13c-1.44-.41-2.26-.62-3.58-.93l.16-.69c1.43.32,2.26.54,3.81,1l.48.13.14-.48.21-.72.2-.72.14-.48-.48-.14a64.92,64.92,0,0,0-6.78-1.62l-.49-.09ZM21.31,6.38l-.47.16c-.92.33-1.36.49-2.26.85l-.47.18.18.47,1.16,3,.22.56a53.32,53.32,0,0,0-5.48-2.13L14,9.36l-.19.08c-.8.39-1.2.58-2,1l-.45.23.23.44,2,3.86,1.74,3.43.23.45.45-.23c.76-.39,1.14-.57,1.92-.94l.45-.21L18.14,17l-.05-.12-1.66-3.52a51.66,51.66,0,0,1,5.4,2.43l.2.1.21-.08c.67-.26,1-.38,1.67-.62l.47-.17-.17-.47L21.47,6.85l-.16-.47Zm51.53,1a5.23,5.23,0,0,0-1.94.35,4.37,4.37,0,0,0-1.6,1.07,3.86,3.86,0,0,0-.92,1.5,4.08,4.08,0,0,0-.19,1.78,4.94,4.94,0,0,0,.54,1.78A5.32,5.32,0,0,0,70,15.47a6.91,6.91,0,0,0,1.92,1.18,6.64,6.64,0,0,0,2.17.54h.45A5.78,5.78,0,0,0,76.09,17a4.86,4.86,0,0,0,1.68-.86,4.21,4.21,0,0,0,1.15-1.38A4,4,0,0,0,79.34,13,4.58,4.58,0,0,0,79,11.15a5.15,5.15,0,0,0-1.26-1.79A7.15,7.15,0,0,0,75.54,8a7,7,0,0,0-2.48-.57Zm1.27,7A3.1,3.1,0,0,1,73,14.16,2.59,2.59,0,0,1,71.58,13a1.83,1.83,0,0,1-.07-1.57,1.72,1.72,0,0,1,1.09-1.11,2,2,0,0,1,.69-.11,3.17,3.17,0,0,1,1.21.27,2.61,2.61,0,0,1,1.44,1.24,1.73,1.73,0,0,1,0,1.55,1.84,1.84,0,0,1-1.16,1.06,2.18,2.18,0,0,1-.63.09Z" transform="translate(0 -0.86)"/><path class="cls-6" d="M23.74,14.73c-.67.24-1,.36-1.68.62a55.46,55.46,0,0,0-6.6-2.88l2.23,4.75c-.78.37-1.17.55-1.94,1L12,10.88c.8-.41,1.2-.6,2-1a55.16,55.16,0,0,1,6.55,2.61L18.76,7.85C19.65,7.5,20.1,7.34,21,7,22.1,10.1,22.65,11.64,23.74,14.73Zm10.16-11c.31,1.83.46,2.74.76,4.58a3.92,3.92,0,0,1,0,1.72,3,3,0,0,1-.7,1.28,4.16,4.16,0,0,1-1.21.87,7.6,7.6,0,0,1-1.59.55,7,7,0,0,1-1.71.19,4.1,4.1,0,0,1-1.48-.28,3,3,0,0,1-1.18-.85A3.7,3.7,0,0,1,26,10.29c-.54-1.78-.8-2.68-1.34-4.46.92-.27,1.37-.4,2.29-.65.49,1.82.73,2.73,1.21,4.55a1.74,1.74,0,0,0,.93,1.18A2.38,2.38,0,0,0,30.7,11a2.93,2.93,0,0,0,.8-.29,2.12,2.12,0,0,0,.61-.5,1.73,1.73,0,0,0,.35-.72,2.12,2.12,0,0,0,0-.94c-.35-1.79-.53-2.68-.89-4.47C32.5,3.92,33,3.84,33.9,3.69ZM29,3.85,28,4.1c.24-.78.36-1.17.62-1.95.93-.22,1.39-.32,2.33-.51C30.13,2.52,29.74,3,29,3.85Zm17.43,6.3a9.25,9.25,0,0,1-1.64.65,8.18,8.18,0,0,1-1.67.24A6.54,6.54,0,0,1,41,10.83a4.57,4.57,0,0,1-1.64-.8,4.14,4.14,0,0,1-1.1-1.23,3.72,3.72,0,0,1-.51-1.5,3.45,3.45,0,0,1,.18-1.62,3.81,3.81,0,0,1,.94-1.46,5.15,5.15,0,0,1,1.7-1.1,7.12,7.12,0,0,1,2.36-.48,6.72,6.72,0,0,1,3.43.65V5.11a8.75,8.75,0,0,0-1.59-.61,5.34,5.34,0,0,0-1.6-.16,4.3,4.3,0,0,0-1.32.24,3.23,3.23,0,0,0-1,.59,2.33,2.33,0,0,0-.63.84,2.24,2.24,0,0,0,.17,2,2.53,2.53,0,0,0,.71.75,3.16,3.16,0,0,0,1,.45,4.46,4.46,0,0,0,1.24.13,5.29,5.29,0,0,0,1.39-.25c.42-.14,1-.38,1.74-.71Zm9.62,1.44A55.21,55.21,0,0,0,49.64,11c.17-3.27.26-4.9.43-8.17.94.05,1.41.08,2.35.16L51.87,9.6c1.76.14,2.64.25,4.4.51Zm8.8,1.92a55.6,55.6,0,0,0-6.09-1.46c.62-3.21.92-4.82,1.54-8A63.28,63.28,0,0,1,67,5.62l-.41,1.45C64.9,6.57,64,6.35,62.29,6l-.37,1.67c1.62.37,2.43.57,4,1l-.41,1.44c-1.57-.45-2.36-.65-4-1L61.16,11c1.65.37,2.47.58,4.11,1.05Zm12.61,2.23a4.4,4.4,0,0,1-1.51.77,5.57,5.57,0,0,1-1.84.18,6.11,6.11,0,0,1-2-.5,6.15,6.15,0,0,1-1.78-1.09,5,5,0,0,1-1.15-1.44,4.6,4.6,0,0,1-.49-1.61,3.75,3.75,0,0,1,.17-1.57,3.53,3.53,0,0,1,.81-1.32,3.84,3.84,0,0,1,1.42-.94,4.73,4.73,0,0,1,2-.31,7,7,0,0,1,4.32,1.81,4.75,4.75,0,0,1,1.15,1.62A4,4,0,0,1,78.84,13a3.38,3.38,0,0,1-.37,1.49A3.69,3.69,0,0,1,77.46,15.74ZM76.39,11.5a3.6,3.6,0,0,0-4-1.66A2.28,2.28,0,0,0,71,11.25a2.39,2.39,0,0,0,.09,2,3.07,3.07,0,0,0,1.63,1.39,3,3,0,0,0,2.13.18,2.32,2.32,0,0,0,1.47-1.31A2.25,2.25,0,0,0,76.39,11.5Z" transform="translate(0 -0.86)"/></g></svg>